<?xml version="1.0" encoding="utf-8"?>
<!-- Generator: Adobe Illustrator 28.3.0, SVG Export Plug-In . SVG Version: 6.00 Build 0)  -->
<svg version="1.1" xmlns="http://www.w3.org/2000/svg" xmlns:xlink="http://www.w3.org/1999/xlink" x="0px" y="0px"
	 viewBox="0 0 428 928" style="enable-background:new 0 0 428 928;" xml:space="preserve">
<style type="text/css">
	.st0{fill:url(#SVGID_1_);}
	.st1{fill:url(#SVGID_00000072266665477780146800000009967441735475805885_);}
	.st2{fill:url(#SVGID_00000084522956471221104750000009970308747623666855_);}
	.st3{fill:url(#SVGID_00000124152968332127868880000007879791066288820119_);}
	.st4{fill:url(#SVGID_00000142141272772550785560000015357405727059467920_);}
	.st5{fill:url(#SVGID_00000061459735093697086450000011019943332654441372_);}
	.st6{opacity:0.5;fill:url(#SVGID_00000080924414349531452050000003103122874429046148_);enable-background:new    ;}
	.st7{opacity:0.5;fill:url(#SVGID_00000160171907786130011140000012989978320849149593_);enable-background:new    ;}
	.st8{opacity:0.2;fill:url(#SVGID_00000026843809171151832730000007389969950141215896_);enable-background:new    ;}
	.st9{opacity:0.2;fill:url(#SVGID_00000082338945760970923270000002367812996667911820_);enable-background:new    ;}
	.st10{opacity:0.5;fill:url(#SVGID_00000036214255495862180480000001035497162964694974_);enable-background:new    ;}
	.st11{opacity:0.5;fill:url(#SVGID_00000145781231813484778560000004382044252277208235_);enable-background:new    ;}
	.st12{opacity:0.3;fill:url(#SVGID_00000075158542521617543570000008258997027920106926_);enable-background:new    ;}
	.st13{opacity:0.3;fill:url(#SVGID_00000090973545606492114100000010122200984741552003_);enable-background:new    ;}
	.st14{fill:#B4D9C0;}
	.st15{fill:#EFE0C5;}
	.st16{fill:#969695;}
	.st17{fill:#FBECCD;}
	.st18{fill:#FF5B22;}
	.st19{fill:#BED8E5;}
	.st20{fill:#F7EFE2;}
	.st21{fill:#F9F9E2;}
	.st22{display:none;}
</style>
<g id="bg">
	
		<linearGradient id="SVGID_1_" gradientUnits="userSpaceOnUse" x1="216" y1="1197" x2="216" y2="533" gradientTransform="matrix(1 0 0 -1 0 1148)">
		<stop  offset="2.000000e-04" style="stop-color:#FFE6DE"/>
		<stop  offset="0.6252" style="stop-color:#FEFAF1"/>
		<stop  offset="0.7447" style="stop-color:#FBECCD"/>
	</linearGradient>
	<rect x="-502" y="-49" class="st0" width="1436" height="664"/>
</g>
<g id="wald">
	
		<linearGradient id="SVGID_00000128475757964663087210000015402282333771603088_" gradientUnits="userSpaceOnUse" x1="207.2429" y1="456.507" x2="207.2429" y2="662.707" gradientTransform="matrix(1 0 0 -1 0 1148)">
		<stop  offset="0" style="stop-color:#FDE7D2"/>
		<stop  offset="1" style="stop-color:#F2F5EE"/>
	</linearGradient>
	<path style="fill:url(#SVGID_00000128475757964663087210000015402282333771603088_);" d="M-439.6,507.1c0,0,71-14.9,133.1-14.9
		s234.5,7.5,299,7.5s301.3-14.4,366-14.4s213.8,21.9,249.7,21.9c35.9,0,204.5-21.9,245.9-21.9v206.2H-439.6V507.1z"/>
	
		<linearGradient id="SVGID_00000106122284421294880190000006348916595021762975_" gradientUnits="userSpaceOnUse" x1="207.2928" y1="456.607" x2="207.2928" y2="654.707" gradientTransform="matrix(1 0 0 -1 0 1148)">
		<stop  offset="0" style="stop-color:#576B74"/>
		<stop  offset="1" style="stop-color:#FDE7D2"/>
	</linearGradient>
	<path style="fill:url(#SVGID_00000106122284421294880190000006348916595021762975_);" d="M-439.6,493.3
		c40,9.6,99.5,37.3,133.1,37.3s221.3-37.3,260.1-37.3s183.7,44.9,209.6,44.9s212.2-34.4,276.9-34.4s110,34.4,190.2,34.4
		s185.1-35.3,223.9-35.3v188.5H-439.6V493.3z"/>
	
		<linearGradient id="SVGID_00000144339098968844386410000010250750019479303815_" gradientUnits="userSpaceOnUse" x1="207.2928" y1="456.507" x2="207.2928" y2="661.507" gradientTransform="matrix(1 0 0 -1 0 1148)">
		<stop  offset="0" style="stop-color:#B4D9C0"/>
		<stop  offset="1" style="stop-color:#70A292"/>
	</linearGradient>
	<path style="fill:url(#SVGID_00000144339098968844386410000010250750019479303815_);" d="M-439.6,544.8c0,0,135.7-35.4,188.8-35.4
		s141,42.1,181.1,42.1s194.2-65,255.1-65c35.7,0,147.6,50.7,196.4,50.7c48.9,0,148.1-28.2,214.1-30.1c66-1.9,117.2,33,169,33
		s89.3-31.5,89.3-31.5v182.9H-439.6V544.8z"/>
	
		<linearGradient id="SVGID_00000178900591847651059360000012265756535929960618_" gradientUnits="userSpaceOnUse" x1="-60.4069" y1="524.0945" x2="854.1929" y2="524.0945" gradientTransform="matrix(1 0 0 -1 0 1148)">
		<stop  offset="0" style="stop-color:#52907C"/>
		<stop  offset="1" style="stop-color:#498875"/>
	</linearGradient>
	<path style="fill:url(#SVGID_00000178900591847651059360000012265756535929960618_);" d="M840.7,610.1c-7.5-5.8-9.1-10.5-3.8-10.2
		c2.6,0.1,10-4.5,6.3-5.2c-10.4-1.7-11.9-10.4-10.5-9.1c1.4,1.3,10.9-0.9,5-3.8c-3.8-1.9-8.6-10-8.1-9.6c2.6,1.9,8,0.9,4.2-0.9
		c-2.2-1.1-4.8-6.7-4.1-6.4s4.5-0.1,2-1.4c-2.5-1.2-2.5-5.9-3.9-7.1c-0.1-0.1-0.5-0.1-0.6,0c-1.5,1.2-1.4,5.8-3.9,7.1
		c-2.5,1.2,1.2,1.7,2,1.4c0.7-0.3-1.9,5.3-4.1,6.4c-3.8,1.8,1.6,2.8,4.2,0.9c0.5-0.4-4.5,7.3-8.1,9.6c-7.6,4.7,4.2,3.6,5,3.8
		c1.8,0.5-3.9,6.2-9.4,8.6c-2.2-2.7-2.4-5.4-1.6-4.6c1.4,1.3,10.7-0.9,4.9-3.9c-3.7-1.9-8.4-10.2-7.9-9.8c2.6,2,7.8,0.9,4.1-1
		c-2.2-1.1-5.8-6.7-5.1-6.4c0.7,0.3,4.8-0.2,2.3-1.4c-2.5-1.3-1.7-6.2-3.2-7.4c-0.1-0.1-0.5-0.1-0.6,0c-1.4,1.2-0.7,6-3.2,7.2
		c-2.5,1.3,1.3,1.7,2,1.4c0.7-0.3-2.6,5.5-4.8,6.6c-3.7,1.9,1.5,2.9,4.1,1c0.5-0.4-4.7,7-7.9,9.8c-6.3,5.6,4.5,3.3,4.9,3.9
		c1,1.5-6.3,8.8-12.3,9.8c-3.6,0.6,2,6.1,7.7,4.8c3.8-0.9,2.8,1.4-1.1,4.9c-0.2-0.5-0.8-0.9-1.6-1c-13.3-2.2-15.2-13.2-13.4-11.6
		c1.8,1.6,14-1.1,6.3-4.9c-4.8-2.4-10.9-12.7-10.3-12.2c3.4,2.4,10.2,1.2,5.3-1.2c-2.8-1.4-7.6-8.3-6.6-8c1,0.4,6.2-0.2,3-1.8
		c-3.2-1.6-2.3-7.7-4.1-9.2c-0.1-0.1-0.6-0.1-0.7,0c-1.9,1.5-0.9,7.4-4.1,9c-3.2,1.6,1.7,2.2,2.6,1.8c1-0.4-3.4,6.8-6.2,8.1
		c-4.8,2.4,2,3.6,5.3,1.2c0.6-0.4-5.3,7.5-9.4,11.4c-1.9-1-1.9-4.2-3-5.1c-0.1-0.1-0.4-0.1-0.4,0c-1.1,0.9-1.1,4.2-3.1,5.1
		c-2,1,0.9,1.3,1.5,1.1c0.6-0.2-1.5,4.1-3.2,4.9c-2.9,1.4,1.2,2.2,3.2,0.7c0.4-0.3-2.5,4.5-5.1,6.7c-6.5-3.3-8.7-9.2-7.5-8.1
		c1.5,1.3,11.4-0.9,5.2-4c-3.9-1.9-8.9-10.4-8.4-10c2.7,2,8.3,0.9,4.4-1c-2.3-1.1-5-7-4.3-6.7c0.8,0.3,4.7-0.2,2.1-1.4
		c-2.6-1.3-2.6-5.7-4.1-6.9c-0.1-0.1-0.5-0.1-0.6,0c-1.5,1.2-1.5,5.6-4.1,6.9s1.3,1.7,2.1,1.4c0.8-0.3-2,5.5-4.3,6.7
		c-3.9,1.9,1.6,3,4.4,1c0.5-0.4-4.5,8-8.4,10c-6.2,3.1,3.7,5.3,5.2,4c0.7-0.7,0.2,1.4-1.9,3.8c-3.9-2.1-8.9-10.1-8.3-9.8
		c2.8,2,8.4,0.9,4.4-1c-2.3-1.1-5.1-6.9-4.3-6.6c0.8,0.3,4.8-0.1,2.1-1.4s-2.6-6.1-4.2-7.3c-0.1-0.1-0.5-0.1-0.6,0
		c-1.5,1.2-1.5,6-4.2,7.3s1.3,1.7,2.1,1.4c0.8-0.3-2,5.5-4.3,6.6c-4,1.9,1.7,2.9,4.4,1c0.5-0.4-4.8,7.6-8.5,9.9
		c-8.1,4.9,4.4,3.7,5.3,3.9c1.3,0.4-1.2,3.3-4.8,5.9c-0.2-0.1-0.3-0.2-0.5-0.3c-3.3-1.6-7.6-8.8-7.1-8.5c2.3,1.7,7,0.8,3.7-0.8
		c-1.9-1-4.3-5.9-3.6-5.6s4-0.1,1.7-1.2c-2.2-1.1-2.2-4.8-3.5-5.8c-0.1-0.1-0.4-0.1-0.5,0c-1.3,1-1.3,4.7-3.5,5.8
		c-2.2,1.1,1.1,1.5,1.7,1.2c0.7-0.3-1.7,4.7-3.6,5.6c-3.3,1.6,1.4,2.5,3.7,0.8c0.3-0.2-1.2,2.4-3.1,4.8c-0.2-0.4-0.8-0.9-1.8-1.4
		c-3.8-1.9-8.6-10-8.1-9.6c2.6,1.9,8,0.9,4.2-0.9c-2.2-1.1-4.9-6.7-4.1-6.4s4.5-0.1,2-1.4c-2.5-1.2-2.5-5.9-4-7.1
		c-0.1-0.1-0.5-0.1-0.6,0c-1.5,1.2-1.4,5.9-4,7.1c-2.5,1.2,1.2,1.7,2,1.4s-1.9,5.4-4.1,6.4c-3.8,1.9,1.6,2.9,4.2,0.9
		c0.5-0.4-4.5,7.4-8.1,9.6c-0.3,0.2-0.5,0.3-0.7,0.5c-2-2.5-3.5-5.1-3.2-4.9c2.5,1.8,7.7,0.9,4-0.9c-2.1-1-5.7-6.3-5-6
		s4.7-0.2,2.3-1.4c-2.4-1.2-1.7-5.8-3.1-6.9c-0.1-0.1-0.4-0.1-0.6,0c-1.4,1.1-0.7,5.6-3.1,6.8c-2.4,1.2,1.3,1.6,2,1.4
		c0.7-0.3-2.6,5.1-4.7,6.2c-3.7,1.8,1.5,2.7,4,0.9c0.5-0.4-4.7,6.6-7.8,9.2c-0.2-0.1-0.4-0.3-0.7-0.4c-3.7-1.9-8.4-10.2-7.9-9.8
		c2.6,2,7.8,0.9,4.1-1c-2.2-1.1-5.8-6.7-5.1-6.4c0.7,0.3,4.8-0.2,2.3-1.4c-2.5-1.3-1.7-6.2-3.2-7.4c-0.1-0.1-0.5-0.1-0.6,0
		c-1.4,1.2-0.7,6-3.2,7.2c-2.5,1.3,1.3,1.7,2,1.4s-2.6,5.5-4.8,6.6c-3.7,1.9,1.5,2.9,4.1,1c0.5-0.4-4.7,7-7.9,9.8
		c-6.3,5.6,4.5,3.3,4.9,3.9c1,1.5-6.3,8.8-12.3,9.8c-3.6,0.6,2,6.1,7.7,4.8c5.4-1.2,1.1,4-7.6,9.8c-2.9-0.2-5.8-0.4-8.8-0.6
		c2.3-1.5,2.8-3,0.1-3.8c-9.1-2.8-17.7-9.5-13-8.5c4.6,1,11.7-3,8.9-3.5c-8.1-1.3-10.9-8.4-9.8-7.4s8.5-0.7,3.9-3
		c-2.9-1.4-6.7-7.7-6.3-7.4c2,1.5,6.2,0.7,3.2-0.7c-1.7-0.8-3.8-5.2-3.2-4.9c0.6,0.2,3.5-0.1,1.5-1.1s-1.9-4.2-3.1-5.1
		c-0.1-0.1-0.4-0.1-0.4,0c-1.1,0.9-1.1,4.2-3.1,5.1c-2,1,0.9,1.3,1.5,1.1c0.6-0.2-1.5,4.1-3.2,4.9c-2.9,1.4,1.2,2.2,3.2,0.7
		c0.4-0.3-2.5,4.5-5.1,6.7c-6.5-3.3-8.7-9.2-7.5-8.1c1.5,1.3,11.4-0.9,5.2-4c-3.9-1.9-8.9-10.4-8.4-10c2.7,2,8.3,0.9,4.4-1
		c-2.3-1.1-5-7-4.3-6.7c0.8,0.3,4.7-0.2,2.1-1.4c-2.6-1.3-2.6-5.7-4.1-6.9c-0.1-0.1-0.5-0.1-0.6,0c-1.5,1.2-1.5,5.6-4.1,6.9
		c-2.6,1.3,1.3,1.7,2.1,1.4c0.8-0.3-2,5.5-4.3,6.7c-3.9,1.9,1.6,3,4.4,1c0.4-0.3-1.7,3.2-4.2,6.3c-0.1-0.1-0.3-0.2-0.5-0.3
		c-2.3-1.1-5.1-6.9-4.3-6.6s4.7-0.1,2.1-1.4c-2.7-1.3-2.6-6.1-4.2-7.3c-0.1-0.1-0.5-0.1-0.6,0c-1.5,1.2-1.5,6-4.2,7.3
		c-2.7,1.3,1.3,1.7,2.1,1.4s-2,5.5-4.3,6.6c-4,1.9,1.7,2.9,4.4,1c0.5-0.4-4.7,7.6-8.5,9.9c-8.1,4.9,4.4,3.7,5.3,3.9
		c2.3,0.6-6.8,8.8-13.3,9.9c-3.9,0.6,5.6,5,8.3,4.8c3.6-0.2,3.1,1.7,0.2,4.6h-0.1c-1.7,0.5-2.5,1.3-2.4,2.2
		c-0.2,0.2-0.4,0.3-0.7,0.5c-5-0.5-10-1.1-15.1-1.7c6.6-2,9.8-5.2,5.4-6.6c-10.3-3.2-20.1-10.8-14.8-9.7c5.2,1.1,13.3-3.5,10.1-4
		c-9.2-1.5-12.4-9.6-11.1-8.5c1.3,1.1,9.7-0.8,4.4-3.4c-3.3-1.6-7.6-8.8-7.1-8.5c2.3,1.7,7,0.8,3.7-0.8c-1.9-0.9-4.3-5.9-3.6-5.6
		s4-0.1,1.7-1.2c-2.2-1.1-2.2-4.8-3.5-5.8c-0.1-0.1-0.4-0.1-0.5,0c-1.3,1-1.3,4.7-3.5,5.8c-2.2,1.1,1.1,1.5,1.7,1.2
		c0.7-0.3-1.7,4.7-3.6,5.6c-3.3,1.6,1.4,2.5,3.7,0.8c0.5-0.3-3.8,6.8-7.1,8.5c-5.3,2.6,3.1,4.5,4.4,3.4c1.3-1.1-1.9,6.9-11.1,8.5
		c-3.3,0.5,4.9,5.1,10.1,4c5.3-1.1-4.5,6.4-14.8,9.7c-0.2,0.1-0.4,0.2-0.6,0.2c-8.1-2.9-15-8.2-10.8-7.3c4.4,0.9,11.4-2.9,8.6-3.3
		c-7.9-1.3-10.6-7.9-9.5-6.9c1.1,0.9,8.3-0.6,3.8-2.8c-2.8-1.3-6.5-7.2-6.1-6.9c2,1.4,6,0.7,3.2-0.7c-1.7-0.8-3.7-4.8-3.1-4.6
		c0.6,0.2,3.4-0.1,1.5-1c-1.9-0.9-1.9-3.9-3-4.8c-0.1-0.1-0.4-0.1-0.4,0c-1.1,0.9-1.1,3.9-3,4.8s0.9,1.2,1.5,1s-1.4,3.9-3.1,4.6
		c-2.9,1.3,1.2,2.1,3.2,0.7c0.4-0.3-3.3,5.6-6.1,6.9c-4.5,2.1,2.7,3.7,3.8,2.8c1.1-0.9-1.6,5.7-9.5,6.9c-2.8,0.4,4.2,4.2,8.6,3.3
		c3.8-0.8-1.4,3.4-8.3,6.3c-31.6-3.4-58.8-6-75.1-5.8c-49,0.6-248,63.7-317.6,63.7c-69.6,0-143.1,12.4-143.1,12.4h914.6v-84.8
		C854.1,606.6,849.2,608,840.7,610.1z M672,612.8c0.4,0.3,1.3,0.4,2.3,0.3c-0.7,0.6-1.5,1.1-2.3,1.7
		C671.4,613.3,671.5,612.3,672,612.8z M706,625.3c0.4,0.1,0.8,0.1,1.3,0.2c-0.6,0.4-1.2,0.9-1.8,1.4
		C704.2,625.6,704.1,624.9,706,625.3z M754.3,618.9c-0.1-0.1-0.2-0.1-0.3-0.2C754.1,618.7,754.2,618.8,754.3,618.9z M689.7,625
		c1.7,0.4,3.4,0.6,5,0.2c2.9-0.6,1.3,1.3-2.4,3.7C690.9,627.5,690,626.1,689.7,625z M673.9,626.5c-0.2,0.3-0.5,0.5-0.8,0.8
		C673.1,626.9,673.4,626.6,673.9,626.5z M655.7,627.3c1.5,0.3,2.9,0.2,4-0.2c-0.1,1-1.8,2.8-4.7,5.1
		C651.5,628.5,651.7,626.4,655.7,627.3z M815.3,604.3c0.8,0.2,1.5,0.2,2.2,0.2c-1,1-2.4,2.2-4,3.4
		C811.3,605,811.8,603.5,815.3,604.3z M785.5,614.6c0.6,0.1,1.2,0.2,1.8,0.2c-0.3,0.2-0.6,0.4-0.9,0.6c-2.1,1.3-3,2.8-2.7,4.1
		C780.2,615.7,780.8,613.6,785.5,614.6z M766.7,596.4c0.6,0.9-1.1,3.3-3.9,5.8c-1.9-2.2-3.4-4.9-3.2-4.7c2,1.5,6.2,0.7,3.2-0.7
		c-0.2-0.1-0.4-0.2-0.6-0.4C764.5,596.3,766.5,596.1,766.7,596.4z M759.8,591.8c0.1,0,0.2,0,0.3,0.1c-0.1,0.1-0.2,0.2-0.3,0.3
		C759.6,591.9,759.6,591.8,759.8,591.8z M744.9,610.7c1.4,0.3,3,0.2,4.5,0c0.3,0.5,0.8,1,1.4,1.6c-1.1,0.9-2.4,1.7-4,2.3
		C743.1,612,741.8,610.1,744.9,610.7z M732.7,612.1c-0.8-0.3-1.6-0.7-2.2-1.1c0.4,0,0.7-0.1,1.1-0.2
		C733.5,610.3,733.7,610.9,732.7,612.1z M725.8,603.8C725.8,603.9,725.8,603.9,725.8,603.8c-0.1,0.1-0.3,0.2-0.5,0.3
		C725.4,603.7,725.5,603.6,725.8,603.8z M712.2,620.1c-1.1-0.5-2-1-2.8-1.6c0.1,0,0.2,0,0.3,0C711.8,618.4,712.5,619,712.2,620.1z
		 M688.5,608.1c0.6,0.6,3,0.4,4.8-0.1c-0.6,0.6-1.3,1.1-1.9,1.4c-5.3,2.6,3.1,4.5,4.4,3.4c0.6-0.5,0.2,1.1-1.4,3
		C688.1,612.8,687.3,607.1,688.5,608.1z M677.9,608.1c0.5,0.1,0.4,0.7-0.1,1.5c-0.3-0.2-0.6-0.4-1-0.6c-0.5-0.2-1-0.6-1.4-1
		C676.6,608.1,677.7,608.1,677.9,608.1z M651.5,612.6c0.6,0.6,2.8,0.5,4.5-0.1c1.8,0.6,5.6-0.1,5.9,0.3c0.7,1-2.3,4.4-6.2,6.8
		C651,616.4,650.4,611.6,651.5,612.6z M598.6,624.1c-0.1-0.1-0.2-0.1-0.3-0.2C598.5,624,598.6,624.1,598.6,624.1z M589.2,616
		c2.6,0.6,5.8-0.1,8.4-1.1c-1.1,1.6-3.2,3.7-6.4,4.9C587.5,617.3,586.1,615.3,589.2,616z M577.1,602.2c-0.2-0.2-0.4-0.4-0.6-0.6
		c0.3-0.1,0.5-0.2,0.6-0.3C577.5,600.9,577.5,601.3,577.1,602.2z M571.2,594.3c0.9,0.7,2.2,1,3.3,1c-0.6,0.6-1.2,1.1-1.8,1.5
		C571.6,595.3,571,594.1,571.2,594.3z"/>
	
		<linearGradient id="SVGID_00000153705673519681448320000014034870771747587229_" gradientUnits="userSpaceOnUse" x1="58.2929" y1="456.602" x2="58.2929" y2="717.4269" gradientTransform="matrix(1 0 0 -1 0 1148)">
		<stop  offset="0" style="stop-color:#1F6A6E"/>
		<stop  offset="1" style="stop-color:#2C707A"/>
	</linearGradient>
	<path style="fill:url(#SVGID_00000153705673519681448320000014034870771747587229_);" d="M403.8,663.5c-37.5,0-132.5,6.3-172.9,6.8
		c11.8-4.7,16.4-10.7,7.3-13.6c-24.2-7.6-47.1-25.3-34.7-22.7c12.2,2.6,31.3-8.1,23.6-9.4c-21.6-3.6-29-22.5-26-19.9
		c2.9,2.6,22.7-1.8,10.3-7.9c-7.8-3.8-17.8-20.6-16.7-19.8c5.4,4,16.5,1.9,8.7-1.9c-4.6-2.2-10-13.8-8.5-13.2
		c1.5,0.6,9.3-0.3,4.1-2.9c-5.2-2.6-5.1-11.2-8.2-13.7c-0.2-0.2-1-0.2-1.2,0c-3,2.4-3,11.1-8.2,13.7c-5.2,2.6,2.5,3.5,4.1,2.9
		c1.5-0.6-3.9,11-8.5,13.2c-7.8,3.8,3.2,5.9,8.7,1.9c1.1-0.8-8.9,16-16.7,19.8c-12.4,6.1,7.3,10.5,10.3,7.9
		c2.9-2.6-4.5,16.2-26,19.9c-7.6,1.3,11.5,12,23.6,9.4c8-1.7,1.4,5-10.7,12c-0.6-0.4-1.1-0.8-1.8-1.2
		c-26.2-17.4-32.7-30.3-17.5-27.1c14.9,3.2,25.2-11.5,15.9-13.1c-26.4-4.4-30.2-26.3-26.6-23.1c3.6,3.2,27.7-2.2,12.6-9.7
		c-9.5-4.7-21.8-25.2-20.4-24.3c6.7,4.8,20.2,2.3,10.6-2.4c-5.6-2.7-15-16.6-13.1-15.8c1.9,0.7,12.3-0.4,6-3.6
		c-6.4-3.1-4.5-15.2-8.2-18.2c-0.3-0.2-1.2-0.2-1.5,0c-3.7,3-1.9,14.7-8.2,17.9c-6.4,3.1,3.3,4.3,5.2,3.6
		c1.9-0.7-6.8,13.5-12.4,16.2c-0.6,0.3-1.1,0.6-1.6,0.9C97,537.2,89.9,525,91,525.8c7.8,5.6,23.6,2.7,12.4-2.8
		c-6.5-3.2-14.3-19.7-12.1-18.9c2.2,0.9,13.2-0.4,5.8-4.1c-7.4-3.6-7.3-17.4-11.6-20.9c-0.3-0.3-1.4-0.3-1.7,0
		c-4.3,3.5-4.2,17.2-11.6,20.9c-7.4,3.6,3.6,4.9,5.8,4.1c2.2-0.9-5.6,15.7-12.1,18.9c-11.2,5.4,4.6,8.4,12.4,2.8
		c1.5-1.1-13.3,21.7-23.8,28.3c-0.8,0.5-1.6,1-2.3,1.5c-0.4-0.4-1.1-0.9-2.2-1.4c-4.6-2.2-10-13.8-8.5-13.2c1.5,0.6,9.3-0.3,4.1-2.9
		c-5.2-2.6-5.1-11.2-8.2-13.7c-0.2-0.2-1-0.2-1.2,0c-3,2.4-3,11.1-8.2,13.7c-5.2,2.6,2.5,3.5,4.1,2.9c1.5-0.6-3.9,11-8.5,13.2
		c-7.8,3.8,3.2,5.9,8.7,1.9c1-0.8-8.2,14.7-15.8,19.3C-4.8,567.1-7.8,548-4.1,551.3c4.2,3.7,32.3-2.6,14.7-11.3
		c-11.1-5.5-25.4-29.4-23.8-28.3c7.8,5.6,23.6,2.7,12.4-2.8c-6.5-3.2-14.3-19.7-12.1-18.9c2.2,0.9,13.2-0.4,5.8-4.1
		c-7.4-3.6-7.3-17.4-11.6-20.9c-0.3-0.3-1.4-0.3-1.7,0c-4.3,3.5-4.2,17.2-11.6,20.9c-7.4,3.6,3.6,4.9,5.8,4.1
		c2.2-0.8-5.6,15.7-12.1,18.9c-11.2,5.4,4.6,8.4,12.4,2.8c1.5-1.1-13.2,21.7-23.8,28.3c-22.5,14,12.3,10.7,14.7,11.3
		c5.7,1.6-14.1,20.7-31.4,26.8c-5.2-6.4-5.5-12.4-3.5-10.6c3.6,3.2,27.7-2.2,12.6-9.7c-9.5-4.7-21.8-25.2-20.4-24.3
		c6.7,4.8,20.2,2.3,10.6-2.4c-5.6-2.7-15-16.6-13.1-15.8c1.9,0.7,12.3-0.4,6-3.6c-6.4-3.1-4.5-15.2-8.2-18.2c-0.3-0.2-1.2-0.2-1.5,0
		c-3.7,3-1.9,14.7-8.2,17.9c-6.4,3.1,3.3,4.3,5.2,3.6c1.9-0.7-6.8,13.5-12.4,16.2c-9.6,4.7,4,7.2,10.6,2.4
		c1.3-1-12.2,17.3-20.4,24.3c-16.2,13.9,11.5,8.2,12.6,9.7c1,1.5-1.2,5.1-5.3,9.2c-22.1-10.3-29.5-30.3-25.6-26.8
		c4.7,4.2,36.3-2.9,16.5-12.7c-12.5-6.2-28.4-33-26.7-31.7c8.7,6.3,26.4,3,13.9-3.1c-7.3-3.6-16-22.1-13.6-21.2
		c2.5,1,14.9-0.5,6.5-4.6c-8.3-4.1-8.2-18-13.1-21.9c-0.4-0.3-1.5-0.3-1.9,0c-4.8,3.9-4.7,17.8-13.1,21.9c-8.3,4.1,4.1,5.5,6.5,4.6
		c2.5-1-6.2,17.6-13.6,21.2c-12.5,6.1,5.2,9.4,13.9,3.1c1.7-1.3-14.3,25.6-26.7,31.7c-19.8,9.8,11.8,16.9,16.5,12.7
		s-7.2,26-41.7,31.8c-12.2,2,18.4,19.3,37.8,15.1c13.5-2.9,1,9.2-20.6,21.1c-32.9-22.5-42.2-42.2-22.2-41.2
		c8.6,0.4,33.4-15.3,21-17.3c-35-5.8-40-34.8-35.3-30.6c4.8,4.2,36.7-2.9,16.7-12.8c-12.6-6.2-28.8-33.4-27.1-32.1
		c8.8,6.4,26.8,3.1,14.1-3.1c-7.4-3.6-16.2-22.4-13.7-21.4s15-0.5,6.6-4.6c-8.4-4.1-8.3-19.8-13.2-23.7c-0.4-0.3-1.6-0.3-1.9,0
		c-4.9,4-4.8,19.6-13.2,23.7c-8.4,4.1,4.1,5.6,6.6,4.6s-6.3,17.8-13.7,21.4c-12.7,6.2,5.2,9.6,14.1,3.1c1.7-1.3-15,24.7-27.1,32.1
		c-25.6,15.9,14,12.1,16.7,12.8c5,1.4-7.2,14.6-22,23.7c-9.1-6.6-12.1-15.1-10-13.2c2.9,2.6,22.7-1.8,10.3-7.9
		c-7.8-3.8-17.8-20.6-16.7-19.8c5.4,4,16.5,1.9,8.7-1.9c-4.6-2.2-10-13.8-8.5-13.2c1.5,0.6,9.3-0.3,4.1-2.9
		c-5.2-2.6-5.1-11.2-8.2-13.7c-0.2-0.2-1-0.2-1.2,0c-3,2.4-3,11.1-8.2,13.7c-5.2,2.6,2.5,3.5,4.1,2.9c1.5-0.6-3.9,11-8.5,13.2
		c-1.5,0.7-2.3,1.4-2.6,2c-10.6-6.5-23.3-27.9-21.9-26.8c7.6,5.5,23,2.6,12.1-2.7c-6.4-3.1-17.1-18.8-14.9-18c2.2,0.8,14-0.5,6.8-4
		c-7.2-3.6-5.1-17.3-9.3-20.7c-0.3-0.3-1.3-0.3-1.7,0c-4.2,3.4-2.1,16.7-9.3,20.3c-7.2,3.6,3.8,4.9,6,4c2.2-0.8-7.7,15.3-14.1,18.4
		c-10.9,5.3,4.5,8.2,12.1,2.7c1.5-1.1-13.9,19.6-23.2,27.6c-18.4,15.8,13.1,9.3,14.3,11c3,4.3-18.4,24.6-36.2,27.6
		c-10.6,1.8,5.7,17,22.6,13.4c17.3-3.7,0.9,13.7-28.9,31.5c-0.8,0.5-1.6,1-2.3,1.5c-17.7-3.8-30.3-6.7-34.4-7.2v101.4H556
		C482.5,691.4,443.1,663.5,403.8,663.5z M5.2,610.2c5.3,2.3,12.6,4.1,18.3,2.8c5.8-1.2,3.9,2-2.3,6.5c-2.9-0.6-5.7-1.2-8.5-1.7
		C9.8,615.2,7.2,612.6,5.2,610.2z M47.7,583.8c0.7,0.7,2.6,0.9,4.7,0.7c-1.3,0.9-2.6,1.7-4,2.5C46.9,584.4,46.7,582.9,47.7,583.8z
		 M109.7,583.1c-0.8-0.6-1.5-1.3-2.2-1.9c1.1,0,1.9,0.1,2.1,0.3C109.8,581.9,109.8,582.5,109.7,583.1z M55,621.4
		c-8.1-5.5-11.4-9.7-4.8-8.3c3.6,0.8,7.8,0.4,11.7-0.6C60.9,614.8,58.5,617.9,55,621.4z M117.4,547.6c0.5-0.4-1.2,2.1-3.9,5.7
		c-1.3-0.8-2.7-1.9-4.1-3.1C112,550,115.1,549.2,117.4,547.6z M100.1,565.3c0.5,0.4,1.4,0.8,2.4,0.9c-1.1,1.2-2.1,2.2-3.1,3.2
		C98.3,566.1,98.7,564.1,100.1,565.3z M41.3,556c2.1,1.6,5.1,2.2,7.5,2.1c-9.4,9.2,18.2,6.6,20.3,7.2c3,0.8-1,6.5-8,12.6
		c-0.6-0.6-1.6-1.3-3.1-2C50.2,572,40.2,555.3,41.3,556z M8.5,593.4c4.1,0.2,12.5-3.8,17.5-7.8c-2.1,4.5-10.1,15-25.3,17.8
		C-2.6,597-0.2,593,8.5,593.4z M-274.3,576.4c8.5-0.5,9.8,3,6,8.7c-8.8-4.2-16.3-9-20.3-12.4C-283,575-277.4,576.6-274.3,576.4z
		 M-314.5,544.6c-3.5-1.9-6.4-4-8.7-6.2c3.8,1.6,9.4,2,10.9,0.7C-311.1,538-311.7,540.8-314.5,544.6z M-327,567.6
		c4.1,1.1,8.5,1.5,12.3,0.7c6.8-1.5,3,3.2-5.7,8.9C-324.3,573.3-326.5,570-327,567.6z M-59.2,603.6c7,1.5,12.9-0.9,16.4-4.1
		c-1.9,3.5-6.4,8.3-12.9,13.6c-2.4,0.1-4.8,0.2-7.2,0.4C-69.7,605.8-68.7,601.6-59.2,603.6z M-109.6,614
		c-11-6.7-18.5-12.9-19.5-15.9c3.9,3.7,12.2,7.2,20.6,5.4C-99.4,601.5-101,606.4-109.6,614z M-305.9,511.3c0.5-0.4-1.6,3.4-4.7,7.8
		c1-1.6,0.4-3.5-2.8-5.7C-311,513.5-308,512.9-305.9,511.3z M-330.1,523.1c2.7,2.4,15.7,0.5,19.1-3.5c-3.3,4.6-7.7,9.7-11.6,11.6
		c-2.5,1.3-3.7,2.4-4,3.5C-332.1,527.6-332.3,521.2-330.1,523.1z"/>
	
		<linearGradient id="SVGID_00000027598607883495164810000011567641518246378146_" gradientUnits="userSpaceOnUse" x1="-386.9071" y1="853.807" x2="64.8931" y2="853.807" gradientTransform="matrix(1 0 0 -1 0 1148)">
		<stop  offset="0" style="stop-color:#DABDD7"/>
		<stop  offset="1" style="stop-color:#FBDFD5"/>
	</linearGradient>
	<path style="opacity:0.5;fill:url(#SVGID_00000027598607883495164810000011567641518246378146_);enable-background:new    ;" d="
		M-339.8,269.2l-47.1,32.8l260,17.2l191.8-25h-205.1L-339.8,269.2z"/>
	
		<linearGradient id="SVGID_00000052097005150146207380000005196005421527000975_" gradientUnits="userSpaceOnUse" x1="233.2604" y1="732.4105" x2="704.9633" y2="685.6714" gradientTransform="matrix(1 0 0 -1 0 1148)">
		<stop  offset="0" style="stop-color:#DABDD7"/>
		<stop  offset="1" style="stop-color:#FBDFD5"/>
	</linearGradient>
	<path style="opacity:0.5;fill:url(#SVGID_00000052097005150146207380000005196005421527000975_);enable-background:new    ;" d="
		M705.4,458l-474.6-17.5l116.8-17.9l-43-4.3l291.5,8.1L705.4,458z"/>
	
		<linearGradient id="SVGID_00000074432794582289583850000009589060778372176548_" gradientUnits="userSpaceOnUse" x1="306.3929" y1="509.307" x2="774.7929" y2="509.307" gradientTransform="matrix(1 0 0 -1 0 1148)">
		<stop  offset="0" style="stop-color:#DABDD7"/>
		<stop  offset="1" style="stop-color:#FBDFD5"/>
	</linearGradient>
	<path style="opacity:0.2;fill:url(#SVGID_00000074432794582289583850000009589060778372176548_);enable-background:new    ;" d="
		M432.5,645.3l-126.1-13.2l468.4,13.2H544.7H432.5z"/>
	
		<linearGradient id="SVGID_00000116950316404610826420000017726508906747103367_" gradientUnits="userSpaceOnUse" x1="222.9929" y1="591.657" x2="658.5929" y2="591.657" gradientTransform="matrix(1 0 0 -1 0 1148)">
		<stop  offset="0" style="stop-color:#DABDD7"/>
		<stop  offset="1" style="stop-color:#FBDFD5"/>
	</linearGradient>
	<path style="opacity:0.2;fill:url(#SVGID_00000116950316404610826420000017726508906747103367_);enable-background:new    ;" d="
		M658.6,572.7L223,561.4L502.9,540L658.6,572.7z"/>
	
		<linearGradient id="SVGID_00000114794003851036946840000013389765658963059353_" gradientUnits="userSpaceOnUse" x1="-317.7072" y1="739.107" x2="229.0928" y2="739.107" gradientTransform="matrix(1 0 0 -1 0 1148)">
		<stop  offset="0" style="stop-color:#DABDD7"/>
		<stop  offset="1" style="stop-color:#FBDFD5"/>
	</linearGradient>
	<path style="opacity:0.5;fill:url(#SVGID_00000114794003851036946840000013389765658963059353_);enable-background:new    ;" d="
		M-317.7,399.4l248.4,19l298.4-19H8.3H-317.7z"/>
	
		<linearGradient id="SVGID_00000105387191132675225680000009410502886970217089_" gradientUnits="userSpaceOnUse" x1="212.9929" y1="683.207" x2="668.5929" y2="683.207" gradientTransform="matrix(1 0 0 -1 0 1148)">
		<stop  offset="0" style="stop-color:#DABDD7"/>
		<stop  offset="1" style="stop-color:#FBDFD5"/>
	</linearGradient>
	<path style="opacity:0.5;fill:url(#SVGID_00000105387191132675225680000009410502886970217089_);enable-background:new    ;" d="
		M517.4,471.7H213l226.8-13.8l228.8,6.9L517.4,471.7z"/>
	
		<linearGradient id="SVGID_00000084523129232961962490000015404122159825127607_" gradientUnits="userSpaceOnUse" x1="-349.5071" y1="1133.1069" x2="271.8929" y2="1133.1069" gradientTransform="matrix(1 0 0 -1 0 1148)">
		<stop  offset="0" style="stop-color:#DABDD7"/>
		<stop  offset="1" style="stop-color:#FBDFD5"/>
	</linearGradient>
	<path style="opacity:0.3;fill:url(#SVGID_00000084523129232961962490000015404122159825127607_);enable-background:new    ;" d="
		M-349.5,47l88-72.8l533.4,81.4L-349.5,47z"/>
	
		<linearGradient id="SVGID_00000183927625612566887170000005159222882531228581_" gradientUnits="userSpaceOnUse" x1="199.5928" y1="1010.757" x2="815.8929" y2="1010.757" gradientTransform="matrix(1 0 0 -1 0 1148)">
		<stop  offset="0" style="stop-color:#DABDD7"/>
		<stop  offset="1" style="stop-color:#FBDFD5"/>
	</linearGradient>
	<path style="opacity:0.3;fill:url(#SVGID_00000183927625612566887170000005159222882531228581_);enable-background:new    ;" d="
		M815.9,193.3l-178.7-24.1l-437.6-46.6l530.9-41.4L815.9,193.3z"/>
</g>
<g id="wiese">
	<path class="st14" d="M249,690.2C-54.5,678.3,38,438-54.5,332.8C-229.2,133.9-601,380-601,380l50,709l1502-16l-5-558
		c0,0-371-101-483,58.8C439.4,607.5,421.4,697,249,690.2z"/>
</g>
<g id="bus">
	<g>
		<path class="st15" d="M236.5,693.8c4.2,0,7.7-3.5,7.7-7.6c0-4.2-3.4-7.7-7.6-7.7c-4.2,0-7.7,3.4-7.7,7.7
			C228.8,690.3,232.3,693.8,236.5,693.8z"/>
		<path class="st15" d="M236.5,691.3c2.8,0,5.2-2.2,5.2-5.2c0-2.8-2.2-5.2-5.1-5.2c-3,0-5.2,2.4-5.2,5.2
			C231.3,688.9,233.6,691.3,236.5,691.3z"/>
		<path class="st15" d="M236.5,689c1.5,0,2.9-1.2,2.9-2.9c0-1.7-1.4-2.9-2.9-2.9c-1.5,0-2.9,1.2-2.9,2.9
			C233.6,687.8,235,689,236.5,689z"/>
		<path class="st15" d="M234.2,664.7c-4.5,0-8.9,0-13.4,0c-0.1,0-0.3,0-0.4,0c-0.2,0-0.2,0-0.2,0.2c0,0.4,0,0.8,0,1.2
			c0,1.7,0,3.4,0.1,5c0.1,1.2,0.1,2.4,0.2,3.6c0.1,0.7,0.1,1.4,0.2,2.1c0.1,1.1,0.3,2.1,0.4,3.2c0.1,0.6,0.1,1.1,0.2,1.7
			c0,0.2,0,0.2,0.3,0.2c0.9,0,1.9,0,2.8,0c0.7,0,1.1,0.4,1.1,1.1c0,0.7,0,1.5,0,2.2c0,0.1,0,0.2,0,0.4c0,0.1,0.1,0.2,0.2,0.1
			c0.5,0,0.9-0.2,1.2-0.6c0.2-0.2,0.3-0.4,0.4-0.6c0.3-0.6,0.7-1.1,1-1.7c0.4-0.7,1-1.1,1.7-1.3c0.3-0.1,0.7-0.1,1-0.1
			c2.5,0,5.1,0,7.6,0c1,0,2,0,3,0c0.6,0,1.2,0.2,1.7,0.5c0.3,0.2,0.6,0.5,0.8,0.8c0.5,0.7,1.1,1.4,1.6,2.1c0.4,0.6,1,0.9,1.7,0.9
			c0.1,0,0.2,0,0.3,0c9.8,0,19.5,0,29.3,0c0.1,0,0.3,0,0.4,0c0.7,0,1.2-0.4,1.4-1.1c0-0.1,0-0.2,0.1-0.3c0.4-1.6,1-3.1,1.9-4.4
			c1.3-1.8,2.9-2.9,5-3.5c1.9-0.5,3.8-0.5,5.7,0c2,0.5,3.6,1.6,4.8,3.3c0.7,1,1.2,2.2,1.6,3.4c0.1,0.5,0.2,1,0.3,1.5
			c0.1,0.7,0.6,1.1,1.2,1.2c0.1,0,0.3,0,0.4,0c1.5,0,3.1,0,4.6,0c0.1,0,0.2,0,0.3,0c0.2,0,0.2,0,0.2-0.2c0-0.5,0-0.9,0-1.4
			c0-0.5,0-0.5-0.5-0.5c-1.4,0-2.9,0-4.3,0c-0.4,0-0.4,0-0.5-0.4c-0.4-1.9-1.2-3.7-2.3-5.3c-1.8-2.4-4.2-3.8-7.2-4.2
			c-0.7-0.1-1.4-0.1-2.1-0.1c-2.3,0-4.5,0-6.8,0c-0.2,0-0.3,0-0.5,0c-0.9-0.1-1.5-0.8-1.6-1.6c0-0.2,0-0.4,0-0.5c0-2.1,0-4.2,0-6.3
			c0-0.1,0-0.3,0-0.4c0-0.1-0.1-0.1-0.1-0.1c-0.4,0-0.8,0-1.2,0c-0.1,0-0.2,0.1-0.2,0.2c0,0.2,0,0.3,0,0.5c0,5.9,0,11.7,0,17.6
			c0,0.2,0,0.3,0,0.5c-0.1,0.4-0.3,0.7-0.7,0.7c-0.1,0-0.2,0-0.4,0c-9.1,0-18.2,0-27.3,0c-0.1,0-0.2,0-0.3,0c-0.5,0-0.8-0.3-0.8-0.8
			c0-0.1,0-0.3,0-0.4c0-5.8,1.5-11.8,0-17.5c2.3-1.3,0.1-0.7-0.7-0.7C243.1,664.7,238.7,664.7,234.2,664.7z"/>
		<path class="st15" d="M263.9,665.6c-4.7,0-9.3-2.2-13.9-2.2c-0.5,0-2.3,1.7-2.3,2.2c0,5.9-0.3,12.6-0.3,18.5
			c0,0.1,1.6,0.7,1.6,0.8c0,0.3,0.7-0.3,1-0.3c0.1,0,0.2,0,0.3,0c9.1,0,18.2,0,27.3,0c0.1,0,0.1,0,0.2,0c0.4,0,0.5-0.2,0.5-0.5
			c0-0.1,0-0.2,0-0.4c0-5.9,0-11.7,0-17.6c4.1-2.2,0-0.6-0.6-0.6C273.1,665.6,268.5,665.6,263.9,665.6z"/>
		<path class="st15" d="M234.5,665.3c4.5,0,8.8,0.6,13.3,0.6c0.6,0,3.7-2.3,3.7-3c0-4.8-3.1-8.6-3.1-13.3c0-0.1,0-0.3,0-0.4
			c0-0.1-0.1-0.2-0.2-0.2c-0.2,0-0.3,0-0.5,0c-8.4,0-16.7,0-25.1,0c-0.9,0-0.7-0.1-0.8,0.7c-0.2,0.9-0.3,1.9-0.4,2.8
			c-0.2,1.1-0.3,2.2-0.5,3.3c-0.2,1.3-0.3,2.5-0.4,3.8c-0.1,1.4-0.2,2.8-0.2,4.2c0,0.6-0.1,1.6,0.5,1.6
			C225.2,665.4,230,665.3,234.5,665.3z"/>
		<path class="st15" d="M263.2,649.5c13.5,0,26.6-0.4,40.1-0.4c0.2,0,0.6-0.5,0.8-0.5c0.7,0,1.1-0.4,1.2-1.1c0-0.3,0.1-0.7,0.1-1
			c0-0.2,0-0.4,0-0.7c0-0.4-0.1-0.4-0.5-0.5c-1.2-0.2-2.4-0.4-3.6-0.5c-1.7-0.2-3.4-0.4-5.1-0.5c-1.6-0.1-3.3-0.3-4.9-0.4
			c-1.9-0.1-3.7-0.2-5.6-0.3c-2-0.1-4.1-0.1-6.1-0.2c-3,0-6.1-0.1-9.1,0c-2.5,0-5.1,0-7.6,0.1c-2.5,0.1-5.1,0.1-7.6,0.2
			c-2.6,0.1-5.3,0.2-7.9,0.3c-2,0.1-4.1,0.2-6.1,0.3c-1.8,0.1-3.5,0.2-5.3,0.3c-1.8,0.1-3.7,0.2-5.5,0.3c-0.5,0-1.1,0.1-1.6,0.1
			c-1.2,0.1-2.4,0.2-3.6,0.2c-1.7,0.1-3,1.3-3.4,2.9c0,0.1,0,0.3,0,0.4c0,0.1-0.1,0.6,0,0.6c0.2,0,0.5,0.4,0.6,0.4
			C236.1,649.5,249.7,649.5,263.2,649.5z"/>
		<path class="st15" d="M290.5,664.8c-3,0-6,0-9.1,0c-0.8,0-1.7,0-2.5,0c-0.3,0-0.3,0-0.3,0.3c0,0.1,0,0.1,0,0.2
			c-1.2,2.1,0,4.3,0,6.5c0,0.1,0,0.3,0,0.4c0.1,0.7,0.6,1.2,1.3,1.3c0.2,0-0.1,1.4,0.1,1.4c2.3,0,4.7,0,7,0c0.9,0,1.7,0.2,2.6,0.3
			c2.8,0.5,5.2,0.4,7,2.6c0.9,1.2,1.6,2.5,2.1,3.9c0.2,0.5,0.3,1.1,0.4,1.6c0,0.1,0.1,0.2,0.2,0.2c0.1,0,0.2,0.8,0.3,0.8
			c1.4,0,2.8-0.1,4.2-0.1c0.1,0,0.3,0.5,0.4,0.4c0.1,0-0.1,0.6-0.1,0.4c0-0.1,0.4,1,0.4,0.8h1.9c0.2,0-0.2-2.4,0-2.4
			c0.7,0,6.2,0.1,6.2-0.6c-0.1-5.5-0.2-11-0.2-16c0-0.1-6-1.7-6-1.8c0-0.2-0.4,0.7-0.6,0.6c-0.1,0-0.2-0.1-0.2-0.1
			c-1.3-0.6-2.7-0.9-4.2-0.9C297.8,664.8,294.1,664.8,290.5,664.8z"/>
		<path class="st15" d="M262.3,665.6c4.7,0,9.3,1.7,14,1.7c0.5,0,5-0.9,5-1.5c3.8,0,2.4-17-1.3-17c0-0.1-3.1,0.4-3.1,0.3
			c0-0.1-0.1-0.2-0.2-0.2c-0.1,0-0.3,0-0.4,0c-3.9,0-7.8,0-11.6,0c-5.4,0-10.7,0-16.1,0c-0.1,0-0.3,0-0.4,0c-0.1,0-0.1,0.1-0.1,0.1
			c0,0.1,0,0.2,0,0.3c0,4.8,0,9.7,0,14.5c0,0.1,0,0.2,0,0.3c0,0.1,0,0.1,0.1,0.1c0.1,0,0.3,0,0.4,0
			C253.2,664.4,257.7,665.6,262.3,665.6z"/>
		<path class="st15" d="M288.8,693.8c4.2,0,7.7-3.5,7.7-7.6c0-4.2-3.4-7.7-7.6-7.7c-4.2,0-7.7,3.4-7.7,7.7
			C281.1,690.3,284.6,693.8,288.8,693.8z"/>
		<path class="st15" d="M293.6,665.1c0,0,0.4,0.1,0.4,0.1c4.7,1.1,8.6,1,13,1c0.1,0,2.3-1.7,2.4-1.7c0.1,0,0.2-1.1,0.1-1.2
			c-0.1-0.1-1.5-0.3-1.6-0.4c-2.4-4.8-4.5-9.8-6.9-14.6c-0.2-0.4-1.6,0.7-2.1,0.7c-6.2,0-12.5,0-18.7,0c-0.1,0-0.2,0-0.3,0
			c-0.2,0-0.2,0-0.2,0.2c0,0.1,0,0.2,0,0.4c0,0.9,0,1.8,0,2.6c0,3.9,0,7.8,0,11.6c0,0.1,0,0.3,0,0.4c0,0.1,0,0.1,0.1,0.1
			c0.1,0,0.3,0,0.4,0C284.4,665.5,289.2,665.1,293.6,665.1z"/>
		<path class="st15" d="M307.6,674.1c0,2.5,0,5.1,0,7.6c0,0.4,0,0.4,0.4,0.4c1.3,0,2.7,0,4,0c0.5,0,0.5,0,0.5-0.5c0-2.3,0-4.5,0-6.8
			c0-0.6,0-1.2-0.2-1.8c-0.5-2.8-2-5-4.4-6.6c-0.1,0-0.1-0.1-0.2-0.1c-0.1,0-0.1,0-0.1,0.1c0,0.1,0,0.3,0,0.4
			C307.6,669.1,307.6,671.6,307.6,674.1z"/>
		<path class="st15" d="M309.4,663.7c0,0,0.7,0.1,0.7,0.1c0.5,0,1.2,0.1,1.7,0c0.1,0,0.2-0.1,0.1-0.2c0-0.1,0-0.2-0.1-0.3
			c-1.1-4.7-4.1-10-7.4-13.5c-0.1-0.1-0.1-0.1-0.2-0.2c-0.1-0.1-0.2-0.1-0.3-0.1c-0.5,0-1.2-0.5-1.7-0.5c-0.6,0-1.2,1.7-1,2.2
			c0.1,0.1,0.5,0.4,0.6,0.6c1.1,2.2,2.5,5.1,3.7,7.4c0.7,1.4,1.3,2.7,2,4c0.2,0.4,0.2,0.6,0.6,0.6C308.7,664,309,663.7,309.4,663.7z
			"/>
		<path class="st15" d="M291.9,675.4c-0.8,0-3.6-1.2-4.4-1c-1.6,0.4-3.6,1.2-4.8,2.4c-0.3,0.3-1.7,1.3-1.9,1.7c-1,1.4-2.4,4.4-2.7,6
			c0,0.1,1.2,0.4,1.4,0.4c0.4,0,0.8,0,1.2,0c0.1,0,0.2-0.1,0.2-0.2c0-0.2,0.1-0.4,0.1-0.6c0.9-3.9,4.8-6.9,9.3-6
			c3.2,0.6,5.7,3,6.3,6.2c0,0.1,0.1,0.3,0.1,0.4c0,0.1,0.1,0.2,0.2,0.2c0.4,0,0.8,0,1.1,0c0.1,0,1.2-0.2,1.2-0.2
			c0-0.2,0-0.5-0.1-0.7c-0.3-1.4,0.1-2.9-0.7-4.1c-1.1-1.7-2.1-3.4-4.1-3.9C293.4,675.7,292.8,675.4,291.9,675.4z"/>
		<path class="st15" d="M309.3,686.8c0.9,0,1.9,0,2.8,0c0.1,0,0.3,0,0.4,0c0.8,0,1.4-0.6,1.5-1.4c0-0.5,0-1.1,0-1.6
			c0-0.8-0.6-1.3-1.4-1.4c-0.1,0-0.2,0-0.3,0c-2,0-4,0-6,0c-0.6,0-0.7,0.2-0.7,0.8c0,1,0,1.9,0,2.9c0,0.1,0,0.2,0,0.3
			c0,0.3,0.2,0.4,0.5,0.5c0.1,0,0.2,0,0.4,0C307.3,686.8,308.3,686.8,309.3,686.8z"/>
		<path class="st15" d="M309.5,665.3c0.6,0,1.6-0.1,2.2-0.1c0.7,0,0.3-0.7,0.2-1.4c0,0,0,0,0,0c0-0.2-0.1-0.2-0.3-0.2
			c-0.7,0-1.3,0-2,0c-0.3,0-0.5,0-0.8,0c-0.4,0-0.7-0.2-0.9-0.6c-0.1-0.1-0.1-0.2-0.2-0.3c-1.7-3.4-3.5-6.9-5.2-10.3
			c-0.2-0.3-0.3-0.6-0.5-0.9c-0.3-0.8,0.2-1.5,1-1.6c0.1,0,0.3,0,0.4,0c0.2,0,0.5,0,0.7,0c-0.1-0.3-0.3-0.4-0.5-0.6
			c-0.1-0.2-0.3-0.2-0.5-0.2c-1,0-2.1,0-3.1,0c-0.1,0-0.1,0-0.2,0c-0.1,0-0.1,0.1-0.1,0.1c0,0.1,0.1,0.2,0.1,0.3c0.5,1,1,2,1.5,3.1
			c1.6,3.1,3.1,6.2,4.7,9.3c0.4,0.8,0.8,1.5,1.1,2.3c0.2,0.3,0.2,0.3,0.5,0.3C308.5,664.4,308.9,665.3,309.5,665.3z"/>
		<path class="st15" d="M225.6,684.6c0-0.5,0-0.9,0-1.4c0-0.1,0-0.2,0-0.3c0-0.3,0.4-1.2,0.1-1.2c0,0-1-0.1-1.1-0.1
			c-0.9,0-1.8,0-2.8,0c-0.9,0-1.7,1.4-1.7,2.3c0,0.4,0,0.8,0,1.3c0,1,0.7,1.6,1.6,1.6c0,0,0.1,0,0.1,0c0.9,0,1.7,0,2.6,0
			c0.1,0,0.2,0,0.3,0c0.5,0,0.9-0.2,0.9-0.5c0-0.1,0-0.2,0-0.3C225.6,685.5,225.6,685.1,225.6,684.6z"/>
		<path class="st15" d="M312.5,669.1c0-1.1-0.1-2.2-0.2-3.2c0-0.3-0.1-0.6-0.1-1c0-0.2-0.1-0.2-0.3-0.2c-0.1,0-0.1,0-0.2,0
			c-1.2,0-2.5,0-3.7,0c-0.1,0-0.2,0-0.3,0c-0.1,0-0.2,0.1-0.2,0.2c0,0.2,0,0.4,0,0.6c0,0.1,0.1,0.2,0.2,0.3c0.1,0,0.1,0.1,0.1,0.1
			c2.1,1.3,3.5,3.1,4.4,5.4c0,0.1,0.1,0.2,0.1,0.2c0,0,0,0,0.1,0c0,0,0,0,0,0c0-0.1,0-0.1,0-0.2
			C312.5,670.6,312.5,669.9,312.5,669.1z"/>
		<path class="st15" d="M306.4,664.7c-0.2,0-0.4,0-0.6,0c0,0,0,0-0.1,0c0,0,0,0.1,0,0.1c0.5,0.2,0.9,0.4,1.4,0.6
			c0.1,0,0.1,0,0.1-0.1c0-0.1,0-0.2,0-0.3c0-0.1-0.1-0.2-0.2-0.2C306.8,664.7,306.6,664.7,306.4,664.7z"/>
		<path class="st15" d="M283.3,667.4c-0.5,0-1,0-1.5,0c-0.1,0-0.2,0-0.3,0c-0.3,0-0.6-0.3-0.6-0.7c0-0.3,0.2-0.6,0.6-0.6
			c0.1,0,0.2,0,0.3,0c1.1,0,2.1,0,3.2,0c0.1,0,0.1,0,0.2,0c0.4,0,0.6,0.3,0.6,0.7c0,0.3-0.2,0.6-0.6,0.6c-0.1,0-0.2,0-0.3,0
			C284.3,667.4,283.8,667.4,283.3,667.4z"/>
		<path class="st15" d="M283.3,666.4c-0.5,0-1,0-1.5,0c-0.1,0-0.2,0-0.3,0c-0.1,0-0.2,0.2-0.2,0.3c0,0.1,0.1,0.3,0.2,0.3
			c0.1,0,0.1,0,0.2,0c1.1,0,2.2,0,3.3,0c0.1,0,0.1,0,0.2,0c0.1,0,0.2-0.2,0.2-0.3c0-0.1-0.1-0.2-0.2-0.3c-0.1,0-0.2,0-0.3,0
			C284.3,666.4,283.8,666.4,283.3,666.4z"/>
		<path class="st15" d="M288.7,691.3c2.8,0,5.2-2.2,5.2-5.2c0-2.8-2.2-5.2-5.1-5.2c-3,0-5.2,2.4-5.2,5.2
			C283.6,688.9,285.9,691.3,288.7,691.3z"/>
		<path class="st15" d="M288.9,649.8c2.3,0,4.5,0,6.8,0c1.2,0,2.3,0.5,3.1,1.5c0.2,0.2,0.3,0.5,0.4,0.7c1.2,2.3,2.3,4.6,3.5,6.9
			c0.1,0.2,0.2,0.4,0.3,0.5c0.1,0.2,0.1,0.2,0.2,0.1c0,0,0.1-0.1,0.1-0.1c0.3-0.2,0.6,0,0.7,0.3c0,0.1,0,0.2,0,0.3
			c0,0.2,0,0.4,0,0.6c0,0.1,0,0.2,0.2,0.2c0.4,0.1,0.5,0.2,0.5,0.7c0,0.6,0,1.1,0,1.7c0,0.2,0,0.3-0.2,0.5c-0.1,0.2-0.4,0.1-0.6,0.2
			c-0.2,0.1-0.2,0.3-0.4,0.3c-0.3,0-0.5-0.1-0.6-0.4c0-0.1,0-0.1,0-0.2c0-0.1-0.1-0.1-0.2-0.1c-0.1,0-0.3,0-0.4,0
			c-6.7,0-13.4,0-20.2,0c-0.2,0-0.3,0-0.5,0c-0.5,0-0.8-0.3-0.9-0.8c0-0.1,0-0.2,0-0.4c0-3.8,0-7.6,0-11.3c0-0.1,0-0.2,0-0.3
			c0-0.5,0.4-0.8,0.9-0.9c0.1,0,0.2,0,0.4,0C284.4,649.8,286.6,649.8,288.9,649.8z"/>
		<path class="st15" d="M292.3,663.1c3.4,0,6.7,0,10.1,0c0.1,0,0.3,0,0.4,0c0.1,0,0.1-0.1,0.1-0.1c0-0.1,0-0.2,0-0.3
			c0-0.6,0-1.3,0-1.9c0-0.3-0.1-0.5-0.2-0.7c-0.5-1.1-1.1-2.1-1.6-3.2c-0.8-1.6-1.6-3.1-2.4-4.7c-0.7-1.3-1.8-2-3.3-2
			c-4.5,0-9,0-13.5,0c-0.1,0-0.2,0-0.3,0c-0.3,0-0.5,0.2-0.5,0.5c0,0.1,0,0.2,0,0.3c0,0.4,0,0.8,0,1.2c0,3.3,0,6.6,0,10
			c0,0.2,0,0.3,0,0.5c0,0.3,0.2,0.4,0.5,0.5c0.1,0,0.3,0,0.4,0C285.6,663.1,289,663.1,292.3,663.1z"/>
		<path class="st15" d="M303.8,661.7L303.8,661.7c0-0.2,0-0.4,0-0.5c0-0.4,0-0.8,0-1.2c0-0.1,0-0.2-0.1-0.3c-0.1-0.1-0.2-0.1-0.3,0
			c-0.1,0.1,0,0.2-0.1,0.3c0,1.2,0,2.3,0,3.5c0,0.1,0,0.1,0,0.2c0,0.1,0.1,0.2,0.2,0.2c0.1,0,0.2-0.1,0.2-0.2c0-0.1,0-0.1,0-0.2
			C303.8,662.9,303.8,662.3,303.8,661.7z"/>
		<path class="st15" d="M304.5,662.3c0-0.3,0-0.6,0-0.8c0-0.1,0-0.2-0.1-0.3c-0.1-0.1-0.2-0.1-0.2,0c-0.1,0.1-0.1,0.2-0.1,0.3
			c0,0.5,0,1.1,0,1.6c0,0.1,0,0.2,0,0.3c0,0.1,0.1,0.1,0.1,0.1c0.1,0,0.1,0,0.1-0.1c0.1-0.1,0.1-0.2,0.1-0.2
			C304.5,662.9,304.5,662.6,304.5,662.3z"/>
		<path class="st15" d="M309.3,674.3c0-0.6,0.1-1.1,0.2-1.6c0.1-0.2,0.1-0.4,0.3-0.6c0.1-0.1,0.2-0.2,0.3-0.3c0.3-0.2,0.5-0.2,0.8,0
			c0.1,0.1,0.2,0.2,0.3,0.4c0.2,0.3,0.2,0.6,0.3,0.9c0.2,0.9,0.2,1.7-0.1,2.6c-0.1,0.2-0.1,0.4-0.2,0.6c-0.1,0.1-0.2,0.3-0.3,0.4
			c-0.3,0.3-0.7,0.3-1,0c-0.1-0.1-0.3-0.3-0.3-0.5c-0.1-0.3-0.2-0.6-0.3-0.9c0-0.1,0-0.3,0-0.4C309.3,674.6,309.3,674.4,309.3,674.3
			z"/>
		<path class="st15" d="M309.6,674.3c0,0.1,0,0.3,0,0.5c0,0.4,0.1,0.8,0.2,1.1c0.1,0.2,0.1,0.3,0.3,0.5c0.2,0.2,0.4,0.2,0.6,0
			c0.1-0.1,0.2-0.3,0.3-0.5c0.1-0.3,0.2-0.7,0.2-1c0.1-0.7,0-1.4-0.2-2c-0.1-0.2-0.1-0.4-0.2-0.5c-0.2-0.3-0.4-0.3-0.7,0
			c-0.1,0.2-0.2,0.4-0.3,0.5C309.7,673.3,309.7,673.8,309.6,674.3z"/>
		<path class="st15" d="M275.5,651.1c0-0.1,0-0.2,0-0.3c0-0.4-0.2-0.6-0.6-0.6c-0.1,0-0.3,0-0.4,0c-7.7,0-15.3,0-23,0
			c-0.1,0-0.1,0-0.2,0c-0.7,0-0.8,0.3-0.8,0.8c0,3.8,0,7.6,0,11.3c0,0.1,0,0.2,0,0.3c0.1,0.3,0.3,0.5,0.5,0.5c0.1,0,0.3,0,0.4,0
			c3.9,0,7.7,0,11.6,0c3.9,0,7.7,0,11.6,0c0.1,0,0.3,0,0.4,0c0.4,0,0.6-0.2,0.6-0.6c0-0.1,0-0.2,0-0.4
			C275.5,658.5,275.5,654.8,275.5,651.1z M274.9,661.7c0,0.4-0.3,0.8-0.8,0.8c-0.1,0-0.3,0-0.4,0c-3.6,0-7.2,0-10.8,0
			c-3.6,0-7.1,0-10.7,0c-0.1,0-0.3,0-0.4,0c-0.4,0-0.7-0.3-0.7-0.7c0-0.1,0-0.2,0-0.3c0-3.2,0-6.4,0-9.6c0-0.1,0-0.1,0-0.2
			c0-0.5,0.3-0.8,0.7-0.8c0.2,0,0.3,0,0.5,0c4.5,0,9,0,13.5,0c2.6,0,5.3,0,7.9,0c0.1,0,0.3,0,0.4,0c0.5,0.1,0.8,0.4,0.8,0.9
			c0,0.1,0,0.2,0,0.3c0,3.1,0,6.3,0,9.4C274.9,661.5,274.9,661.6,274.9,661.7z"/>
		<path class="st15" d="M262.9,662.2c3.6,0,7.1,0,10.7,0c0.1,0,0.3,0,0.4,0c0.3,0,0.5-0.2,0.5-0.5c0-0.1,0-0.2,0-0.3
			c0-3.1,0-6.3,0-9.4c0-0.1,0-0.2,0-0.3c0-0.3-0.2-0.5-0.5-0.5c-0.2,0-0.3,0-0.5,0c-6,0-12,0-18,0c-1.2,0-2.3,0-3.5,0
			c-0.1,0-0.3,0-0.4,0c-0.3,0.1-0.4,0.2-0.4,0.5c0,0.1,0,0.2,0,0.3c0,3.1,0,6.3,0,9.4c0,0.1,0,0.1,0,0.2c0,0.4,0.2,0.7,0.6,0.6
			c0.1,0,0.2,0,0.4,0C255.9,662.2,259.4,662.2,262.9,662.2z"/>
		<path class="st15" d="M288.8,689c1.5,0,2.9-1.2,2.9-2.9c0-1.7-1.4-2.9-2.9-2.9c-1.5,0-2.9,1.2-2.9,2.9
			C285.9,687.8,287.3,689,288.8,689z"/>
		<polyline class="st15" points="220.2,669.2 248.3,669.2 248.3,672 220.3,672 		"/>
		<rect x="248.6" y="669.2" class="st15" width="28.8" height="2.9"/>
		<polyline class="st15" points="220.4,673.2 248.3,673.2 248.3,676.1 220.6,676.1 		"/>
		<rect x="248.6" y="673.2" class="st15" width="28.8" height="2.9"/>
	</g>
	<g>
		<path class="st16" d="M236.5,693.8c4.2,0,7.7-3.5,7.7-7.6c0-4.2-3.4-7.7-7.6-7.7c-4.2,0-7.7,3.4-7.7,7.7
			C228.8,690.3,232.3,693.8,236.5,693.8z"/>
		<path class="st17" d="M236.5,691.3c2.8,0,5.2-2.2,5.2-5.2c0-2.8-2.2-5.2-5.1-5.2c-3,0-5.2,2.4-5.2,5.2
			C231.3,688.9,233.6,691.3,236.5,691.3z"/>
		<path class="st16" d="M236.5,689c1.5,0,2.9-1.2,2.9-2.9c0-1.7-1.4-2.9-2.9-2.9c-1.5,0-2.9,1.2-2.9,2.9
			C233.6,687.8,235,689,236.5,689z"/>
		<path class="st18" d="M234.2,664.7c-4.5,0-8.9,0-13.4,0c-0.1,0-0.3,0-0.4,0c-0.2,0-0.2,0-0.2,0.2c0,0.4,0,0.8,0,1.2
			c0,1.7,0,3.4,0.1,5c0.1,1.2,0.1,2.4,0.2,3.6c0.1,0.7,0.1,1.4,0.2,2.1c0.1,1.1,0.3,2.1,0.4,3.2c0.1,0.6,0.1,1.1,0.2,1.7
			c0,0.2,0,0.2,0.3,0.2c0.9,0,1.9,0,2.8,0c0.7,0,1.1,0.4,1.1,1.1c0,0.7,0,1.5,0,2.2c0,0.1,0,0.2,0,0.4c0,0.1,0.1,0.2,0.2,0.1
			c0.5,0,0.9-0.2,1.2-0.6c0.2-0.2,0.3-0.4,0.4-0.6c0.3-0.6,0.7-1.1,1-1.7c0.4-0.7,1-1.1,1.7-1.3c0.3-0.1,0.7-0.1,1-0.1
			c2.5,0,5.1,0,7.6,0c1,0,2,0,3,0c0.6,0,1.2,0.2,1.7,0.5c0.3,0.2,0.6,0.5,0.8,0.8c0.5,0.7,1.1,1.4,1.6,2.1c0.4,0.6,1,0.9,1.7,0.9
			c0.1,0,0.2,0,0.3,0c9.8,0,19.5,0,29.3,0c0.1,0,0.3,0,0.4,0c0.7,0,1.2-0.4,1.4-1.1c0-0.1,0-0.2,0.1-0.3c0.4-1.6,1-3.1,1.9-4.4
			c1.3-1.8,2.9-2.9,5-3.5c1.9-0.5,3.8-0.5,5.7,0c2,0.5,3.6,1.6,4.8,3.3c0.7,1,1.2,2.2,1.6,3.4c0.1,0.5,0.2,1,0.3,1.5
			c0.1,0.7,0.6,1.1,1.2,1.2c0.1,0,0.3,0,0.4,0c1.5,0,3.1,0,4.6,0c0.1,0,0.2,0,0.3,0c0.2,0,0.2,0,0.2-0.2c0-0.5,0-0.9,0-1.4
			c0-0.5,0-0.5-0.5-0.5c-1.4,0-2.9,0-4.3,0c-0.4,0-0.4,0-0.5-0.4c-0.4-1.9-1.2-3.7-2.3-5.3c-1.8-2.4-4.2-3.8-7.2-4.2
			c-0.7-0.1-1.4-0.1-2.1-0.1c-2.3,0-4.5,0-6.8,0c-0.2,0-0.3,0-0.5,0c-0.9-0.1-1.5-0.8-1.6-1.6c0-0.2,0-0.4,0-0.5c0-2.1,0-4.2,0-6.3
			c0-0.1,0-0.3,0-0.4c0-0.1-0.1-0.1-0.1-0.1c-0.4,0-0.8,0-1.2,0c-0.1,0-0.2,0.1-0.2,0.2c0,0.2,0,0.3,0,0.5c0,5.9,0,11.7,0,17.6
			c0,0.2,0,0.3,0,0.5c-0.1,0.4-0.3,0.7-0.7,0.7c-0.1,0-0.2,0-0.4,0c-9.1,0-18.2,0-27.3,0c-0.1,0-0.2,0-0.3,0c-0.5,0-0.8-0.3-0.8-0.8
			c0-0.1,0-0.3,0-0.4c0-5.8,0-11.7,0-17.5c0-0.8,0.1-0.7-0.7-0.7C243.2,664.7,238.7,664.7,234.2,664.7z"/>
		<path class="st18" d="M263.1,664.7c-4.7,0-9.3,0-14,0c-0.5,0-0.5,0-0.5,0.5c0,5.9,0,11.9,0,17.8c0,0.1,0,0.2,0,0.3
			c0,0.3,0.2,0.5,0.5,0.5c0.1,0,0.2,0,0.3,0c9.1,0,18.2,0,27.3,0c0.1,0,0.1,0,0.2,0c0.4,0,0.5-0.2,0.5-0.5c0-0.1,0-0.2,0-0.4
			c0-5.9,0-11.7,0-17.6c0-0.7,0-0.6-0.6-0.6C272.3,664.7,267.7,664.7,263.1,664.7z"/>
		<path class="st17" d="M234.2,664.4c4.5,0,9,0,13.5,0c0.6,0,0.5,0.1,0.5-0.5c0-4.8,0-9.5,0-14.3c0-0.1,0-0.3,0-0.4
			c0-0.1-0.1-0.2-0.2-0.2c-0.2,0-0.3,0-0.5,0c-8.4,0-16.7,0-25.1,0c-0.9,0-0.7-0.1-0.8,0.7c-0.2,0.9-0.3,1.9-0.4,2.8
			c-0.2,1.1-0.3,2.2-0.5,3.3c-0.2,1.3-0.3,2.5-0.4,3.8c-0.1,1.4-0.2,2.8-0.2,4.2c0,0.6-0.1,0.6,0.6,0.6
			C225.3,664.4,229.7,664.4,234.2,664.4z"/>
		<path class="st17" d="M263.2,648.6c13.5,0,27,0,40.5,0c0.2,0,0.3,0,0.5,0c0.7,0,1.1-0.4,1.2-1.1c0-0.3,0.1-0.7,0.1-1
			c0-0.2,0-0.4,0-0.7c0-0.4-0.1-0.4-0.5-0.5c-1.2-0.2-2.4-0.4-3.6-0.5c-1.7-0.2-3.4-0.4-5.1-0.5c-1.6-0.1-3.3-0.3-4.9-0.4
			c-1.9-0.1-3.7-0.2-5.6-0.3c-2-0.1-4.1-0.1-6.1-0.2c-3,0-6.1-0.1-9.1,0c-2.5,0-5.1,0-7.6,0.1c-2.5,0.1-5.1,0.1-7.6,0.2
			c-2.6,0.1-5.3,0.2-7.9,0.3c-2,0.1-4.1,0.2-6.1,0.3c-1.8,0.1-3.5,0.2-5.3,0.3c-1.8,0.1-3.7,0.2-5.5,0.3c-0.5,0-1.1,0.1-1.6,0.1
			c-1.2,0.1-2.4,0.2-3.6,0.2c-1.7,0.1-3,1.3-3.4,2.9c0,0.1,0,0.3,0,0.4c0,0.1,0,0.1,0.1,0.1c0.2,0,0.4,0,0.5,0
			C236.1,648.6,249.6,648.6,263.2,648.6z"/>
		<path class="st18" d="M291.6,664.7c-3,0-6,0-9.1,0c-0.8,0-1.7,0-2.5,0c-0.3,0-0.3,0-0.3,0.3c0,0.1,0,0.1,0,0.2c0,2.2,0,4.3,0,6.5
			c0,0.1,0,0.3,0,0.4c0.1,0.7,0.6,1.2,1.3,1.3c0.2,0,0.3,0,0.5,0c2.3,0,4.5,0,6.8,0c0.9,0,1.8,0.1,2.7,0.2c2.8,0.5,5,1.8,6.7,4.1
			c0.9,1.2,1.6,2.5,2.1,3.9c0.2,0.5,0.3,1.1,0.4,1.6c0,0.1,0.1,0.2,0.2,0.2c0.1,0,0.2,0,0.3,0c1.4,0,2.8,0,4.1,0c0.1,0,0.2,0,0.3,0
			c0.1,0,0.2,0,0.2-0.2c0-0.1,0-0.2,0-0.4c0-0.6,0.4-0.9,0.9-0.9c0.2,0,0.3,0,0.5,0c0.7,0,0.6,0.1,0.6-0.6c0-5,0-10,0-15
			c0-0.1,0-0.2,0-0.3c0-0.2-0.1-0.4-0.3-0.4c-0.1,0-0.2-0.1-0.2-0.1c-1.3-0.6-2.7-0.9-4.2-0.9C298.9,664.7,295.3,664.7,291.6,664.7z
			"/>
		<path class="st17" d="M263,664.4c4.7,0,9.3,0,14,0c0.5,0,0.5,0.1,0.5-0.5c0-4.8,0-9.6,0-14.4c0-0.1,0-0.2,0-0.4
			c0-0.1-0.1-0.2-0.2-0.2c-0.1,0-0.3,0-0.4,0c-3.9,0-7.8,0-11.6,0c-5.4,0-10.7,0-16.1,0c-0.1,0-0.3,0-0.4,0c-0.1,0-0.1,0.1-0.1,0.1
			c0,0.1,0,0.2,0,0.3c0,4.8,0,9.7,0,14.5c0,0.1,0,0.2,0,0.3c0,0.1,0,0.1,0.1,0.1c0.1,0,0.3,0,0.4,0
			C253.8,664.4,258.4,664.4,263,664.4z"/>
		<path class="st16" d="M288.8,693.8c4.2,0,7.7-3.5,7.7-7.6c0-4.2-3.4-7.7-7.6-7.7c-4.2,0-7.7,3.4-7.7,7.7
			C281.1,690.3,284.6,693.8,288.8,693.8z"/>
		<path class="st17" d="M293.4,664.4C293.4,664.4,293.4,664.4,293.4,664.4c4.4,0,8.8,0,13.1,0c0.1,0,0.3,0,0.4,0
			c0.1,0,0.1-0.1,0.1-0.1c-0.1-0.1-0.1-0.3-0.2-0.4c-2.4-4.8-4.9-9.6-7.3-14.5c-0.2-0.4-0.2-0.4-0.6-0.4c-6.2,0-12.5,0-18.7,0
			c-0.1,0-0.2,0-0.3,0c-0.2,0-0.2,0-0.2,0.2c0,0.1,0,0.2,0,0.4c0,0.9,0,1.8,0,2.6c0,3.9,0,7.8,0,11.6c0,0.1,0,0.3,0,0.4
			c0,0.1,0,0.1,0.1,0.1c0.1,0,0.3,0,0.4,0C284.6,664.4,289,664.4,293.4,664.4z"/>
		<path class="st18" d="M307.6,674.1c0,2.5,0,5.1,0,7.6c0,0.4,0,0.4,0.4,0.4c1.3,0,2.7,0,4,0c0.5,0,0.5,0,0.5-0.5c0-2.3,0-4.5,0-6.8
			c0-0.6,0-1.2-0.2-1.8c-0.5-2.8-2-5-4.4-6.6c-0.1,0-0.1-0.1-0.2-0.1c-0.1,0-0.1,0-0.1,0.1c0,0.1,0,0.3,0,0.4
			C307.6,669.1,307.6,671.6,307.6,674.1z"/>
		<path class="st19" d="M310.3,663.2C310.3,663.2,310.3,663.2,310.3,663.2c0.5,0,0.9,0,1.4,0c0.1,0,0.2-0.1,0.1-0.2
			c0-0.1,0-0.2-0.1-0.3c-1.1-4.7-3.4-8.8-6.7-12.3c-0.1-0.1-0.1-0.1-0.2-0.2c-0.1-0.1-0.2-0.1-0.3-0.1c-0.5,0-1,0-1.4,0
			c-0.6,0-1,0.6-0.7,1.2c0.1,0.1,0.1,0.3,0.2,0.4c1.1,2.2,2.3,4.5,3.4,6.7c0.7,1.4,1.4,2.7,2.1,4.1c0.2,0.4,0.5,0.6,0.9,0.6
			C309.5,663.1,309.9,663.2,310.3,663.2z"/>
		<path class="st17" d="M288.9,676.5c-0.8,0-1.7,0.1-2.5,0.3c-1.6,0.4-3.1,1.1-4.3,2.3c-0.3,0.3-0.6,0.7-0.9,1c-1,1.4-1.6,3-2,4.6
			c0,0.1,0,0.2,0.1,0.2c0.4,0,0.8,0,1.2,0c0.1,0,0.2-0.1,0.2-0.2c0-0.2,0.1-0.4,0.1-0.6c0.9-3.9,4.8-6.9,9.3-6
			c3.2,0.6,5.7,3,6.3,6.2c0,0.1,0.1,0.3,0.1,0.4c0,0.1,0.1,0.2,0.2,0.2c0.4,0,0.8,0,1.1,0c0.1,0,0.1-0.1,0.1-0.1
			c0-0.2-0.1-0.4-0.1-0.6c-0.3-1.4-0.8-2.8-1.6-4c-1.1-1.7-2.7-2.9-4.6-3.4C290.8,676.6,289.9,676.5,288.9,676.5z"/>
		<path class="st17" d="M309.3,686.8c0.9,0,1.9,0,2.8,0c0.1,0,0.3,0,0.4,0c0.8,0,1.4-0.6,1.5-1.4c0-0.5,0-1.1,0-1.6
			c0-0.8-0.6-1.3-1.4-1.4c-0.1,0-0.2,0-0.3,0c-2,0-4,0-6,0c-0.6,0-0.7,0.2-0.7,0.8c0,1,0,1.9,0,2.9c0,0.1,0,0.2,0,0.3
			c0,0.3,0.2,0.4,0.5,0.5c0.1,0,0.2,0,0.4,0C307.4,686.8,308.3,686.8,309.3,686.8z"/>
		<path class="st17" d="M309.8,664.4c0.6,0,1.1,0,1.7,0c0.7,0,0.6,0.1,0.5-0.6c0,0,0,0,0,0c0-0.2-0.1-0.2-0.3-0.2c-0.7,0-1.3,0-2,0
			c-0.3,0-0.5,0-0.8,0c-0.4,0-0.7-0.2-0.9-0.6c-0.1-0.1-0.1-0.2-0.2-0.3c-1.7-3.4-3.5-6.9-5.2-10.3c-0.2-0.3-0.3-0.6-0.5-0.9
			c-0.3-0.8,0.2-1.5,1-1.6c0.1,0,0.3,0,0.4,0c0.2,0,0.5,0,0.7,0c-0.1-0.3-0.3-0.4-0.5-0.6c-0.1-0.2-0.3-0.2-0.5-0.2
			c-1,0-2.1,0-3.1,0c-0.1,0-0.1,0-0.2,0c-0.1,0-0.1,0.1-0.1,0.1c0,0.1,0.1,0.2,0.1,0.3c0.5,1,1,2,1.5,3.1c1.6,3.1,3.1,6.2,4.7,9.3
			c0.4,0.8,0.8,1.5,1.1,2.3c0.2,0.3,0.2,0.3,0.5,0.3C308.5,664.4,309.1,664.4,309.8,664.4z"/>
		<path class="st17" d="M277.8,656.7c0,2.3,0,4.7,0,7c0,0.1,0,0.2,0,0.3c0,0.4,0,0.4,0.4,0.4c0.2,0,0.4,0,0.6,0
			c0.6,0,0.5,0.1,0.5-0.5c0-4.8,0-9.5,0-14.3c0-0.1,0-0.1,0-0.2c0-0.3,0-0.3-0.3-0.3c-0.2,0-0.4,0-0.7,0c-0.6,0-0.5-0.1-0.5,0.5
			C277.8,651.9,277.8,654.3,277.8,656.7z"/>
		<path class="st17" d="M225.1,684.6c0-0.5,0-0.9,0-1.4c0-0.1,0-0.2,0-0.3c0-0.3-0.2-0.5-0.5-0.5c0,0-0.1,0-0.1,0
			c-0.9,0-1.8,0-2.8,0c-0.9,0-1.5,0.6-1.6,1.5c0,0.4,0,0.8,0,1.3c0,1,0.7,1.6,1.6,1.6c0,0,0.1,0,0.1,0c0.9,0,1.7,0,2.6,0
			c0.1,0,0.2,0,0.3,0c0.3,0,0.4-0.2,0.5-0.5c0-0.1,0-0.2,0-0.3C225.1,685.5,225.1,685.1,225.1,684.6z"/>
		<path class="st15" d="M312.5,669.2c0-1.1-0.1-2.2-0.2-3.2c0-0.3-0.1-0.6-0.1-1c0-0.2-0.1-0.2-0.3-0.2c-0.1,0-0.1,0-0.2,0
			c-1.2,0-2.5,0-3.7,0c-0.1,0-0.2,0-0.3,0c-0.1,0-0.2,0.1-0.2,0.2c0,0.2,0,0.4,0,0.6c0,0.1,0.1,0.2,0.2,0.3c0.1,0,0.1,0.1,0.1,0.1
			c2.1,1.3,3.5,3.1,4.4,5.4c0,0.1,0.1,0.2,0.1,0.2c0,0,0,0,0.1,0c0,0,0,0,0,0c0-0.1,0-0.1,0-0.2
			C312.5,670.6,312.5,669.9,312.5,669.2z"/>
		<path class="st15" d="M306.4,664.7c-0.2,0-0.4,0-0.6,0c0,0,0,0-0.1,0c0,0,0,0.1,0,0.1c0.5,0.2,0.9,0.4,1.4,0.6
			c0.1,0,0.1,0,0.1-0.1c0-0.1,0-0.2,0-0.3c0-0.1-0.1-0.2-0.2-0.2C306.8,664.7,306.6,664.7,306.4,664.7z"/>
		<path class="st20" d="M283.3,667.4c-0.5,0-1,0-1.5,0c-0.1,0-0.2,0-0.3,0c-0.3,0-0.6-0.3-0.6-0.7c0-0.3,0.2-0.6,0.6-0.6
			c0.1,0,0.2,0,0.3,0c1.1,0,2.1,0,3.2,0c0.1,0,0.1,0,0.2,0c0.4,0,0.6,0.3,0.6,0.7c0,0.3-0.2,0.6-0.6,0.6c-0.1,0-0.2,0-0.3,0
			C284.3,667.4,283.8,667.4,283.3,667.4z"/>
		<path class="st15" d="M283.3,666.4c-0.5,0-1,0-1.5,0c-0.1,0-0.2,0-0.3,0c-0.1,0-0.2,0.2-0.2,0.3c0,0.1,0.1,0.3,0.2,0.3
			c0.1,0,0.1,0,0.2,0c1.1,0,2.2,0,3.3,0c0.1,0,0.1,0,0.2,0c0.1,0,0.2-0.2,0.2-0.3c0-0.1-0.1-0.2-0.2-0.3c-0.1,0-0.2,0-0.3,0
			C284.3,666.4,283.8,666.4,283.3,666.4z"/>
		<path class="st17" d="M288.8,691.3c2.8,0,5.2-2.2,5.2-5.2c0-2.8-2.2-5.2-5.1-5.2c-3,0-5.2,2.4-5.2,5.2
			C283.6,688.9,285.9,691.3,288.8,691.3z"/>
		<path class="st15" d="M288.9,649.8c2.3,0,4.5,0,6.8,0c1.2,0,2.3,0.5,3.1,1.5c0.2,0.2,0.3,0.5,0.4,0.7c1.2,2.3,2.3,4.6,3.5,6.9
			c0.1,0.2,0.2,0.4,0.3,0.5c0.1,0.2,0.1,0.2,0.2,0.1c0,0,0.1-0.1,0.1-0.1c0.3-0.2,0.6,0,0.7,0.3c0,0.1,0,0.2,0,0.3
			c0,0.2,0,0.4,0,0.6c0,0.1,0,0.2,0.2,0.2c0.4,0.1,0.5,0.2,0.5,0.7c0,0.6,0,1.1,0,1.7c0,0.2,0,0.3-0.2,0.5c-0.1,0.2-0.4,0.1-0.6,0.2
			c-0.2,0.1-0.2,0.3-0.4,0.3c-0.3,0-0.5-0.1-0.6-0.4c0-0.1,0-0.1,0-0.2c0-0.1-0.1-0.1-0.2-0.1c-0.1,0-0.3,0-0.4,0
			c-6.7,0-13.4,0-20.2,0c-0.2,0-0.3,0-0.5,0c-0.5,0-0.8-0.3-0.9-0.8c0-0.1,0-0.2,0-0.4c0-3.8,0-7.6,0-11.3c0-0.1,0-0.2,0-0.3
			c0-0.5,0.4-0.8,0.9-0.9c0.1,0,0.2,0,0.4,0C284.4,649.8,286.6,649.8,288.9,649.8z"/>
		<path class="st19" d="M292.4,663.2c3.4,0,6.7,0,10.1,0c0.1,0,0.3,0,0.4,0c0.1,0,0.1-0.1,0.1-0.1c0-0.1,0-0.2,0-0.3
			c0-0.6,0-1.3,0-1.9c0-0.3-0.1-0.5-0.2-0.7c-0.5-1.1-1.1-2.1-1.6-3.2c-0.8-1.6-1.6-3.1-2.4-4.7c-0.7-1.3-1.8-2-3.3-2
			c-4.5,0-9,0-13.5,0c-0.1,0-0.2,0-0.3,0c-0.3,0-0.5,0.2-0.5,0.5c0,0.1,0,0.2,0,0.3c0,0.4,0,0.8,0,1.2c0,3.3,0,6.6,0,10
			c0,0.2,0,0.3,0,0.5c0,0.3,0.2,0.4,0.5,0.5c0.1,0,0.3,0,0.4,0C285.6,663.2,289,663.2,292.4,663.2z"/>
		<path class="st20" d="M303.8,661.7L303.8,661.7c0-0.2,0-0.4,0-0.5c0-0.4,0-0.8,0-1.2c0-0.1,0-0.2-0.1-0.3c-0.1-0.1-0.2-0.1-0.3,0
			c-0.1,0.1,0,0.2-0.1,0.3c0,1.2,0,2.3,0,3.5c0,0.1,0,0.1,0,0.2c0,0.1,0.1,0.2,0.2,0.2c0.1,0,0.2-0.1,0.2-0.2c0-0.1,0-0.1,0-0.2
			C303.8,662.9,303.8,662.3,303.8,661.7z"/>
		<path class="st20" d="M304.5,662.3c0-0.3,0-0.6,0-0.8c0-0.1,0-0.2-0.1-0.3c-0.1-0.1-0.2-0.1-0.2,0c-0.1,0.1-0.1,0.2-0.1,0.3
			c0,0.5,0,1.1,0,1.6c0,0.1,0,0.2,0,0.3c0,0.1,0.1,0.1,0.1,0.1c0.1,0,0.1,0,0.1-0.1c0.1-0.1,0.1-0.2,0.1-0.2
			C304.5,662.9,304.5,662.6,304.5,662.3z"/>
		<path class="st21" d="M309.3,674.3c0-0.6,0.1-1.1,0.2-1.6c0.1-0.2,0.1-0.4,0.3-0.6c0.1-0.1,0.2-0.2,0.3-0.3c0.3-0.2,0.5-0.2,0.8,0
			c0.1,0.1,0.2,0.2,0.3,0.4c0.2,0.3,0.2,0.6,0.3,0.9c0.2,0.9,0.2,1.7-0.1,2.6c-0.1,0.2-0.1,0.4-0.2,0.6c-0.1,0.1-0.2,0.3-0.3,0.4
			c-0.3,0.3-0.7,0.3-1,0c-0.1-0.1-0.3-0.3-0.3-0.5c-0.1-0.3-0.2-0.6-0.3-0.9c0-0.1,0-0.3,0-0.4C309.3,674.6,309.3,674.4,309.3,674.3
			z"/>
		<path class="st19" d="M309.6,674.3c0,0.1,0,0.3,0,0.5c0,0.4,0.1,0.8,0.2,1.1c0.1,0.2,0.1,0.3,0.3,0.5c0.2,0.2,0.4,0.2,0.6,0
			c0.1-0.1,0.2-0.3,0.3-0.5c0.1-0.3,0.2-0.7,0.2-1c0.1-0.7,0-1.4-0.2-2c-0.1-0.2-0.1-0.4-0.2-0.5c-0.2-0.3-0.4-0.3-0.7,0
			c-0.1,0.2-0.2,0.4-0.3,0.5C309.7,673.3,309.7,673.8,309.6,674.3z"/>
		<path class="st20" d="M275.5,651.1c0-0.1,0-0.2,0-0.3c0-0.4-0.2-0.6-0.6-0.6c-0.1,0-0.3,0-0.4,0c-7.7,0-15.3,0-23,0
			c-0.1,0-0.1,0-0.2,0c-0.7,0-0.8,0.3-0.8,0.8c0,3.8,0,7.6,0,11.3c0,0.1,0,0.2,0,0.3c0.1,0.3,0.3,0.5,0.5,0.5c0.1,0,0.3,0,0.4,0
			c3.9,0,7.7,0,11.6,0s7.7,0,11.6,0c0.1,0,0.3,0,0.4,0c0.4,0,0.6-0.2,0.6-0.6c0-0.1,0-0.2,0-0.4
			C275.5,658.5,275.5,654.8,275.5,651.1z M274.9,661.7c0,0.4-0.3,0.8-0.8,0.8c-0.1,0-0.3,0-0.4,0c-3.6,0-7.2,0-10.8,0
			c-3.6,0-7.1,0-10.7,0c-0.1,0-0.3,0-0.4,0c-0.4,0-0.7-0.3-0.7-0.7c0-0.1,0-0.2,0-0.3c0-3.2,0-6.4,0-9.6c0-0.1,0-0.1,0-0.2
			c0-0.5,0.3-0.8,0.7-0.8c0.2,0,0.3,0,0.5,0c4.5,0,9,0,13.5,0c2.6,0,5.3,0,7.9,0c0.1,0,0.3,0,0.4,0c0.5,0.1,0.8,0.4,0.8,0.9
			c0,0.1,0,0.2,0,0.3c0,3.1,0,6.3,0,9.4C274.9,661.5,274.9,661.6,274.9,661.7z"/>
		<path class="st19" d="M262.9,662.2c3.6,0,7.1,0,10.7,0c0.1,0,0.3,0,0.4,0c0.3,0,0.5-0.2,0.5-0.5c0-0.1,0-0.2,0-0.3
			c0-3.1,0-6.3,0-9.4c0-0.1,0-0.2,0-0.3c0-0.3-0.2-0.5-0.5-0.5c-0.2,0-0.3,0-0.5,0c-6,0-12,0-18,0c-1.2,0-2.3,0-3.5,0
			c-0.1,0-0.3,0-0.4,0c-0.3,0.1-0.4,0.2-0.4,0.5c0,0.1,0,0.2,0,0.3c0,3.1,0,6.3,0,9.4c0,0.1,0,0.1,0,0.2c0,0.4,0.2,0.7,0.6,0.6
			c0.1,0,0.2,0,0.4,0C255.9,662.2,259.4,662.2,262.9,662.2z"/>
		<path class="st16" d="M288.8,689c1.5,0,2.9-1.2,2.9-2.9c0-1.7-1.4-2.9-2.9-2.9c-1.5,0-2.9,1.2-2.9,2.9
			C285.9,687.8,287.3,689,288.8,689z"/>
		<polyline class="st17" points="220.2,669.2 248.3,669.2 248.3,672 220.3,672 		"/>
		<rect x="248.6" y="669.2" class="st17" width="28.8" height="2.9"/>
		<polyline class="st17" points="220.4,673.3 248.3,673.3 248.3,676.1 220.6,676.1 		"/>
		<rect x="248.6" y="673.3" class="st17" width="28.8" height="2.9"/>
	</g>
</g>
<g id="Layer_4" class="st22">
	
		<image style="display:inline;overflow:visible;" width="428" height="926" xlink:href="../../../../../Downloads/StartView.vue.jpg"  transform="matrix(1 0 0 1 1 1)">
	</image>
</g>
</svg>
