<?xml version="1.0" encoding="utf-8"?>
<!-- Generator: Adobe Illustrator 28.3.0, SVG Export Plug-In . SVG Version: 6.00 Build 0)  -->
<svg version="1.1" xmlns="http://www.w3.org/2000/svg" xmlns:xlink="http://www.w3.org/1999/xlink" x="0px" y="0px"
	 viewBox="0 0 428 928" style="enable-background:new 0 0 428 928;" xml:space="preserve">
<style type="text/css">
	.st0{fill:url(#SVGID_1_);}
	.st1{fill:url(#SVGID_00000031180826447677012480000003039545908248855700_);}
	.st2{fill:url(#SVGID_00000137842465557098382580000009015695601923462064_);}
	.st3{fill:url(#SVGID_00000009550887289473502850000000010783543955277725_);}
	.st4{opacity:0.5;fill:url(#SVGID_00000109719800711988758590000006082111802398570138_);enable-background:new    ;}
	.st5{opacity:0.5;fill:url(#SVGID_00000012458584414331167960000001975559251170858636_);enable-background:new    ;}
	.st6{opacity:0.2;fill:url(#SVGID_00000016073765860434363660000005267077518571842692_);enable-background:new    ;}
	.st7{opacity:0.2;fill:url(#SVGID_00000083054562349369239960000017895235806588094089_);enable-background:new    ;}
	.st8{opacity:0.5;fill:url(#SVGID_00000008112924277397488310000011810828939084385676_);enable-background:new    ;}
	.st9{opacity:0.5;fill:url(#SVGID_00000008145430880895941790000008157507000765536942_);enable-background:new    ;}
	.st10{opacity:0.3;fill:url(#SVGID_00000092454852404186691810000000064224697182848957_);enable-background:new    ;}
	.st11{opacity:0.3;fill:url(#SVGID_00000025423396284743079540000002734736434393181580_);enable-background:new    ;}
	.st12{display:none;}
	.st13{display:inline;}
	.st14{fill:url(#SVGID_00000067207338891681382520000003903618586046184125_);}
	.st15{fill:url(#SVGID_00000096744227412037437730000006810889535348822692_);}
	.st16{fill:url(#SVGID_00000180351129422391028390000003033624004522174125_);}
	.st17{fill:url(#SVGID_00000011015805243158188810000007232449524058111156_);}
	.st18{fill:url(#SVGID_00000070816492763304813360000014472962072325109946_);}
	.st19{opacity:0.5;fill:url(#SVGID_00000180358907421842376880000016155880837205085116_);enable-background:new    ;}
	.st20{opacity:0.5;fill:url(#SVGID_00000016763938938693723670000010720515915627627705_);enable-background:new    ;}
	.st21{opacity:0.2;fill:url(#SVGID_00000001650009291573963680000017214364380328621727_);enable-background:new    ;}
	.st22{opacity:0.2;fill:url(#SVGID_00000090987220110300616360000014225033640398598529_);enable-background:new    ;}
	.st23{opacity:0.5;fill:url(#SVGID_00000070078926407634435950000003731558393297072048_);enable-background:new    ;}
	.st24{opacity:0.5;fill:url(#SVGID_00000070087834903067380770000018276457215748408454_);enable-background:new    ;}
	.st25{opacity:0.3;fill:url(#SVGID_00000163760608365711658760000001658421666528419495_);enable-background:new    ;}
	.st26{opacity:0.3;fill:url(#SVGID_00000034073748993388827650000016091274824224458642_);enable-background:new    ;}
	.st27{fill:#1E2130;}
	.st28{display:none;opacity:0.53;}
</style>
<g id="bg">
	
		<linearGradient id="SVGID_1_" gradientUnits="userSpaceOnUse" x1="216" y1="1197" x2="216" y2="533" gradientTransform="matrix(1 0 0 -1 0 1148)">
		<stop  offset="2.000000e-04" style="stop-color:#74A2BE"/>
		<stop  offset="0.4703" style="stop-color:#225963"/>
		<stop  offset="0.8629" style="stop-color:#1E2130"/>
	</linearGradient>
	<rect x="-502" y="-49" class="st0" width="1436" height="664"/>
</g>
<g id="wald_x5F_bus_x5F_klein">
	
		<linearGradient id="SVGID_00000026153573838708960460000017010279069743101323_" gradientUnits="userSpaceOnUse" x1="207.2928" y1="456.507" x2="207.2928" y2="661.507" gradientTransform="matrix(1 0 0 -1 0 1148)">
		<stop  offset="0" style="stop-color:#B4D9C0"/>
		<stop  offset="1" style="stop-color:#667499"/>
	</linearGradient>
	<path style="fill:url(#SVGID_00000026153573838708960460000017010279069743101323_);" d="M-439.6,544.8c0,0,135.7-35.4,188.8-35.4
		s141,42.1,181.1,42.1s194.2-65,255.1-65c35.7,0,147.6,50.7,196.4,50.7c48.9,0,148.1-28.2,214.1-30.1c66-1.9,117.2,33,169,33
		s89.3-31.5,89.3-31.5v182.9H-439.6V544.8z"/>
	
		<linearGradient id="SVGID_00000123436062602432920390000016386898525710509699_" gradientUnits="userSpaceOnUse" x1="-60.4069" y1="524.0945" x2="854.1929" y2="524.0945" gradientTransform="matrix(1 0 0 -1 0 1148)">
		<stop  offset="0" style="stop-color:#52907C"/>
		<stop  offset="1" style="stop-color:#498875"/>
	</linearGradient>
	<path style="fill:url(#SVGID_00000123436062602432920390000016386898525710509699_);" d="M840.7,610.1c-7.5-5.8-9.1-10.5-3.8-10.2
		c2.6,0.1,10-4.5,6.3-5.2c-10.4-1.7-11.9-10.4-10.5-9.1c1.4,1.3,10.9-0.9,5-3.8c-3.8-1.9-8.6-10-8.1-9.6c2.6,1.9,8,0.9,4.2-0.9
		c-2.2-1.1-4.8-6.7-4.1-6.4s4.5-0.1,2-1.4c-2.5-1.2-2.5-5.9-3.9-7.1c-0.1-0.1-0.5-0.1-0.6,0c-1.5,1.2-1.4,5.8-3.9,7.1
		c-2.5,1.2,1.2,1.7,2,1.4c0.7-0.3-1.9,5.3-4.1,6.4c-3.8,1.8,1.6,2.8,4.2,0.9c0.5-0.4-4.5,7.3-8.1,9.6c-7.6,4.7,4.2,3.6,5,3.8
		c1.8,0.5-3.9,6.2-9.4,8.6c-2.2-2.7-2.4-5.4-1.6-4.6c1.4,1.3,10.7-0.9,4.9-3.9c-3.7-1.9-8.4-10.2-7.9-9.8c2.6,2,7.8,0.9,4.1-1
		c-2.2-1.1-5.8-6.7-5.1-6.4c0.7,0.3,4.8-0.2,2.3-1.4c-2.5-1.3-1.7-6.2-3.2-7.4c-0.1-0.1-0.5-0.1-0.6,0c-1.4,1.2-0.7,6-3.2,7.2
		c-2.5,1.3,1.3,1.7,2,1.4c0.7-0.3-2.6,5.5-4.8,6.6c-3.7,1.9,1.5,2.9,4.1,1c0.5-0.4-4.7,7-7.9,9.8c-6.3,5.6,4.5,3.3,4.9,3.9
		c1,1.5-6.3,8.8-12.3,9.8c-3.6,0.6,2,6.1,7.7,4.8c3.8-0.9,2.8,1.4-1.1,4.9c-0.2-0.5-0.8-0.9-1.6-1c-13.3-2.2-15.2-13.2-13.4-11.6
		c1.8,1.6,14-1.1,6.3-4.9c-4.8-2.4-10.9-12.7-10.3-12.2c3.4,2.4,10.2,1.2,5.3-1.2c-2.8-1.4-7.6-8.3-6.6-8c1,0.4,6.2-0.2,3-1.8
		c-3.2-1.6-2.3-7.7-4.1-9.2c-0.1-0.1-0.6-0.1-0.7,0c-1.9,1.5-0.9,7.4-4.1,9c-3.2,1.6,1.7,2.2,2.6,1.8c1-0.4-3.4,6.8-6.2,8.1
		c-4.8,2.4,2,3.6,5.3,1.2c0.6-0.4-5.3,7.5-9.4,11.4c-1.9-1-1.9-4.2-3-5.1c-0.1-0.1-0.4-0.1-0.4,0c-1.1,0.9-1.1,4.2-3.1,5.1
		c-2,1,0.9,1.3,1.5,1.1c0.6-0.2-1.5,4.1-3.2,4.9c-2.9,1.4,1.2,2.2,3.2,0.7c0.4-0.3-2.5,4.5-5.1,6.7c-6.5-3.3-8.7-9.2-7.5-8.1
		c1.5,1.3,11.4-0.9,5.2-4c-3.9-1.9-8.9-10.4-8.4-10c2.7,2,8.3,0.9,4.4-1c-2.3-1.1-5-7-4.3-6.7c0.8,0.3,4.7-0.2,2.1-1.4
		c-2.6-1.3-2.6-5.7-4.1-6.9c-0.1-0.1-0.5-0.1-0.6,0c-1.5,1.2-1.5,5.6-4.1,6.9s1.3,1.7,2.1,1.4c0.8-0.3-2,5.5-4.3,6.7
		c-3.9,1.9,1.6,3,4.4,1c0.5-0.4-4.5,8-8.4,10c-6.2,3.1,3.7,5.3,5.2,4c0.7-0.7,0.2,1.4-1.9,3.8c-3.9-2.1-8.9-10.1-8.3-9.8
		c2.8,2,8.4,0.9,4.4-1c-2.3-1.1-5.1-6.9-4.3-6.6c0.8,0.3,4.8-0.1,2.1-1.4s-2.6-6.1-4.2-7.3c-0.1-0.1-0.5-0.1-0.6,0
		c-1.5,1.2-1.5,6-4.2,7.3s1.3,1.7,2.1,1.4c0.8-0.3-2,5.5-4.3,6.6c-4,1.9,1.7,2.9,4.4,1c0.5-0.4-4.8,7.6-8.5,9.9
		c-8.1,4.9,4.4,3.7,5.3,3.9c1.3,0.4-1.2,3.3-4.8,5.9c-0.2-0.1-0.3-0.2-0.5-0.3c-3.3-1.6-7.6-8.8-7.1-8.5c2.3,1.7,7,0.8,3.7-0.8
		c-1.9-1-4.3-5.9-3.6-5.6s4-0.1,1.7-1.2c-2.2-1.1-2.2-4.8-3.5-5.8c-0.1-0.1-0.4-0.1-0.5,0c-1.3,1-1.3,4.7-3.5,5.8
		c-2.2,1.1,1.1,1.5,1.7,1.2c0.7-0.3-1.7,4.7-3.6,5.6c-3.3,1.6,1.4,2.5,3.7,0.8c0.3-0.2-1.2,2.4-3.1,4.8c-0.2-0.4-0.8-0.9-1.8-1.4
		c-3.8-1.9-8.6-10-8.1-9.6c2.6,1.9,8,0.9,4.2-0.9c-2.2-1.1-4.9-6.7-4.1-6.4s4.5-0.1,2-1.4c-2.5-1.2-2.5-5.9-4-7.1
		c-0.1-0.1-0.5-0.1-0.6,0c-1.5,1.2-1.4,5.9-4,7.1c-2.5,1.2,1.2,1.7,2,1.4s-1.9,5.4-4.1,6.4c-3.8,1.9,1.6,2.9,4.2,0.9
		c0.5-0.4-4.5,7.4-8.1,9.6c-0.3,0.2-0.5,0.3-0.7,0.5c-2-2.5-3.5-5.1-3.2-4.9c2.5,1.8,7.7,0.9,4-0.9c-2.1-1-5.7-6.3-5-6
		s4.7-0.2,2.3-1.4c-2.4-1.2-1.7-5.8-3.1-6.9c-0.1-0.1-0.4-0.1-0.6,0c-1.4,1.1-0.7,5.6-3.1,6.8c-2.4,1.2,1.3,1.6,2,1.4
		c0.7-0.3-2.6,5.1-4.7,6.2c-3.7,1.8,1.5,2.7,4,0.9c0.5-0.4-4.7,6.6-7.8,9.2c-0.2-0.1-0.4-0.3-0.7-0.4c-3.7-1.9-8.4-10.2-7.9-9.8
		c2.6,2,7.8,0.9,4.1-1c-2.2-1.1-5.8-6.7-5.1-6.4c0.7,0.3,4.8-0.2,2.3-1.4c-2.5-1.3-1.7-6.2-3.2-7.4c-0.1-0.1-0.5-0.1-0.6,0
		c-1.4,1.2-0.7,6-3.2,7.2c-2.5,1.3,1.3,1.7,2,1.4s-2.6,5.5-4.8,6.6c-3.7,1.9,1.5,2.9,4.1,1c0.5-0.4-4.7,7-7.9,9.8
		c-6.3,5.6,4.5,3.3,4.9,3.9c1,1.5-6.3,8.8-12.3,9.8c-3.6,0.6,2,6.1,7.7,4.8c5.4-1.2,1.1,4-7.6,9.8c-2.9-0.2-5.8-0.4-8.8-0.6
		c2.3-1.5,2.8-3,0.1-3.8c-9.1-2.8-17.7-9.5-13-8.5c4.6,1,11.7-3,8.9-3.5c-8.1-1.3-10.9-8.4-9.8-7.4s8.5-0.7,3.9-3
		c-2.9-1.4-6.7-7.7-6.3-7.4c2,1.5,6.2,0.7,3.2-0.7c-1.7-0.8-3.8-5.2-3.2-4.9c0.6,0.2,3.5-0.1,1.5-1.1s-1.9-4.2-3.1-5.1
		c-0.1-0.1-0.4-0.1-0.4,0c-1.1,0.9-1.1,4.2-3.1,5.1c-2,1,0.9,1.3,1.5,1.1c0.6-0.2-1.5,4.1-3.2,4.9c-2.9,1.4,1.2,2.2,3.2,0.7
		c0.4-0.3-2.5,4.5-5.1,6.7c-6.5-3.3-8.7-9.2-7.5-8.1c1.5,1.3,11.4-0.9,5.2-4c-3.9-1.9-8.9-10.4-8.4-10c2.7,2,8.3,0.9,4.4-1
		c-2.3-1.1-5-7-4.3-6.7c0.8,0.3,4.7-0.2,2.1-1.4c-2.6-1.3-2.6-5.7-4.1-6.9c-0.1-0.1-0.5-0.1-0.6,0c-1.5,1.2-1.5,5.6-4.1,6.9
		c-2.6,1.3,1.3,1.7,2.1,1.4c0.8-0.3-2,5.5-4.3,6.7c-3.9,1.9,1.6,3,4.4,1c0.4-0.3-1.7,3.2-4.2,6.3c-0.1-0.1-0.3-0.2-0.5-0.3
		c-2.3-1.1-5.1-6.9-4.3-6.6s4.7-0.1,2.1-1.4c-2.7-1.3-2.6-6.1-4.2-7.3c-0.1-0.1-0.5-0.1-0.6,0c-1.5,1.2-1.5,6-4.2,7.3
		c-2.7,1.3,1.3,1.7,2.1,1.4s-2,5.5-4.3,6.6c-4,1.9,1.7,2.9,4.4,1c0.5-0.4-4.7,7.6-8.5,9.9c-8.1,4.9,4.4,3.7,5.3,3.9
		c2.3,0.6-6.8,8.8-13.3,9.9c-3.9,0.6,5.6,5,8.3,4.8c3.6-0.2,3.1,1.7,0.2,4.6h-0.1c-1.7,0.5-2.5,1.3-2.4,2.2
		c-0.2,0.2-0.4,0.3-0.7,0.5c-5-0.5-10-1.1-15.1-1.7c6.6-2,9.8-5.2,5.4-6.6c-10.3-3.2-20.1-10.8-14.8-9.7c5.2,1.1,13.3-3.5,10.1-4
		c-9.2-1.5-12.4-9.6-11.1-8.5c1.3,1.1,9.7-0.8,4.4-3.4c-3.3-1.6-7.6-8.8-7.1-8.5c2.3,1.7,7,0.8,3.7-0.8c-1.9-0.9-4.3-5.9-3.6-5.6
		s4-0.1,1.7-1.2c-2.2-1.1-2.2-4.8-3.5-5.8c-0.1-0.1-0.4-0.1-0.5,0c-1.3,1-1.3,4.7-3.5,5.8c-2.2,1.1,1.1,1.5,1.7,1.2
		c0.7-0.3-1.7,4.7-3.6,5.6c-3.3,1.6,1.4,2.5,3.7,0.8c0.5-0.3-3.8,6.8-7.1,8.5c-5.3,2.6,3.1,4.5,4.4,3.4c1.3-1.1-1.9,6.9-11.1,8.5
		c-3.3,0.5,4.9,5.1,10.1,4c5.3-1.1-4.5,6.4-14.8,9.7c-0.2,0.1-0.4,0.2-0.6,0.2c-8.1-2.9-15-8.2-10.8-7.3c4.4,0.9,11.4-2.9,8.6-3.3
		c-7.9-1.3-10.6-7.9-9.5-6.9c1.1,0.9,8.3-0.6,3.8-2.8c-2.8-1.3-6.5-7.2-6.1-6.9c2,1.4,6,0.7,3.2-0.7c-1.7-0.8-3.7-4.8-3.1-4.6
		c0.6,0.2,3.4-0.1,1.5-1c-1.9-0.9-1.9-3.9-3-4.8c-0.1-0.1-0.4-0.1-0.4,0c-1.1,0.9-1.1,3.9-3,4.8s0.9,1.2,1.5,1s-1.4,3.9-3.1,4.6
		c-2.9,1.3,1.2,2.1,3.2,0.7c0.4-0.3-3.3,5.6-6.1,6.9c-4.5,2.1,2.7,3.7,3.8,2.8c1.1-0.9-1.6,5.7-9.5,6.9c-2.8,0.4,4.2,4.2,8.6,3.3
		c3.8-0.8-1.4,3.4-8.3,6.3c-31.6-3.4-58.8-6-75.1-5.8c-49,0.6-248,63.7-317.6,63.7c-69.6,0-143.1,12.4-143.1,12.4h914.6v-84.8
		C854.1,606.6,849.2,608,840.7,610.1z M672,612.8c0.4,0.3,1.3,0.4,2.3,0.3c-0.7,0.6-1.5,1.1-2.3,1.7
		C671.4,613.3,671.5,612.3,672,612.8z M706,625.3c0.4,0.1,0.8,0.1,1.3,0.2c-0.6,0.4-1.2,0.9-1.8,1.4
		C704.2,625.6,704.1,624.9,706,625.3z M754.3,618.9c-0.1-0.1-0.2-0.1-0.3-0.2C754.1,618.7,754.2,618.8,754.3,618.9z M689.7,625
		c1.7,0.4,3.4,0.6,5,0.2c2.9-0.6,1.3,1.3-2.4,3.7C690.9,627.5,690,626.1,689.7,625z M673.9,626.5c-0.2,0.3-0.5,0.5-0.8,0.8
		C673.1,626.9,673.4,626.6,673.9,626.5z M655.7,627.3c1.5,0.3,2.9,0.2,4-0.2c-0.1,1-1.8,2.8-4.7,5.1
		C651.5,628.5,651.7,626.4,655.7,627.3z M815.3,604.3c0.8,0.2,1.5,0.2,2.2,0.2c-1,1-2.4,2.2-4,3.4
		C811.3,605,811.8,603.5,815.3,604.3z M785.5,614.6c0.6,0.1,1.2,0.2,1.8,0.2c-0.3,0.2-0.6,0.4-0.9,0.6c-2.1,1.3-3,2.8-2.7,4.1
		C780.2,615.7,780.8,613.6,785.5,614.6z M766.7,596.4c0.6,0.9-1.1,3.3-3.9,5.8c-1.9-2.2-3.4-4.9-3.2-4.7c2,1.5,6.2,0.7,3.2-0.7
		c-0.2-0.1-0.4-0.2-0.6-0.4C764.5,596.3,766.5,596.1,766.7,596.4z M759.8,591.8c0.1,0,0.2,0,0.3,0.1c-0.1,0.1-0.2,0.2-0.3,0.3
		C759.6,591.9,759.6,591.8,759.8,591.8z M744.9,610.7c1.4,0.3,3,0.2,4.5,0c0.3,0.5,0.8,1,1.4,1.6c-1.1,0.9-2.4,1.7-4,2.3
		C743.1,612,741.8,610.1,744.9,610.7z M732.7,612.1c-0.8-0.3-1.6-0.7-2.2-1.1c0.4,0,0.7-0.1,1.1-0.2
		C733.5,610.3,733.7,610.9,732.7,612.1z M725.8,603.8C725.8,603.9,725.8,603.9,725.8,603.8c-0.1,0.1-0.3,0.2-0.5,0.3
		C725.4,603.7,725.5,603.6,725.8,603.8z M712.2,620.1c-1.1-0.5-2-1-2.8-1.6c0.1,0,0.2,0,0.3,0C711.8,618.4,712.5,619,712.2,620.1z
		 M688.5,608.1c0.6,0.6,3,0.4,4.8-0.1c-0.6,0.6-1.3,1.1-1.9,1.4c-5.3,2.6,3.1,4.5,4.4,3.4c0.6-0.5,0.2,1.1-1.4,3
		C688.1,612.8,687.3,607.1,688.5,608.1z M677.9,608.1c0.5,0.1,0.4,0.7-0.1,1.5c-0.3-0.2-0.6-0.4-1-0.6c-0.5-0.2-1-0.6-1.4-1
		C676.6,608.1,677.7,608.1,677.9,608.1z M651.5,612.6c0.6,0.6,2.8,0.5,4.5-0.1c1.8,0.6,5.6-0.1,5.9,0.3c0.7,1-2.3,4.4-6.2,6.8
		C651,616.4,650.4,611.6,651.5,612.6z M598.6,624.1c-0.1-0.1-0.2-0.1-0.3-0.2C598.5,624,598.6,624.1,598.6,624.1z M589.2,616
		c2.6,0.6,5.8-0.1,8.4-1.1c-1.1,1.6-3.2,3.7-6.4,4.9C587.5,617.3,586.1,615.3,589.2,616z M577.1,602.2c-0.2-0.2-0.4-0.4-0.6-0.6
		c0.3-0.1,0.5-0.2,0.6-0.3C577.5,600.9,577.5,601.3,577.1,602.2z M571.2,594.3c0.9,0.7,2.2,1,3.3,1c-0.6,0.6-1.2,1.1-1.8,1.5
		C571.6,595.3,571,594.1,571.2,594.3z"/>
	
		<linearGradient id="SVGID_00000047026354269906356270000003758458342695947671_" gradientUnits="userSpaceOnUse" x1="58.2929" y1="456.602" x2="58.2929" y2="717.4269" gradientTransform="matrix(1 0 0 -1 0 1148)">
		<stop  offset="0" style="stop-color:#1F6A6E"/>
		<stop  offset="1" style="stop-color:#2C447A"/>
	</linearGradient>
	<path style="fill:url(#SVGID_00000047026354269906356270000003758458342695947671_);" d="M403.8,663.5c-37.5,0-132.5,6.3-172.9,6.8
		c11.8-4.7,16.4-10.7,7.3-13.6c-24.2-7.6-47.1-25.3-34.7-22.7c12.2,2.6,31.3-8.1,23.6-9.4c-21.6-3.6-29-22.5-26-19.9
		c2.9,2.6,22.7-1.8,10.3-7.9c-7.8-3.8-17.8-20.6-16.7-19.8c5.4,4,16.5,1.9,8.7-1.9c-4.6-2.2-10-13.8-8.5-13.2
		c1.5,0.6,9.3-0.3,4.1-2.9c-5.2-2.6-5.1-11.2-8.2-13.7c-0.2-0.2-1-0.2-1.2,0c-3,2.4-3,11.1-8.2,13.7c-5.2,2.6,2.5,3.5,4.1,2.9
		c1.5-0.6-3.9,11-8.5,13.2c-7.8,3.8,3.2,5.9,8.7,1.9c1.1-0.8-8.9,16-16.7,19.8c-12.4,6.1,7.3,10.5,10.3,7.9
		c2.9-2.6-4.5,16.2-26,19.9c-7.6,1.3,11.5,12,23.6,9.4c8-1.7,1.4,5-10.7,12c-0.6-0.4-1.1-0.8-1.8-1.2
		c-26.2-17.4-32.7-30.3-17.5-27.1c14.9,3.2,25.2-11.5,15.9-13.1c-26.4-4.4-30.2-26.3-26.6-23.1c3.6,3.2,27.7-2.2,12.6-9.7
		c-9.5-4.7-21.8-25.2-20.4-24.3c6.7,4.8,20.2,2.3,10.6-2.4c-5.6-2.7-15-16.6-13.1-15.8c1.9,0.7,12.3-0.4,6-3.6
		c-6.4-3.1-4.5-15.2-8.2-18.2c-0.3-0.2-1.2-0.2-1.5,0c-3.7,3-1.9,14.7-8.2,17.9c-6.4,3.1,3.3,4.3,5.2,3.6
		c1.9-0.7-6.8,13.5-12.4,16.2c-0.6,0.3-1.1,0.6-1.6,0.9C97,537.2,89.9,525,91,525.8c7.8,5.6,23.6,2.7,12.4-2.8
		c-6.5-3.2-14.3-19.7-12.1-18.9c2.2,0.9,13.2-0.4,5.8-4.1c-7.4-3.6-7.3-17.4-11.6-20.9c-0.3-0.3-1.4-0.3-1.7,0
		c-4.3,3.5-4.2,17.2-11.6,20.9c-7.4,3.6,3.6,4.9,5.8,4.1c2.2-0.9-5.6,15.7-12.1,18.9c-11.2,5.4,4.6,8.4,12.4,2.8
		c1.5-1.1-13.3,21.7-23.8,28.3c-0.8,0.5-1.6,1-2.3,1.5c-0.4-0.4-1.1-0.9-2.2-1.4c-4.6-2.2-10-13.8-8.5-13.2c1.5,0.6,9.3-0.3,4.1-2.9
		c-5.2-2.6-5.1-11.2-8.2-13.7c-0.2-0.2-1-0.2-1.2,0c-3,2.4-3,11.1-8.2,13.7c-5.2,2.6,2.5,3.5,4.1,2.9c1.5-0.6-3.9,11-8.5,13.2
		c-7.8,3.8,3.2,5.9,8.7,1.9c1-0.8-8.2,14.7-15.8,19.3C-4.8,567.1-7.8,548-4.1,551.3c4.2,3.7,32.3-2.6,14.7-11.3
		c-11.1-5.5-25.4-29.4-23.8-28.3c7.8,5.6,23.6,2.7,12.4-2.8c-6.5-3.2-14.3-19.7-12.1-18.9c2.2,0.9,13.2-0.4,5.8-4.1
		c-7.4-3.6-7.3-17.4-11.6-20.9c-0.3-0.3-1.4-0.3-1.7,0c-4.3,3.5-4.2,17.2-11.6,20.9c-7.4,3.6,3.6,4.9,5.8,4.1
		c2.2-0.8-5.6,15.7-12.1,18.9c-11.2,5.4,4.6,8.4,12.4,2.8c1.5-1.1-13.2,21.7-23.8,28.3c-22.5,14,12.3,10.7,14.7,11.3
		c5.7,1.6-14.1,20.7-31.4,26.8c-5.2-6.4-5.5-12.4-3.5-10.6c3.6,3.2,27.7-2.2,12.6-9.7c-9.5-4.7-21.8-25.2-20.4-24.3
		c6.7,4.8,20.2,2.3,10.6-2.4c-5.6-2.7-15-16.6-13.1-15.8c1.9,0.7,12.3-0.4,6-3.6c-6.4-3.1-4.5-15.2-8.2-18.2c-0.3-0.2-1.2-0.2-1.5,0
		c-3.7,3-1.9,14.7-8.2,17.9c-6.4,3.1,3.3,4.3,5.2,3.6c1.9-0.7-6.8,13.5-12.4,16.2c-9.6,4.7,4,7.2,10.6,2.4
		c1.3-1-12.2,17.3-20.4,24.3c-16.2,13.9,11.5,8.2,12.6,9.7c1,1.5-1.2,5.1-5.3,9.2c-22.1-10.3-29.5-30.3-25.6-26.8
		c4.7,4.2,36.3-2.9,16.5-12.7c-12.5-6.2-28.4-33-26.7-31.7c8.7,6.3,26.4,3,13.9-3.1c-7.3-3.6-16-22.1-13.6-21.2
		c2.5,1,14.9-0.5,6.5-4.6c-8.3-4.1-8.2-18-13.1-21.9c-0.4-0.3-1.5-0.3-1.9,0c-4.8,3.9-4.7,17.8-13.1,21.9c-8.3,4.1,4.1,5.5,6.5,4.6
		c2.5-1-6.2,17.6-13.6,21.2c-12.5,6.1,5.2,9.4,13.9,3.1c1.7-1.3-14.3,25.6-26.7,31.7c-19.8,9.8,11.8,16.9,16.5,12.7
		s-7.2,26-41.7,31.8c-12.2,2,18.4,19.3,37.8,15.1c13.5-2.9,1,9.2-20.6,21.1c-32.9-22.5-42.2-42.2-22.2-41.2
		c8.6,0.4,33.4-15.3,21-17.3c-35-5.8-40-34.8-35.3-30.6c4.8,4.2,36.7-2.9,16.7-12.8c-12.6-6.2-28.8-33.4-27.1-32.1
		c8.8,6.4,26.8,3.1,14.1-3.1c-7.4-3.6-16.2-22.4-13.7-21.4s15-0.5,6.6-4.6c-8.4-4.1-8.3-19.8-13.2-23.7c-0.4-0.3-1.6-0.3-1.9,0
		c-4.9,4-4.8,19.6-13.2,23.7c-8.4,4.1,4.1,5.6,6.6,4.6s-6.3,17.8-13.7,21.4c-12.7,6.2,5.2,9.6,14.1,3.1c1.7-1.3-15,24.7-27.1,32.1
		c-25.6,15.9,14,12.1,16.7,12.8c5,1.4-7.2,14.6-22,23.7c-9.1-6.6-12.1-15.1-10-13.2c2.9,2.6,22.7-1.8,10.3-7.9
		c-7.8-3.8-17.8-20.6-16.7-19.8c5.4,4,16.5,1.9,8.7-1.9c-4.6-2.2-10-13.8-8.5-13.2c1.5,0.6,9.3-0.3,4.1-2.9
		c-5.2-2.6-5.1-11.2-8.2-13.7c-0.2-0.2-1-0.2-1.2,0c-3,2.4-3,11.1-8.2,13.7c-5.2,2.6,2.5,3.5,4.1,2.9c1.5-0.6-3.9,11-8.5,13.2
		c-1.5,0.7-2.3,1.4-2.6,2c-10.6-6.5-23.3-27.9-21.9-26.8c7.6,5.5,23,2.6,12.1-2.7c-6.4-3.1-17.1-18.8-14.9-18c2.2,0.8,14-0.5,6.8-4
		c-7.2-3.6-5.1-17.3-9.3-20.7c-0.3-0.3-1.3-0.3-1.7,0c-4.2,3.4-2.1,16.7-9.3,20.3c-7.2,3.6,3.8,4.9,6,4c2.2-0.8-7.7,15.3-14.1,18.4
		c-10.9,5.3,4.5,8.2,12.1,2.7c1.5-1.1-13.9,19.6-23.2,27.6c-18.4,15.8,13.1,9.3,14.3,11c3,4.3-18.4,24.6-36.2,27.6
		c-10.6,1.8,5.7,17,22.6,13.4c17.3-3.7,0.9,13.7-28.9,31.5c-0.8,0.5-1.6,1-2.3,1.5c-17.7-3.8-30.3-6.7-34.4-7.2v101.4H556
		C482.5,691.4,443.1,663.5,403.8,663.5z M5.2,610.2c5.3,2.3,12.6,4.1,18.3,2.8c5.8-1.2,3.9,2-2.3,6.5c-2.9-0.6-5.7-1.2-8.5-1.7
		C9.8,615.2,7.2,612.6,5.2,610.2z M47.7,583.8c0.7,0.7,2.6,0.9,4.7,0.7c-1.3,0.9-2.6,1.7-4,2.5C46.9,584.4,46.7,582.9,47.7,583.8z
		 M109.7,583.1c-0.8-0.6-1.5-1.3-2.2-1.9c1.1,0,1.9,0.1,2.1,0.3C109.8,581.9,109.8,582.5,109.7,583.1z M55,621.4
		c-8.1-5.5-11.4-9.7-4.8-8.3c3.6,0.8,7.8,0.4,11.7-0.6C60.9,614.8,58.5,617.9,55,621.4z M117.4,547.6c0.5-0.4-1.2,2.1-3.9,5.7
		c-1.3-0.8-2.7-1.9-4.1-3.1C112,550,115.1,549.2,117.4,547.6z M100.1,565.3c0.5,0.4,1.4,0.8,2.4,0.9c-1.1,1.2-2.1,2.2-3.1,3.2
		C98.3,566.1,98.7,564.1,100.1,565.3z M41.3,556c2.1,1.6,5.1,2.2,7.5,2.1c-9.4,9.2,18.2,6.6,20.3,7.2c3,0.8-1,6.5-8,12.6
		c-0.6-0.6-1.6-1.3-3.1-2C50.2,572,40.2,555.3,41.3,556z M8.5,593.4c4.1,0.2,12.5-3.8,17.5-7.8c-2.1,4.5-10.1,15-25.3,17.8
		C-2.6,597-0.2,593,8.5,593.4z M-274.3,576.4c8.5-0.5,9.8,3,6,8.7c-8.8-4.2-16.3-9-20.3-12.4C-283,575-277.4,576.6-274.3,576.4z
		 M-314.5,544.6c-3.5-1.9-6.4-4-8.7-6.2c3.8,1.6,9.4,2,10.9,0.7C-311.1,538-311.7,540.8-314.5,544.6z M-327,567.6
		c4.1,1.1,8.5,1.5,12.3,0.7c6.8-1.5,3,3.2-5.7,8.9C-324.3,573.3-326.5,570-327,567.6z M-59.2,603.6c7,1.5,12.9-0.9,16.4-4.1
		c-1.9,3.5-6.4,8.3-12.9,13.6c-2.4,0.1-4.8,0.2-7.2,0.4C-69.7,605.8-68.7,601.6-59.2,603.6z M-109.6,614
		c-11-6.7-18.5-12.9-19.5-15.9c3.9,3.7,12.2,7.2,20.6,5.4C-99.4,601.5-101,606.4-109.6,614z M-305.9,511.3c0.5-0.4-1.6,3.4-4.7,7.8
		c1-1.6,0.4-3.5-2.8-5.7C-311,513.5-308,512.9-305.9,511.3z M-330.1,523.1c2.7,2.4,15.7,0.5,19.1-3.5c-3.3,4.6-7.7,9.7-11.6,11.6
		c-2.5,1.3-3.7,2.4-4,3.5C-332.1,527.6-332.3,521.2-330.1,523.1z"/>
	
		<linearGradient id="SVGID_00000045584355485795679560000010012663079972356247_" gradientUnits="userSpaceOnUse" x1="-386.9071" y1="853.807" x2="64.8931" y2="853.807" gradientTransform="matrix(1 0 0 -1 0 1148)">
		<stop  offset="0" style="stop-color:#DABDD7"/>
		<stop  offset="1" style="stop-color:#FBDFD5"/>
	</linearGradient>
	<path style="opacity:0.5;fill:url(#SVGID_00000045584355485795679560000010012663079972356247_);enable-background:new    ;" d="
		M-339.8,269.2l-47.1,32.8l260,17.2l191.8-25h-205.1L-339.8,269.2z"/>
	
		<linearGradient id="SVGID_00000011727047322462002700000011205650403336776636_" gradientUnits="userSpaceOnUse" x1="233.2604" y1="732.4105" x2="704.9633" y2="685.6714" gradientTransform="matrix(1 0 0 -1 0 1148)">
		<stop  offset="0" style="stop-color:#DABDD7"/>
		<stop  offset="1" style="stop-color:#FBDFD5"/>
	</linearGradient>
	<path style="opacity:0.5;fill:url(#SVGID_00000011727047322462002700000011205650403336776636_);enable-background:new    ;" d="
		M705.4,458l-474.6-17.5l116.8-17.9l-43-4.3l291.5,8.1L705.4,458z"/>
	
		<linearGradient id="SVGID_00000122682617618032034430000015217760055030852798_" gradientUnits="userSpaceOnUse" x1="306.3929" y1="509.307" x2="774.7929" y2="509.307" gradientTransform="matrix(1 0 0 -1 0 1148)">
		<stop  offset="0" style="stop-color:#DABDD7"/>
		<stop  offset="1" style="stop-color:#FBDFD5"/>
	</linearGradient>
	<path style="opacity:0.2;fill:url(#SVGID_00000122682617618032034430000015217760055030852798_);enable-background:new    ;" d="
		M432.5,645.3l-126.1-13.2l468.4,13.2H544.7H432.5z"/>
	
		<linearGradient id="SVGID_00000109716224730512552390000015017638385819884989_" gradientUnits="userSpaceOnUse" x1="222.9929" y1="591.657" x2="658.5929" y2="591.657" gradientTransform="matrix(1 0 0 -1 0 1148)">
		<stop  offset="0" style="stop-color:#DABDD7"/>
		<stop  offset="1" style="stop-color:#FBDFD5"/>
	</linearGradient>
	<path style="opacity:0.2;fill:url(#SVGID_00000109716224730512552390000015017638385819884989_);enable-background:new    ;" d="
		M658.6,572.7L223,561.4L502.9,540L658.6,572.7z"/>
	
		<linearGradient id="SVGID_00000085240683945493497160000006772504117630571692_" gradientUnits="userSpaceOnUse" x1="-317.7072" y1="739.107" x2="229.0928" y2="739.107" gradientTransform="matrix(1 0 0 -1 0 1148)">
		<stop  offset="0" style="stop-color:#DABDD7"/>
		<stop  offset="1" style="stop-color:#FBDFD5"/>
	</linearGradient>
	<path style="opacity:0.5;fill:url(#SVGID_00000085240683945493497160000006772504117630571692_);enable-background:new    ;" d="
		M-317.7,399.4l248.4,19l298.4-19H8.3H-317.7z"/>
	
		<linearGradient id="SVGID_00000048480351576875153290000010695955934805461889_" gradientUnits="userSpaceOnUse" x1="212.9929" y1="683.207" x2="668.5929" y2="683.207" gradientTransform="matrix(1 0 0 -1 0 1148)">
		<stop  offset="0" style="stop-color:#DABDD7"/>
		<stop  offset="1" style="stop-color:#FBDFD5"/>
	</linearGradient>
	<path style="opacity:0.5;fill:url(#SVGID_00000048480351576875153290000010695955934805461889_);enable-background:new    ;" d="
		M517.4,471.7H213l226.8-13.8l228.8,6.9L517.4,471.7z"/>
	
		<linearGradient id="SVGID_00000153692214244621619050000013548773666126176660_" gradientUnits="userSpaceOnUse" x1="-349.5071" y1="1133.1069" x2="271.8929" y2="1133.1069" gradientTransform="matrix(1 0 0 -1 0 1148)">
		<stop  offset="0" style="stop-color:#DABDD7"/>
		<stop  offset="1" style="stop-color:#FBDFD5"/>
	</linearGradient>
	<path style="opacity:0.3;fill:url(#SVGID_00000153692214244621619050000013548773666126176660_);enable-background:new    ;" d="
		M-349.5,47l88-72.8l533.4,81.4L-349.5,47z"/>
	
		<linearGradient id="SVGID_00000150080785336224493310000006565666536154180002_" gradientUnits="userSpaceOnUse" x1="199.5928" y1="1010.757" x2="815.8929" y2="1010.757" gradientTransform="matrix(1 0 0 -1 0 1148)">
		<stop  offset="0" style="stop-color:#DABDD7"/>
		<stop  offset="1" style="stop-color:#FBDFD5"/>
	</linearGradient>
	<path style="opacity:0.3;fill:url(#SVGID_00000150080785336224493310000006565666536154180002_);enable-background:new    ;" d="
		M815.9,193.3l-178.7-24.1l-437.6-46.6l530.9-41.4L815.9,193.3z"/>
</g>
<g id="wald_x5F_bus_x5F_gross" class="st12">
	<g class="st13">
		
			<linearGradient id="SVGID_00000065784507991929734050000015005799237450794375_" gradientUnits="userSpaceOnUse" x1="98.1692" y1="428.5632" x2="98.1692" y2="634.7632" gradientTransform="matrix(1 0 0 -1 0 1148)">
			<stop  offset="0" style="stop-color:#FDE7D2"/>
			<stop  offset="1" style="stop-color:#F2F5EE"/>
		</linearGradient>
		<path style="fill:url(#SVGID_00000065784507991929734050000015005799237450794375_);" d="M-548.7,535c0,0,71-14.9,133.1-14.9
			s234.5,7.5,299,7.5s301.3-14.4,366-14.4s213.8,21.9,249.7,21.9c35.9,0,204.5-21.9,245.9-21.9v206.2H-548.7V535z"/>
		
			<linearGradient id="SVGID_00000112625375386760236230000014744149838342169017_" gradientUnits="userSpaceOnUse" x1="98.2192" y1="428.6632" x2="98.2192" y2="626.7632" gradientTransform="matrix(1 0 0 -1 0 1148)">
			<stop  offset="0" style="stop-color:#576B74"/>
			<stop  offset="1" style="stop-color:#FDE7D2"/>
		</linearGradient>
		<path style="fill:url(#SVGID_00000112625375386760236230000014744149838342169017_);" d="M-548.7,521.2
			c40,9.6,99.5,37.3,133.1,37.3s221.3-37.3,260.1-37.3s183.7,44.9,209.6,44.9s212.2-34.4,276.9-34.4s110,34.4,190.2,34.4
			c80.2,0,185.1-35.3,223.9-35.3v188.5H-548.7V521.2z"/>
		
			<linearGradient id="SVGID_00000170987762158312561830000007518194132321267379_" gradientUnits="userSpaceOnUse" x1="98.2192" y1="428.5632" x2="98.2192" y2="633.5632" gradientTransform="matrix(1 0 0 -1 0 1148)">
			<stop  offset="0" style="stop-color:#B4D9C0"/>
			<stop  offset="1" style="stop-color:#70A292"/>
		</linearGradient>
		<path style="fill:url(#SVGID_00000170987762158312561830000007518194132321267379_);" d="M-548.7,572.7c0,0,135.7-35.4,188.8-35.4
			s141,42.1,181.1,42.1s194.2-65,255.1-65c35.7,0,147.6,50.7,196.4,50.7c48.9,0,148.1-28.2,214.1-30.1c66-1.9,117.2,33,169,33
			s89.3-31.5,89.3-31.5v182.9H-548.7V572.7z"/>
		
			<linearGradient id="SVGID_00000057116718613209432930000018417154830744451974_" gradientUnits="userSpaceOnUse" x1="-169.4806" y1="496.1507" x2="745.1192" y2="496.1507" gradientTransform="matrix(1 0 0 -1 0 1148)">
			<stop  offset="0" style="stop-color:#52907C"/>
			<stop  offset="1" style="stop-color:#498875"/>
		</linearGradient>
		<path style="fill:url(#SVGID_00000057116718613209432930000018417154830744451974_);" d="M731.6,638c-7.5-5.8-9.1-10.5-3.8-10.2
			c2.6,0.1,10-4.5,6.3-5.2c-10.4-1.7-11.9-10.4-10.5-9.1c1.4,1.3,10.9-0.9,5-3.8c-3.8-1.9-8.6-10-8.1-9.6c2.6,1.9,8,0.9,4.2-0.9
			c-2.2-1.1-4.8-6.7-4.1-6.4s4.5-0.1,2-1.4c-2.5-1.2-2.5-5.9-3.9-7.1c-0.1-0.1-0.5-0.1-0.6,0c-1.5,1.2-1.4,5.8-3.9,7.1
			c-2.5,1.2,1.2,1.7,2,1.4c0.7-0.3-1.9,5.3-4.1,6.4c-3.8,1.8,1.6,2.8,4.2,0.9c0.5-0.4-4.5,7.3-8.1,9.6c-7.6,4.7,4.2,3.6,5,3.8
			c1.8,0.5-3.9,6.2-9.4,8.6c-2.2-2.7-2.4-5.4-1.6-4.6c1.4,1.3,10.7-0.9,4.9-3.9c-3.7-1.9-8.4-10.2-7.9-9.8c2.6,2,7.8,0.9,4.1-1
			c-2.2-1.1-5.8-6.7-5.1-6.4c0.7,0.3,4.8-0.2,2.3-1.4c-2.5-1.3-1.7-6.2-3.2-7.4c-0.1-0.1-0.5-0.1-0.6,0c-1.4,1.2-0.7,6-3.2,7.2
			c-2.5,1.3,1.3,1.7,2,1.4c0.7-0.3-2.6,5.5-4.8,6.6c-3.7,1.9,1.5,2.9,4.1,1c0.5-0.4-4.7,7-7.9,9.8c-6.3,5.6,4.5,3.3,4.9,3.9
			c1,1.5-6.3,8.8-12.3,9.8c-3.6,0.6,2,6.1,7.7,4.8c3.8-0.9,2.8,1.4-1.1,4.9c-0.2-0.5-0.8-0.9-1.6-1c-13.3-2.2-15.2-13.2-13.4-11.6
			c1.8,1.6,14-1.1,6.3-4.9c-4.8-2.4-10.9-12.7-10.3-12.2c3.4,2.4,10.2,1.2,5.3-1.2c-2.8-1.4-7.6-8.3-6.6-8c1,0.4,6.2-0.2,3-1.8
			c-3.2-1.6-2.3-7.7-4.1-9.2c-0.1-0.1-0.6-0.1-0.7,0c-1.9,1.5-0.9,7.4-4.1,9c-3.2,1.6,1.7,2.2,2.6,1.8c1-0.4-3.4,6.8-6.2,8.1
			c-4.8,2.4,2,3.6,5.3,1.2c0.6-0.4-5.3,7.5-9.4,11.4c-1.9-1-1.9-4.2-3-5.1c-0.1-0.1-0.4-0.1-0.4,0c-1.1,0.9-1.1,4.2-3.1,5.1
			c-2,1,0.9,1.3,1.5,1.1c0.6-0.2-1.5,4.1-3.2,4.9c-2.9,1.4,1.2,2.2,3.2,0.7c0.4-0.3-2.5,4.5-5.1,6.7c-6.5-3.3-8.7-9.2-7.5-8.1
			c1.5,1.3,11.4-0.9,5.2-4c-3.9-1.9-8.9-10.4-8.4-10c2.7,2,8.3,0.9,4.4-1c-2.3-1.1-5-7-4.3-6.7c0.8,0.3,4.7-0.2,2.1-1.4
			c-2.6-1.3-2.6-5.7-4.1-6.9c-0.1-0.1-0.5-0.1-0.6,0c-1.5,1.2-1.5,5.6-4.1,6.9s1.3,1.7,2.1,1.4c0.8-0.3-2,5.5-4.3,6.7
			c-3.9,1.9,1.6,3,4.4,1c0.5-0.4-4.5,8-8.4,10c-6.2,3.1,3.7,5.3,5.2,4c0.7-0.7,0.2,1.4-1.9,3.8c-3.9-2.1-8.9-10.1-8.3-9.8
			c2.8,2,8.4,0.9,4.4-1c-2.3-1.1-5.1-6.9-4.3-6.6c0.8,0.3,4.8-0.1,2.1-1.4s-2.6-6.1-4.2-7.3c-0.1-0.1-0.5-0.1-0.6,0
			c-1.5,1.2-1.5,6-4.2,7.3s1.3,1.7,2.1,1.4c0.8-0.3-2,5.5-4.3,6.6c-4,1.9,1.7,2.9,4.4,1c0.5-0.4-4.8,7.6-8.5,9.9
			c-8.1,4.9,4.4,3.7,5.3,3.9c1.3,0.4-1.2,3.3-4.8,5.9c-0.2-0.1-0.3-0.2-0.5-0.3c-3.3-1.6-7.6-8.8-7.1-8.5c2.3,1.7,7,0.8,3.7-0.8
			c-1.9-1-4.3-5.9-3.6-5.6s4-0.1,1.7-1.2c-2.2-1.1-2.2-4.8-3.5-5.8c-0.1-0.1-0.4-0.1-0.5,0c-1.3,1-1.3,4.7-3.5,5.8
			c-2.2,1.1,1.1,1.5,1.7,1.2c0.7-0.3-1.7,4.7-3.6,5.6c-3.3,1.6,1.4,2.5,3.7,0.8c0.3-0.2-1.2,2.4-3.1,4.8c-0.2-0.4-0.8-0.9-1.8-1.4
			c-3.8-1.9-8.6-10-8.1-9.6c2.6,1.9,8,0.9,4.2-0.9c-2.2-1.1-4.9-6.7-4.1-6.4s4.5-0.1,2-1.4c-2.5-1.2-2.5-5.9-4-7.1
			c-0.1-0.1-0.5-0.1-0.6,0c-1.5,1.2-1.4,5.9-4,7.1c-2.5,1.2,1.2,1.7,2,1.4s-1.9,5.4-4.1,6.4c-3.8,1.9,1.6,2.9,4.2,0.9
			c0.5-0.4-4.5,7.4-8.1,9.6c-0.3,0.2-0.5,0.3-0.7,0.5c-2-2.5-3.5-5.1-3.2-4.9c2.5,1.8,7.7,0.9,4-0.9c-2.1-1-5.7-6.3-5-6
			s4.7-0.2,2.3-1.4c-2.4-1.2-1.7-5.8-3.1-6.9c-0.1-0.1-0.4-0.1-0.6,0c-1.4,1.1-0.7,5.6-3.1,6.8c-2.4,1.2,1.3,1.6,2,1.4
			c0.7-0.3-2.6,5.1-4.7,6.2c-3.7,1.8,1.5,2.7,4,0.9c0.5-0.4-4.7,6.6-7.8,9.2c-0.2-0.1-0.4-0.3-0.7-0.4c-3.7-1.9-8.4-10.2-7.9-9.8
			c2.6,2,7.8,0.9,4.1-1c-2.2-1.1-5.8-6.7-5.1-6.4c0.7,0.3,4.8-0.2,2.3-1.4c-2.5-1.3-1.7-6.2-3.2-7.4c-0.1-0.1-0.5-0.1-0.6,0
			c-1.4,1.2-0.7,6-3.2,7.2c-2.5,1.3,1.3,1.7,2,1.4s-2.6,5.5-4.8,6.6c-3.7,1.9,1.5,2.9,4.1,1c0.5-0.4-4.7,7-7.9,9.8
			c-6.3,5.6,4.5,3.3,4.9,3.9c1,1.5-6.3,8.8-12.3,9.8c-3.6,0.6,2,6.1,7.7,4.8c5.4-1.2,1.1,4-7.6,9.8c-2.9-0.2-5.8-0.4-8.8-0.6
			c2.3-1.5,2.8-3,0.1-3.8c-9.1-2.8-17.7-9.5-13-8.5c4.6,1,11.7-3,8.9-3.5c-8.1-1.3-10.9-8.4-9.8-7.4s8.5-0.7,3.9-3
			c-2.9-1.4-6.7-7.7-6.3-7.4c2,1.5,6.2,0.7,3.2-0.7c-1.7-0.8-3.8-5.2-3.2-4.9c0.6,0.2,3.5-0.1,1.5-1.1s-1.9-4.2-3.1-5.1
			c-0.1-0.1-0.4-0.1-0.4,0c-1.1,0.9-1.1,4.2-3.1,5.1c-2,1,0.9,1.3,1.5,1.1c0.6-0.2-1.5,4.1-3.2,4.9c-2.9,1.4,1.2,2.2,3.2,0.7
			c0.4-0.3-2.5,4.5-5.1,6.7c-6.5-3.3-8.7-9.2-7.5-8.1c1.5,1.3,11.4-0.9,5.2-4c-3.9-1.9-8.9-10.4-8.4-10c2.7,2,8.3,0.9,4.4-1
			c-2.3-1.1-5-7-4.3-6.7c0.8,0.3,4.7-0.2,2.1-1.4c-2.6-1.3-2.6-5.7-4.1-6.9c-0.1-0.1-0.5-0.1-0.6,0c-1.5,1.2-1.5,5.6-4.1,6.9
			c-2.6,1.3,1.3,1.7,2.1,1.4c0.8-0.3-2,5.5-4.3,6.7c-3.9,1.9,1.6,3,4.4,1c0.4-0.3-1.7,3.2-4.2,6.3c-0.1-0.1-0.3-0.2-0.5-0.3
			c-2.3-1.1-5.1-6.9-4.3-6.6s4.7-0.1,2.1-1.4c-2.7-1.3-2.6-6.1-4.2-7.3c-0.1-0.1-0.5-0.1-0.6,0c-1.5,1.2-1.5,6-4.2,7.3
			c-2.7,1.3,1.3,1.7,2.1,1.4s-2,5.5-4.3,6.6c-4,1.9,1.7,2.9,4.4,1c0.5-0.4-4.7,7.6-8.5,9.9c-8.1,4.9,4.4,3.7,5.3,3.9
			c2.3,0.6-6.8,8.8-13.3,9.9c-3.9,0.6,5.6,5,8.3,4.8c3.6-0.2,3.1,1.7,0.2,4.6h-0.1c-1.7,0.5-2.5,1.3-2.4,2.2
			c-0.2,0.2-0.4,0.3-0.7,0.5c-5-0.5-10-1.1-15.1-1.7c6.6-2,9.8-5.2,5.4-6.6c-10.3-3.2-20.1-10.8-14.8-9.7c5.2,1.1,13.3-3.5,10.1-4
			c-9.2-1.5-12.4-9.6-11.1-8.5c1.3,1.1,9.7-0.8,4.4-3.4c-3.3-1.6-7.6-8.8-7.1-8.5c2.3,1.7,7,0.8,3.7-0.8c-1.9-0.9-4.3-5.9-3.6-5.6
			s4-0.1,1.7-1.2c-2.2-1.1-2.2-4.8-3.5-5.8c-0.1-0.1-0.4-0.1-0.5,0c-1.3,1-1.3,4.7-3.5,5.8c-2.2,1.1,1.1,1.5,1.7,1.2
			c0.7-0.3-1.7,4.7-3.6,5.6c-3.3,1.6,1.4,2.5,3.7,0.8c0.5-0.3-3.8,6.8-7.1,8.5c-5.3,2.6,3.1,4.5,4.4,3.4c1.3-1.1-1.9,6.9-11.1,8.5
			c-3.3,0.5,4.9,5.1,10.1,4c5.3-1.1-4.5,6.4-14.8,9.7c-0.2,0.1-0.4,0.2-0.6,0.2c-8.1-2.9-15-8.2-10.8-7.3c4.4,0.9,11.4-2.9,8.6-3.3
			c-7.9-1.3-10.6-7.9-9.5-6.9c1.1,0.9,8.3-0.6,3.8-2.8c-2.8-1.3-6.5-7.2-6.1-6.9c2,1.4,6,0.7,3.2-0.7c-1.7-0.8-3.7-4.8-3.1-4.6
			c0.6,0.2,3.4-0.1,1.5-1c-1.9-0.9-1.9-3.9-3-4.8c-0.1-0.1-0.4-0.1-0.4,0c-1.1,0.9-1.1,3.9-3,4.8s0.9,1.2,1.5,1s-1.4,3.9-3.1,4.6
			c-2.9,1.3,1.2,2.1,3.2,0.7c0.4-0.3-3.3,5.6-6.1,6.9c-4.5,2.1,2.7,3.7,3.8,2.8c1.1-0.9-1.6,5.7-9.5,6.9c-2.8,0.4,4.2,4.2,8.6,3.3
			c3.8-0.8-1.4,3.4-8.3,6.3c-31.6-3.4-58.8-6-75.1-5.8c-49,0.6-248,63.7-317.6,63.7c-69.6,0-143.1,12.4-143.1,12.4h914.6v-84.8
			C745,634.5,740.1,635.9,731.6,638z M562.9,640.7c0.4,0.3,1.3,0.4,2.3,0.3c-0.7,0.6-1.5,1.1-2.3,1.7
			C562.3,641.2,562.4,640.2,562.9,640.7z M596.9,653.2c0.4,0.1,0.8,0.1,1.3,0.2c-0.6,0.4-1.2,0.9-1.8,1.4
			C595.1,653.5,595,652.8,596.9,653.2z M645.2,646.8c-0.1-0.1-0.2-0.1-0.3-0.2C645,646.6,645.1,646.7,645.2,646.8z M580.6,652.9
			c1.7,0.4,3.4,0.6,5,0.2c2.9-0.6,1.3,1.3-2.4,3.7C581.8,655.4,580.9,654,580.6,652.9z M564.8,654.4c-0.2,0.3-0.5,0.5-0.8,0.8
			C564,654.8,564.3,654.5,564.8,654.4z M546.6,655.2c1.5,0.3,2.9,0.2,4-0.2c-0.1,1-1.8,2.8-4.7,5.1
			C542.4,656.4,542.6,654.3,546.6,655.2z M706.2,632.2c0.8,0.2,1.5,0.2,2.2,0.2c-1,1-2.4,2.2-4,3.4
			C702.2,632.9,702.7,631.4,706.2,632.2z M676.4,642.5c0.6,0.1,1.2,0.2,1.8,0.2c-0.3,0.2-0.6,0.4-0.9,0.6c-2.1,1.3-3,2.8-2.7,4.1
			C671.1,643.6,671.7,641.5,676.4,642.5z M657.6,624.3c0.6,0.9-1.1,3.3-3.9,5.8c-1.9-2.2-3.4-4.9-3.2-4.7c2,1.5,6.2,0.7,3.2-0.7
			c-0.2-0.1-0.4-0.2-0.6-0.4C655.4,624.2,657.4,624,657.6,624.3z M650.7,619.7c0.1,0,0.2,0,0.3,0.1c-0.1,0.1-0.2,0.2-0.3,0.3
			C650.5,619.8,650.5,619.7,650.7,619.7z M635.8,638.6c1.4,0.3,3,0.2,4.5,0c0.3,0.5,0.8,1,1.4,1.6c-1.1,0.9-2.4,1.7-4,2.3
			C634,639.9,632.7,638,635.8,638.6z M623.6,640c-0.8-0.3-1.6-0.7-2.2-1.1c0.4,0,0.7-0.1,1.1-0.2C624.4,638.2,624.6,638.8,623.6,640
			z M616.7,631.7C616.7,631.8,616.7,631.8,616.7,631.7c-0.1,0.1-0.3,0.2-0.5,0.3C616.3,631.6,616.4,631.5,616.7,631.7z M603.1,648
			c-1.1-0.5-2-1-2.8-1.6c0.1,0,0.2,0,0.3,0C602.7,646.3,603.4,646.9,603.1,648z M579.4,636c0.6,0.6,3,0.4,4.8-0.1
			c-0.6,0.6-1.3,1.1-1.9,1.4c-5.3,2.6,3.1,4.5,4.4,3.4c0.6-0.5,0.2,1.1-1.4,3C579,640.7,578.2,635,579.4,636z M568.8,636
			c0.5,0.1,0.4,0.7-0.1,1.5c-0.3-0.2-0.6-0.4-1-0.6c-0.5-0.2-1-0.6-1.4-1C567.5,636,568.6,636,568.8,636z M542.4,640.5
			c0.6,0.6,2.8,0.5,4.5-0.1c1.8,0.6,5.6-0.1,5.9,0.3c0.7,1-2.3,4.4-6.2,6.8C541.9,644.3,541.3,639.5,542.4,640.5z M489.5,652
			c-0.1-0.1-0.2-0.1-0.3-0.2C489.4,651.9,489.5,652,489.5,652z M480.1,643.9c2.6,0.6,5.8-0.1,8.4-1.1c-1.1,1.6-3.2,3.7-6.4,4.9
			C478.4,645.2,477,643.2,480.1,643.9z M468,630.1c-0.2-0.2-0.4-0.4-0.6-0.6c0.3-0.1,0.5-0.2,0.6-0.3
			C468.4,628.8,468.4,629.2,468,630.1z M462.1,622.2c0.9,0.7,2.2,1,3.3,1c-0.6,0.6-1.2,1.1-1.8,1.5
			C462.5,623.2,461.9,622,462.1,622.2z"/>
		
			<linearGradient id="SVGID_00000181070450102272263290000013066910187193596322_" gradientUnits="userSpaceOnUse" x1="-50.7808" y1="428.6582" x2="-50.7808" y2="689.4832" gradientTransform="matrix(1 0 0 -1 0 1148)">
			<stop  offset="0" style="stop-color:#1F6A6E"/>
			<stop  offset="1" style="stop-color:#2C707A"/>
		</linearGradient>
		<path style="fill:url(#SVGID_00000181070450102272263290000013066910187193596322_);" d="M294.7,691.4
			c-37.5,0-132.5,6.3-172.9,6.8c11.8-4.7,16.4-10.7,7.3-13.6c-24.2-7.6-47.1-25.3-34.7-22.7c12.2,2.6,31.3-8.1,23.6-9.4
			c-21.6-3.6-29-22.5-26-19.9c2.9,2.6,22.7-1.8,10.3-7.9c-7.8-3.8-17.8-20.6-16.7-19.8c5.4,4,16.5,1.9,8.7-1.9
			c-4.6-2.2-10-13.8-8.5-13.2c1.5,0.6,9.3-0.3,4.1-2.9c-5.2-2.6-5.1-11.2-8.2-13.7c-0.2-0.2-1-0.2-1.2,0c-3,2.4-3,11.1-8.2,13.7
			c-5.2,2.6,2.5,3.5,4.1,2.9c1.5-0.6-3.9,11-8.5,13.2c-7.8,3.8,3.2,5.9,8.7,1.9c1.1-0.8-8.9,16-16.7,19.8
			c-12.4,6.1,7.3,10.5,10.3,7.9c2.9-2.6-4.5,16.2-26,19.9c-7.6,1.3,11.5,12,23.6,9.4c8-1.7,1.4,5-10.7,12c-0.6-0.4-1.1-0.8-1.8-1.2
			c-26.2-17.4-32.7-30.3-17.5-27.1c14.9,3.2,25.2-11.5,15.9-13.1c-26.4-4.4-30.2-26.3-26.6-23.1c3.6,3.2,27.7-2.2,12.6-9.7
			c-9.5-4.7-21.8-25.2-20.4-24.3c6.7,4.8,20.2,2.3,10.6-2.4c-5.6-2.7-15-16.6-13.1-15.8c1.9,0.7,12.3-0.4,6-3.6
			c-6.4-3.1-4.5-15.2-8.2-18.2c-0.3-0.2-1.2-0.2-1.5,0c-3.7,3-1.9,14.7-8.2,17.9c-6.4,3.1,3.3,4.3,5.2,3.6
			c1.9-0.7-6.8,13.5-12.4,16.2c-0.6,0.3-1.1,0.6-1.6,0.9c-8.2-8.9-15.3-21.1-14.2-20.3c7.8,5.6,23.6,2.7,12.4-2.8
			c-6.5-3.2-14.3-19.7-12.1-18.9c2.2,0.9,13.2-0.4,5.8-4.1c-7.4-3.6-7.3-17.4-11.6-20.9c-0.3-0.3-1.4-0.3-1.7,0
			c-4.3,3.5-4.2,17.2-11.6,20.9c-7.4,3.6,3.6,4.9,5.8,4.1c2.2-0.9-5.6,15.7-12.1,18.9c-11.2,5.4,4.6,8.4,12.4,2.8
			c1.5-1.1-13.3,21.7-23.8,28.3c-0.8,0.5-1.6,1-2.3,1.5c-0.4-0.4-1.1-0.9-2.2-1.4c-4.6-2.2-10-13.8-8.5-13.2
			c1.5,0.6,9.3-0.3,4.1-2.9c-5.2-2.6-5.1-11.2-8.2-13.7c-0.2-0.2-1-0.2-1.2,0c-3,2.4-3,11.1-8.2,13.7c-5.2,2.6,2.5,3.5,4.1,2.9
			c1.5-0.6-3.9,11-8.5,13.2c-7.8,3.8,3.2,5.9,8.7,1.9c1-0.8-8.2,14.7-15.8,19.3c-21.3-8.3-24.3-27.4-20.6-24.1
			c4.2,3.7,32.3-2.6,14.7-11.3c-11.1-5.5-25.4-29.4-23.8-28.3c7.8,5.6,23.6,2.7,12.4-2.8c-6.5-3.2-14.3-19.7-12.1-18.9
			c2.2,0.9,13.2-0.4,5.8-4.1c-7.4-3.6-7.3-17.4-11.6-20.9c-0.3-0.3-1.4-0.3-1.7,0c-4.3,3.5-4.2,17.2-11.6,20.9
			c-7.4,3.6,3.6,4.9,5.8,4.1c2.2-0.8-5.6,15.7-12.1,18.9c-11.2,5.4,4.6,8.4,12.4,2.8c1.5-1.1-13.2,21.7-23.8,28.3
			c-22.5,14,12.3,10.7,14.7,11.3c5.7,1.6-14.1,20.7-31.4,26.8c-5.2-6.4-5.5-12.4-3.5-10.6c3.6,3.2,27.7-2.2,12.6-9.7
			c-9.5-4.7-21.8-25.2-20.4-24.3c6.7,4.8,20.2,2.3,10.6-2.4c-5.6-2.7-15-16.6-13.1-15.8c1.9,0.7,12.3-0.4,6-3.6
			c-6.4-3.1-4.5-15.2-8.2-18.2c-0.3-0.2-1.2-0.2-1.5,0c-3.7,3-1.9,14.7-8.2,17.9c-6.4,3.1,3.3,4.3,5.2,3.6
			c1.9-0.7-6.8,13.5-12.4,16.2c-9.6,4.7,4,7.2,10.6,2.4c1.3-1-12.2,17.3-20.4,24.3c-16.2,13.9,11.5,8.2,12.6,9.7
			c1,1.5-1.2,5.1-5.3,9.2c-22.1-10.3-29.5-30.3-25.6-26.8c4.7,4.2,36.3-2.9,16.5-12.7c-12.5-6.2-28.4-33-26.7-31.7
			c8.7,6.3,26.4,3,13.9-3.1c-7.3-3.6-16-22.1-13.6-21.2c2.5,1,14.9-0.5,6.5-4.6c-8.3-4.1-8.2-18-13.1-21.9c-0.4-0.3-1.5-0.3-1.9,0
			c-4.8,3.9-4.7,17.8-13.1,21.9c-8.3,4.1,4.1,5.5,6.5,4.6c2.5-1-6.2,17.6-13.6,21.2c-12.5,6.1,5.2,9.4,13.9,3.1
			c1.7-1.3-14.3,25.6-26.7,31.7c-19.8,9.8,11.8,16.9,16.5,12.7c4.7-4.2-7.2,26-41.7,31.8c-12.2,2,18.4,19.3,37.8,15.1
			c13.5-2.9,1,9.2-20.6,21.1c-32.9-22.5-42.2-42.2-22.2-41.2c8.6,0.4,33.4-15.3,21-17.3c-35-5.8-40-34.8-35.3-30.6
			c4.8,4.2,36.7-2.9,16.7-12.8c-12.6-6.2-28.8-33.4-27.1-32.1c8.8,6.4,26.8,3.1,14.1-3.1c-7.4-3.6-16.2-22.4-13.7-21.4
			s15-0.5,6.6-4.6c-8.4-4.1-8.3-19.8-13.2-23.7c-0.4-0.3-1.6-0.3-1.9,0c-4.9,4-4.8,19.6-13.2,23.7c-8.4,4.1,4.1,5.6,6.6,4.6
			s-6.3,17.8-13.7,21.4c-12.7,6.2,5.2,9.6,14.1,3.1c1.7-1.3-15,24.7-27.1,32.1c-25.6,15.9,14,12.1,16.7,12.8c5,1.4-7.2,14.6-22,23.7
			c-9.1-6.6-12.1-15.1-10-13.2c2.9,2.6,22.7-1.8,10.3-7.9c-7.8-3.8-17.8-20.6-16.7-19.8c5.4,4,16.5,1.9,8.7-1.9
			c-4.6-2.2-10-13.8-8.5-13.2c1.5,0.6,9.3-0.3,4.1-2.9c-5.2-2.6-5.1-11.2-8.2-13.7c-0.2-0.2-1-0.2-1.2,0c-3,2.4-3,11.1-8.2,13.7
			s2.5,3.5,4.1,2.9c1.5-0.6-3.9,11-8.5,13.2c-1.5,0.7-2.3,1.4-2.6,2c-10.6-6.5-23.3-27.9-21.9-26.8c7.6,5.5,23,2.6,12.1-2.7
			c-6.4-3.1-17.1-18.8-14.9-18c2.2,0.8,14-0.5,6.8-4c-7.2-3.6-5.1-17.3-9.3-20.7c-0.3-0.3-1.3-0.3-1.7,0c-4.2,3.4-2.1,16.7-9.3,20.3
			c-7.2,3.6,3.8,4.9,6,4c2.2-0.8-7.7,15.3-14.1,18.4c-10.9,5.3,4.5,8.2,12.1,2.7c1.5-1.1-13.9,19.6-23.2,27.6
			c-18.4,15.8,13.1,9.3,14.3,11c3,4.3-18.4,24.6-36.2,27.6c-10.6,1.8,5.7,17,22.6,13.4c17.3-3.7,0.9,13.7-28.9,31.5
			c-0.8,0.5-1.6,1-2.3,1.5c-17.7-3.8-30.3-6.7-34.4-7.2v101.4h995.4C373.4,719.3,334,691.4,294.7,691.4z M-103.9,638.1
			c5.3,2.3,12.6,4.1,18.3,2.8c5.8-1.2,3.9,2-2.3,6.5c-2.9-0.6-5.7-1.2-8.5-1.7C-99.3,643.1-101.9,640.5-103.9,638.1z M-61.4,611.7
			c0.7,0.7,2.6,0.9,4.7,0.7c-1.3,0.9-2.6,1.7-4,2.5C-62.2,612.3-62.4,610.8-61.4,611.7z M0.6,611c-0.8-0.6-1.5-1.3-2.2-1.9
			c1.1,0,1.9,0.1,2.1,0.3C0.7,609.8,0.7,610.4,0.6,611z M-54.1,649.3c-8.1-5.5-11.4-9.7-4.8-8.3c3.6,0.8,7.8,0.4,11.7-0.6
			C-48.2,642.7-50.6,645.8-54.1,649.3z M8.3,575.5c0.5-0.4-1.2,2.1-3.9,5.7c-1.3-0.8-2.7-1.9-4.1-3.1C2.9,577.9,6,577.1,8.3,575.5z
			 M-9,593.2c0.5,0.4,1.4,0.8,2.4,0.9c-1.1,1.2-2.1,2.2-3.1,3.2C-10.8,594-10.4,592-9,593.2z M-67.8,583.9c2.1,1.6,5.1,2.2,7.5,2.1
			c-9.4,9.2,18.2,6.6,20.3,7.2c3,0.8-1,6.5-8,12.6c-0.6-0.6-1.6-1.3-3.1-2C-58.9,599.9-68.9,583.2-67.8,583.9z M-100.6,621.3
			c4.1,0.2,12.5-3.8,17.5-7.8c-2.1,4.5-10.1,15-25.3,17.8C-111.7,624.9-109.3,620.9-100.6,621.3z M-383.4,604.3c8.5-0.5,9.8,3,6,8.7
			c-8.8-4.2-16.3-9-20.3-12.4C-392.1,602.9-386.5,604.5-383.4,604.3z M-423.6,572.5c-3.5-1.9-6.4-4-8.7-6.2c3.8,1.6,9.4,2,10.9,0.7
			C-420.2,565.9-420.8,568.7-423.6,572.5z M-436.1,595.5c4.1,1.1,8.5,1.5,12.3,0.7c6.8-1.5,3,3.2-5.7,8.9
			C-433.4,601.2-435.6,597.9-436.1,595.5z M-168.3,631.5c7,1.5,12.9-0.9,16.4-4.1c-1.9,3.5-6.4,8.3-12.9,13.6
			c-2.4,0.1-4.8,0.2-7.2,0.4C-178.8,633.7-177.8,629.5-168.3,631.5z M-218.7,641.9c-11-6.7-18.5-12.9-19.5-15.9
			c3.9,3.7,12.2,7.2,20.6,5.4C-208.5,629.4-210.1,634.3-218.7,641.9z M-415,539.2c0.5-0.4-1.6,3.4-4.7,7.8c1-1.6,0.4-3.5-2.8-5.7
			C-420.1,541.4-417.1,540.8-415,539.2z M-439.2,551c2.7,2.4,15.7,0.5,19.1-3.5c-3.3,4.6-7.7,9.7-11.6,11.6c-2.5,1.3-3.7,2.4-4,3.5
			C-441.2,555.5-441.4,549.1-439.2,551z"/>
		
			<linearGradient id="SVGID_00000101801516238453330580000016457554935747513482_" gradientUnits="userSpaceOnUse" x1="-495.9808" y1="825.8632" x2="-44.1806" y2="825.8632" gradientTransform="matrix(1 0 0 -1 0 1148)">
			<stop  offset="0" style="stop-color:#DABDD7"/>
			<stop  offset="1" style="stop-color:#FBDFD5"/>
		</linearGradient>
		<path style="opacity:0.5;fill:url(#SVGID_00000101801516238453330580000016457554935747513482_);enable-background:new    ;" d="
			M-448.9,297.1l-47.1,32.8l260,17.2l191.8-25h-205.1L-448.9,297.1z"/>
		
			<linearGradient id="SVGID_00000100374621500433056230000005398474570413080229_" gradientUnits="userSpaceOnUse" x1="124.1868" y1="704.4667" x2="595.8896" y2="657.7276" gradientTransform="matrix(1 0 0 -1 0 1148)">
			<stop  offset="0" style="stop-color:#DABDD7"/>
			<stop  offset="1" style="stop-color:#FBDFD5"/>
		</linearGradient>
		<path style="opacity:0.5;fill:url(#SVGID_00000100374621500433056230000005398474570413080229_);enable-background:new    ;" d="
			M596.3,485.9l-474.6-17.5l116.8-17.9l-43-4.3l291.5,8.1L596.3,485.9z"/>
		
			<linearGradient id="SVGID_00000076565180141026517060000010792083351906356621_" gradientUnits="userSpaceOnUse" x1="197.3192" y1="481.3632" x2="665.7192" y2="481.3632" gradientTransform="matrix(1 0 0 -1 0 1148)">
			<stop  offset="0" style="stop-color:#DABDD7"/>
			<stop  offset="1" style="stop-color:#FBDFD5"/>
		</linearGradient>
		<path style="opacity:0.2;fill:url(#SVGID_00000076565180141026517060000010792083351906356621_);enable-background:new    ;" d="
			M323.4,673.2L197.3,660l468.4,13.2H435.6H323.4z"/>
		
			<linearGradient id="SVGID_00000126315078420719611060000014048018213101815454_" gradientUnits="userSpaceOnUse" x1="113.9192" y1="563.7132" x2="549.5192" y2="563.7132" gradientTransform="matrix(1 0 0 -1 0 1148)">
			<stop  offset="0" style="stop-color:#DABDD7"/>
			<stop  offset="1" style="stop-color:#FBDFD5"/>
		</linearGradient>
		<path style="opacity:0.2;fill:url(#SVGID_00000126315078420719611060000014048018213101815454_);enable-background:new    ;" d="
			M549.5,600.6l-435.6-11.3l279.9-21.4L549.5,600.6z"/>
		
			<linearGradient id="SVGID_00000111872235916274356520000014339610433778043308_" gradientUnits="userSpaceOnUse" x1="-426.7808" y1="711.1632" x2="120.0192" y2="711.1632" gradientTransform="matrix(1 0 0 -1 0 1148)">
			<stop  offset="0" style="stop-color:#DABDD7"/>
			<stop  offset="1" style="stop-color:#FBDFD5"/>
		</linearGradient>
		<path style="opacity:0.5;fill:url(#SVGID_00000111872235916274356520000014339610433778043308_);enable-background:new    ;" d="
			M-426.8,427.3l248.4,19l298.4-19h-220.8H-426.8z"/>
		
			<linearGradient id="SVGID_00000100349857945524902410000010091436867861961888_" gradientUnits="userSpaceOnUse" x1="103.9192" y1="655.2632" x2="559.5192" y2="655.2632" gradientTransform="matrix(1 0 0 -1 0 1148)">
			<stop  offset="0" style="stop-color:#DABDD7"/>
			<stop  offset="1" style="stop-color:#FBDFD5"/>
		</linearGradient>
		<path style="opacity:0.5;fill:url(#SVGID_00000100349857945524902410000010091436867861961888_);enable-background:new    ;" d="
			M408.3,499.6H103.9l226.8-13.8l228.8,6.9L408.3,499.6z"/>
		
			<linearGradient id="SVGID_00000016791853984399302310000012673919853483326359_" gradientUnits="userSpaceOnUse" x1="-458.5808" y1="1105.1632" x2="162.8192" y2="1105.1632" gradientTransform="matrix(1 0 0 -1 0 1148)">
			<stop  offset="0" style="stop-color:#DABDD7"/>
			<stop  offset="1" style="stop-color:#FBDFD5"/>
		</linearGradient>
		<path style="opacity:0.3;fill:url(#SVGID_00000016791853984399302310000012673919853483326359_);enable-background:new    ;" d="
			M-458.6,74.9l88-72.8l533.4,81.4L-458.6,74.9z"/>
		
			<linearGradient id="SVGID_00000072269519198927350950000009315891728587962247_" gradientUnits="userSpaceOnUse" x1="90.5192" y1="982.8132" x2="706.8192" y2="982.8132" gradientTransform="matrix(1 0 0 -1 0 1148)">
			<stop  offset="0" style="stop-color:#DABDD7"/>
			<stop  offset="1" style="stop-color:#FBDFD5"/>
		</linearGradient>
		<path style="opacity:0.3;fill:url(#SVGID_00000072269519198927350950000009315891728587962247_);enable-background:new    ;" d="
			M706.8,221.2l-178.7-24.1L90.5,150.5l530.9-41.4L706.8,221.2z"/>
	</g>
</g>
<g id="bus_x5F_gross" class="st12">
	
		<image style="display:inline;overflow:visible;" width="1920" height="1080" xlink:href="../bus_V4.png"  transform="matrix(0.4427 0 0 0.4427 -385 304)">
	</image>
</g>
<g id="wiese">
	<path class="st27" d="M249,690.2C-54.5,678.3,38,438-54.5,332.8C-229.2,133.9-601,380-601,380l50,709l1502-16l-5-558
		c0,0-371-101-483,58.8C439.4,607.5,421.4,697,249,690.2z"/>
</g>
<g id="bus_x5F_klein">
	<g>
		<g>
			<path class="st27" d="M235.8,693.3c4.3,0,7.8-3.5,7.9-7.8c0-4.3-3.4-7.9-7.8-7.9c-4.3,0-7.9,3.5-7.9,7.8
				C228,689.8,231.5,693.3,235.8,693.3z"/>
			<path class="st27" d="M235.8,690.8c2.8,0,5.3-2.3,5.3-5.3c0-2.9-2.3-5.3-5.3-5.3c-3.1,0-5.3,2.5-5.3,5.3
				C230.5,688.4,232.9,690.8,235.8,690.8z"/>
			<path class="st27" d="M235.8,688.4c1.6,0,2.9-1.2,2.9-3c0-1.8-1.5-2.9-3-2.9c-1.5,0-2.9,1.2-2.9,3
				C232.9,687.2,234.3,688.4,235.8,688.4z"/>
			<path class="st27" d="M233.5,663.7c-4.6,0-9.1,0-13.7,0c-0.1,0-0.3,0-0.4,0c-0.2,0-0.2,0-0.2,0.2c0,0.4,0,0.8,0,1.3
				c0,1.7,0,3.4,0.1,5.2c0.1,1.2,0.2,2.4,0.2,3.7c0.1,0.7,0.1,1.5,0.2,2.2c0.1,1.1,0.3,2.2,0.4,3.3c0.1,0.6,0.1,1.1,0.2,1.7
				c0,0.2,0,0.2,0.3,0.2c1,0,1.9,0,2.9,0c0.7,0,1.1,0.4,1.1,1.1c0,0.7,0,1.5,0,2.2c0,0.1,0,0.2,0,0.4c0,0.1,0.1,0.2,0.2,0.2
				c0.5,0,0.9-0.2,1.2-0.6c0.2-0.2,0.3-0.4,0.4-0.6c0.3-0.6,0.7-1.2,1-1.7c0.4-0.7,1-1.1,1.8-1.4c0.3-0.1,0.7-0.1,1-0.1
				c2.6,0,5.2,0,7.8,0c1,0,2.1,0,3.1,0c0.6,0,1.2,0.2,1.7,0.5c0.3,0.2,0.6,0.5,0.9,0.8c0.5,0.7,1.1,1.4,1.6,2.2
				c0.4,0.6,1,0.9,1.8,0.9c0.1,0,0.2,0,0.3,0c10,0,20,0,29.9,0c0.1,0,0.3,0,0.4,0c0.7,0,1.3-0.5,1.5-1.2c0-0.1,0-0.2,0.1-0.3
				c0.4-1.6,1-3.1,2-4.5c1.3-1.8,3-3,5.1-3.6c1.9-0.5,3.9-0.5,5.9,0c2,0.5,3.7,1.6,4.9,3.3c0.8,1,1.3,2.2,1.6,3.4
				c0.2,0.5,0.3,1,0.4,1.6c0.1,0.7,0.6,1.1,1.3,1.2c0.1,0,0.3,0,0.4,0c1.6,0,3.1,0,4.7,0c0.1,0,0.2,0,0.3,0c0.2,0,0.2,0,0.2-0.2
				c0-0.5,0-0.9,0-1.4c0-0.5,0-0.5-0.5-0.5c-1.5,0-3,0-4.4,0c-0.4,0-0.4,0-0.5-0.4c-0.4-2-1.2-3.8-2.4-5.4c-1.8-2.5-4.3-3.9-7.4-4.2
				c-0.7-0.1-1.4-0.1-2.1-0.1c-2.3,0-4.6,0-6.9,0c-0.2,0-0.3,0-0.5,0c-0.9-0.1-1.6-0.8-1.7-1.7c0-0.2,0-0.4,0-0.5c0-2.2,0-4.3,0-6.5
				c0-0.1,0-0.3,0-0.4c0-0.1-0.1-0.1-0.1-0.1c-0.4,0-0.8,0-1.2,0c-0.1,0-0.2,0.1-0.2,0.2c0,0.2,0,0.3,0,0.5c0,6,0,12,0,18
				c0,0.2,0,0.3,0,0.5c-0.1,0.4-0.3,0.7-0.8,0.7c-0.1,0-0.2,0-0.4,0c-9.3,0-18.6,0-27.9,0c-0.1,0-0.2,0-0.3,0
				c-0.5,0-0.8-0.3-0.8-0.8c0-0.1,0-0.3,0-0.4c0-6,1.5-12,0-17.9c2.4-1.3,0.1-0.7-0.7-0.7C242.6,663.7,238,663.7,233.5,663.7z"/>
			<path class="st27" d="M263.8,664.5c-4.8,0-9.5-2.2-14.2-2.2c-0.5,0-2.4,1.7-2.4,2.2c0,6.1-0.3,12.8-0.3,18.9
				c0,0.1,1.6,0.8,1.6,0.9c0,0.3,0.7-0.3,1-0.3c0.1,0,0.2,0,0.3,0c9.3,0,18.6,0,27.9,0c0.1,0,0.1,0,0.2,0c0.4,0,0.5-0.2,0.6-0.6
				c0-0.1,0-0.2,0-0.4c0-6,0-12,0-18c4.2-2.2,0.1-0.6-0.6-0.6C273.2,664.5,268.5,664.5,263.8,664.5z"/>
			<path class="st27" d="M233.7,664.2c4.6,0,9,0.6,13.6,0.6c0.6,0,3.7-2.4,3.7-3c0-4.9-3.2-8.8-3.2-13.6c0-0.1,0-0.3,0-0.4
				c0-0.1-0.1-0.2-0.2-0.2c-0.2,0-0.3,0-0.5,0c-8.5,0-17.1,0-25.6,0c-0.9,0-0.7-0.1-0.8,0.8c-0.2,1-0.3,1.9-0.4,2.9
				c-0.2,1.1-0.3,2.2-0.5,3.4c-0.2,1.3-0.3,2.6-0.4,3.9c-0.1,1.4-0.2,2.8-0.2,4.3c0,0.6-0.1,1.7,0.5,1.7
				C224.3,664.4,229.2,664.2,233.7,664.2z"/>
			<path class="st27" d="M263.1,648.1c13.8,0,27.2-0.4,41-0.4c0.2,0,0.7-0.5,0.8-0.5c0.7,0,1.1-0.5,1.2-1.1c0-0.3,0.1-0.7,0.1-1
				c0-0.2,0-0.4,0-0.7c0-0.4-0.1-0.4-0.5-0.5c-1.2-0.2-2.5-0.4-3.7-0.5c-1.7-0.2-3.5-0.4-5.2-0.5c-1.7-0.1-3.3-0.3-5-0.4
				c-1.9-0.1-3.8-0.2-5.7-0.3c-2.1-0.1-4.2-0.1-6.3-0.2c-3.1-0.1-6.2-0.1-9.3,0c-2.6,0-5.2,0-7.8,0.1c-2.6,0.1-5.2,0.1-7.8,0.2
				c-2.7,0.1-5.4,0.2-8.1,0.3c-2.1,0.1-4.2,0.2-6.2,0.3c-1.8,0.1-3.6,0.2-5.4,0.3c-1.9,0.1-3.8,0.2-5.6,0.3c-0.5,0-1.1,0.1-1.6,0.1
				c-1.2,0.1-2.5,0.2-3.7,0.2c-1.7,0.1-3.1,1.3-3.4,3c0,0.1,0,0.3,0,0.4c0,0.1-0.1,0.6,0,0.6c0.2,0,0.5,0.4,0.7,0.4
				C235.4,648.1,249.3,648.1,263.1,648.1z"/>
			<path class="st27" d="M291,663.8c-3.1,0-6.2,0-9.2,0c-0.9,0-1.7,0-2.6,0c-0.3,0-0.3,0-0.4,0.3c0,0.1,0,0.1,0,0.2
				c-1.2,2.1,0,4.4,0,6.6c0,0.1,0,0.3,0,0.4c0.1,0.7,0.6,1.3,1.4,1.3c0.2,0-0.1,1.4,0.1,1.4c2.3,0,4.8,0,7.2,0
				c0.9,0,1.8,0.2,2.7,0.3c2.8,0.5,5.4,0.4,7.1,2.7c0.9,1.2,1.6,2.6,2.1,4c0.2,0.5,0.3,1.1,0.5,1.6c0,0.1,0.1,0.2,0.2,0.2
				c0.1,0,0.2,0.8,0.3,0.8c1.4,0,2.9-0.1,4.3-0.1c0.1,0,0.3,0.5,0.4,0.5c0.1,0-0.1,0.6-0.1,0.5c0-0.1,0.4,1,0.4,0.9h2
				c0.2,0-0.2-2.4,0-2.4c0.7,0,6.4,0.1,6.4-0.6c-0.1-5.6-0.2-11.2-0.2-16.3c0-0.1-6.1-1.7-6.1-1.8c0-0.2-0.4,0.7-0.6,0.6
				c-0.1,0-0.2-0.1-0.2-0.1c-1.4-0.6-2.8-0.9-4.3-0.9C298.4,663.8,294.7,663.8,291,663.8z"/>
			<path class="st27" d="M262.2,664.6c4.8,0,9.5,1.7,14.3,1.7c0.5,0,5.1-0.9,5.1-1.5c3.9,0,2.5-17.3-1.4-17.3c0-0.1-3.2,0.4-3.2,0.3
				c0-0.1-0.1-0.2-0.2-0.2c-0.1,0-0.3,0-0.4,0c-4,0-7.9,0-11.9,0c-5.5,0-11,0-16.4,0c-0.1,0-0.3,0-0.4,0c-0.1,0-0.1,0.1-0.1,0.1
				c0,0.1,0,0.2,0,0.3c0,5,0,9.9,0,14.9c0,0.1,0,0.2,0,0.3c0,0.1,0,0.1,0.1,0.1c0.1,0,0.3,0,0.4,0
				C252.8,663.3,257.4,664.6,262.2,664.6z"/>
			<path class="st27" d="M289.2,693.3c4.3,0,7.8-3.5,7.9-7.8c0-4.3-3.4-7.9-7.8-7.9c-4.3,0-7.9,3.5-7.9,7.8
				C281.4,689.8,284.9,693.3,289.2,693.3z"/>
			<path class="st27" d="M294.1,664c0,0,0.5,0.1,0.5,0.1c4.8,1.1,8.8,1.1,13.3,1c0.1,0,2.3-1.7,2.5-1.7c0.1,0,0.2-1.1,0.1-1.2
				c-0.1-0.2-1.6-0.3-1.6-0.5c-2.5-4.9-4.6-10-7.1-15c-0.2-0.4-1.7,0.8-2.2,0.8c-6.4,0-12.7,0-19.1,0c-0.1,0-0.2,0-0.3,0
				c-0.2,0-0.2,0-0.2,0.2c0,0.1,0,0.2,0,0.4c0,0.9,0,1.8,0,2.7c0,4,0,7.9,0,11.9c0,0.1,0,0.3,0,0.4c0,0.1,0.1,0.1,0.1,0.1
				c0.1,0,0.3,0,0.4,0C284.7,664.5,289.6,664,294.1,664z"/>
			<path class="st27" d="M308.5,673.2c0,2.6,0,5.2,0,7.8c0,0.4,0,0.4,0.4,0.4c1.4,0,2.7,0,4.1,0c0.5,0,0.5,0,0.5-0.5
				c0-2.3,0-4.6,0-7c0-0.6,0-1.3-0.2-1.9c-0.5-2.9-2-5.1-4.5-6.8c-0.1,0-0.2-0.1-0.2-0.1c-0.1,0-0.1,0-0.1,0.1c0,0.1,0,0.3,0,0.4
				C308.5,668.2,308.5,670.7,308.5,673.2z"/>
			<path class="st27" d="M310.3,662.6c0,0,0.7,0.1,0.7,0.1c0.5,0,1.3,0.1,1.7,0c0.1,0,0.2-0.1,0.1-0.2c0-0.1,0-0.2-0.1-0.3
				c-1.2-4.8-4.1-10.2-7.5-13.8c-0.1-0.1-0.1-0.1-0.2-0.2c-0.1-0.1-0.2-0.1-0.3-0.1c-0.5,0-1.3-0.5-1.8-0.5c-0.6,0-1.3,1.7-1,2.3
				c0.1,0.1,0.5,0.4,0.6,0.6c1.2,2.3,2.6,5.3,3.7,7.5c0.7,1.4,1.3,2.7,2,4.1c0.2,0.4,0.2,0.6,0.7,0.6
				C309.6,662.9,309.9,662.6,310.3,662.6z"/>
			<path class="st27" d="M292.4,674.6c-0.9,0-3.7-1.2-4.5-1c-1.7,0.4-3.6,1.3-4.9,2.5c-0.3,0.3-1.7,1.3-2,1.7
				c-1,1.4-2.4,4.4-2.8,6.2c0,0.1,1.3,0.4,1.4,0.4c0.4,0,0.8,0,1.3,0c0.1,0,0.2-0.1,0.2-0.2c0-0.2,0.1-0.4,0.1-0.6
				c0.9-4,4.9-7,9.5-6.2c3.3,0.6,5.8,3.1,6.5,6.3c0,0.1,0.1,0.3,0.1,0.4c0,0.1,0.1,0.2,0.2,0.2c0.4,0,0.8,0,1.2,0
				c0.1,0,1.3-0.2,1.2-0.2c0-0.2,0-0.5-0.1-0.7c-0.3-1.5,0.1-3-0.7-4.2c-1.1-1.7-2.2-3.4-4.2-4C293.9,674.9,293.4,674.6,292.4,674.6
				z"/>
			<path class="st27" d="M310.2,686.2c1,0,1.9,0,2.9,0c0.1,0,0.3,0,0.4,0c0.8,0,1.4-0.6,1.5-1.4c0-0.5,0-1.1,0-1.6
				c-0.1-0.8-0.6-1.4-1.4-1.4c-0.1,0-0.2,0-0.3,0c-2,0-4.1,0-6.1,0c-0.6,0-0.8,0.2-0.8,0.8c0,1,0,2,0,3c0,0.1,0,0.2,0,0.3
				c0,0.3,0.2,0.4,0.5,0.5c0.1,0,0.2,0,0.4,0C308.2,686.2,309.2,686.2,310.2,686.2z"/>
			<path class="st27" d="M310.5,664.3c0.6,0,1.6-0.1,2.2-0.1c0.7,0,0.3-0.8,0.2-1.5c0,0,0,0,0,0c-0.1-0.2-0.1-0.2-0.3-0.2
				c-0.7,0-1.3,0-2,0c-0.3,0-0.5,0-0.8,0c-0.4,0-0.7-0.2-1-0.6c-0.1-0.1-0.1-0.2-0.2-0.3c-1.8-3.5-3.6-7-5.3-10.5
				c-0.2-0.3-0.3-0.6-0.5-1c-0.3-0.8,0.2-1.6,1-1.6c0.1,0,0.3,0,0.4,0c0.3,0,0.5,0,0.8,0c-0.1-0.3-0.3-0.4-0.5-0.6
				c-0.1-0.2-0.3-0.2-0.6-0.2c-1.1,0-2.1,0-3.2,0c-0.1,0-0.1,0-0.2,0c-0.1,0-0.1,0.1-0.1,0.1c0,0.1,0.1,0.2,0.2,0.3
				c0.5,1,1.1,2.1,1.6,3.1c1.6,3.2,3.2,6.3,4.8,9.5c0.4,0.8,0.8,1.5,1.2,2.3c0.2,0.3,0.2,0.4,0.6,0.4
				C309.4,663.3,309.8,664.3,310.5,664.3z"/>
			<path class="st27" d="M224.7,684c0-0.5,0-1,0-1.4c0-0.1,0-0.2,0-0.3c0-0.3,0.4-1.2,0.1-1.2c0,0-1-0.1-1.1-0.1c-0.9,0-1.9,0-2.8,0
				c-1,0-1.7,1.4-1.7,2.4c0,0.4,0,0.9,0,1.3c0,1,0.7,1.6,1.6,1.6c0,0,0.1,0,0.1,0c0.9,0,1.8,0,2.6,0c0.1,0,0.2,0,0.3,0
				c0.5,0,0.9-0.2,0.9-0.5c0-0.1,0-0.2,0-0.3C224.7,684.9,224.7,684.5,224.7,684z"/>
			<path class="st27" d="M313.5,668.2c0-1.1-0.1-2.2-0.2-3.3c0-0.3-0.1-0.7-0.1-1c0-0.2-0.1-0.2-0.3-0.2c-0.1,0-0.1,0-0.2,0
				c-1.3,0-2.5,0-3.8,0c-0.1,0-0.2,0-0.3,0c-0.1,0-0.2,0.1-0.2,0.2c0,0.2,0,0.4,0,0.6c0,0.1,0.1,0.2,0.2,0.3c0.1,0,0.1,0.1,0.2,0.1
				c2.1,1.3,3.6,3.2,4.5,5.5c0,0.1,0.1,0.2,0.1,0.2c0,0,0,0,0.1,0c0,0,0,0,0,0c0-0.1,0-0.1,0-0.2
				C313.5,669.7,313.5,668.9,313.5,668.2z"/>
			<path class="st27" d="M307.2,663.7c-0.2,0-0.4,0-0.6,0c0,0,0,0-0.1,0c0,0,0,0.1,0,0.1c0.5,0.2,0.9,0.4,1.4,0.6
				c0.1,0,0.1,0,0.1-0.1c0-0.1,0-0.2,0-0.4c0-0.2-0.1-0.2-0.2-0.2C307.6,663.7,307.4,663.7,307.2,663.7z"/>
			<path class="st27" d="M283.6,666.4c-0.5,0-1,0-1.6,0c-0.1,0-0.2,0-0.3,0c-0.3,0-0.6-0.3-0.6-0.7c0-0.3,0.3-0.6,0.6-0.6
				c0.1,0,0.2,0,0.3,0c1.1,0,2.1,0,3.2,0c0.1,0,0.1,0,0.2,0c0.4,0,0.6,0.3,0.6,0.7c0,0.3-0.3,0.6-0.6,0.6c-0.1,0-0.2,0-0.3,0
				C284.7,666.4,284.2,666.4,283.6,666.4z"/>
			<path class="st27" d="M283.6,665.4c-0.5,0-1,0-1.5,0c-0.1,0-0.2,0-0.3,0c-0.1,0-0.2,0.2-0.2,0.3c0,0.1,0.1,0.3,0.2,0.3
				c0.1,0,0.1,0,0.2,0c1.1,0,2.2,0,3.4,0c0.1,0,0.2,0,0.2,0c0.1,0,0.2-0.2,0.2-0.3c0-0.1-0.1-0.2-0.2-0.3c-0.1,0-0.2,0-0.3,0
				C284.7,665.4,284.1,665.4,283.6,665.4z"/>
			<path class="st27" d="M289.2,690.8c2.8,0,5.3-2.3,5.3-5.3c0-2.9-2.3-5.3-5.3-5.3c-3.1,0-5.3,2.5-5.3,5.3
				C283.9,688.4,286.3,690.8,289.2,690.8z"/>
			<path class="st27" d="M289.3,648.4c2.3,0,4.6,0,7,0c1.3,0,2.3,0.5,3.1,1.5c0.2,0.2,0.3,0.5,0.5,0.7c1.2,2.3,2.4,4.7,3.6,7
				c0.1,0.2,0.2,0.4,0.3,0.6c0.1,0.2,0.1,0.2,0.2,0.1c0,0,0.1-0.1,0.1-0.1c0.3-0.2,0.7,0,0.8,0.3c0,0.1,0,0.2,0,0.4
				c0,0.2,0,0.4,0,0.6c0,0.1,0,0.2,0.2,0.2c0.4,0.1,0.5,0.2,0.6,0.7c0,0.6,0,1.2,0,1.8c0,0.2,0,0.4-0.2,0.5
				c-0.2,0.2-0.4,0.1-0.6,0.2c-0.2,0.1-0.2,0.3-0.4,0.3c-0.3,0-0.5-0.1-0.6-0.4c0-0.1,0-0.1,0-0.2c0-0.1-0.1-0.1-0.2-0.1
				c-0.1,0-0.3,0-0.4,0c-6.9,0-13.7,0-20.6,0c-0.2,0-0.3,0-0.5,0c-0.5,0-0.8-0.4-0.9-0.8c0-0.1,0-0.2,0-0.4c0-3.9,0-7.7,0-11.6
				c0-0.1,0-0.2,0-0.3c0-0.5,0.4-0.9,0.9-0.9c0.1,0,0.2,0,0.4,0C284.7,648.4,287,648.4,289.3,648.4z"/>
			<path class="st27" d="M292.9,662.1c3.4,0,6.9,0,10.3,0c0.1,0,0.3,0,0.4,0c0.1,0,0.1-0.1,0.1-0.1c0-0.1,0-0.2,0-0.3
				c0-0.7,0-1.3,0-2c0-0.3-0.1-0.5-0.2-0.7c-0.6-1.1-1.1-2.2-1.7-3.3c-0.8-1.6-1.6-3.2-2.4-4.8c-0.7-1.3-1.8-2-3.3-2
				c-4.6,0-9.2,0-13.8,0c-0.1,0-0.2,0-0.3,0c-0.3,0-0.5,0.2-0.5,0.5c0,0.1,0,0.2,0,0.3c0,0.4,0,0.8,0,1.3c0,3.4,0,6.8,0,10.2
				c0,0.2,0,0.3,0,0.5c0,0.3,0.2,0.5,0.5,0.5c0.1,0,0.3,0,0.4,0C286,662.1,289.4,662.1,292.9,662.1z"/>
			<path class="st27" d="M304.5,660.6L304.5,660.6c0-0.2,0-0.4,0-0.5c0-0.4,0-0.8,0-1.3c0-0.1,0-0.2-0.1-0.3c-0.1-0.1-0.2-0.1-0.3,0
				c-0.1,0.1-0.1,0.2-0.1,0.3c0,1.2,0,2.4,0,3.5c0,0.1,0,0.1,0,0.2c0,0.1,0.1,0.2,0.2,0.2c0.1,0,0.2-0.1,0.2-0.2c0-0.1,0-0.1,0-0.2
				C304.5,661.8,304.5,661.2,304.5,660.6z"/>
			<path class="st27" d="M305.3,661.2c0-0.3,0-0.6,0-0.8c0-0.1,0-0.2-0.1-0.3c-0.1-0.1-0.2-0.1-0.2,0c-0.1,0.1-0.1,0.2-0.1,0.3
				c0,0.5,0,1.1,0,1.6c0,0.1,0,0.2,0,0.3c0,0.1,0.1,0.1,0.1,0.1c0.1,0,0.1,0,0.1-0.1c0.1-0.1,0.1-0.2,0.1-0.3
				C305.3,661.8,305.3,661.5,305.3,661.2z"/>
			<path class="st27" d="M310.2,673.4c0-0.6,0.1-1.1,0.2-1.6c0.1-0.2,0.1-0.4,0.3-0.6c0.1-0.1,0.2-0.2,0.3-0.3
				c0.3-0.2,0.6-0.2,0.8,0c0.1,0.1,0.2,0.3,0.3,0.4c0.2,0.3,0.2,0.6,0.3,0.9c0.2,0.9,0.2,1.8-0.1,2.6c-0.1,0.2-0.1,0.4-0.2,0.6
				c-0.1,0.2-0.2,0.3-0.3,0.4c-0.3,0.3-0.7,0.3-1,0c-0.2-0.1-0.3-0.3-0.3-0.5c-0.1-0.3-0.2-0.6-0.3-0.9c0-0.1,0-0.3,0-0.4
				C310.2,673.8,310.2,673.6,310.2,673.4z"/>
			<path class="st27" d="M310.5,673.5c0,0.1,0,0.3,0,0.5c0,0.4,0.1,0.8,0.2,1.1c0.1,0.2,0.1,0.3,0.3,0.5c0.2,0.2,0.4,0.2,0.6,0
				c0.1-0.1,0.2-0.3,0.3-0.5c0.1-0.3,0.2-0.7,0.2-1c0.1-0.7,0-1.4-0.2-2.1c-0.1-0.2-0.1-0.4-0.3-0.5c-0.2-0.3-0.5-0.3-0.7,0
				c-0.1,0.2-0.2,0.4-0.3,0.6C310.6,672.4,310.6,672.9,310.5,673.5z"/>
			<path class="st27" d="M275.7,649.7c0-0.1,0-0.2,0-0.3c0-0.4-0.2-0.6-0.6-0.6c-0.1,0-0.3,0-0.4,0c-7.8,0-15.6,0-23.5,0
				c-0.1,0-0.1,0-0.2,0c-0.7,0-0.9,0.3-0.9,0.9c0,3.9,0,7.7,0,11.6c0,0.1,0,0.2,0,0.4c0.1,0.3,0.3,0.5,0.6,0.5c0.1,0,0.3,0,0.4,0
				c3.9,0,7.9,0,11.8,0c3.9,0,7.9,0,11.8,0c0.1,0,0.3,0,0.4,0c0.4,0,0.6-0.2,0.6-0.6c0-0.1,0-0.2,0-0.4
				C275.7,657.3,275.7,653.5,275.7,649.7z M275,660.6c0,0.5-0.3,0.8-0.8,0.8c-0.1,0-0.3,0-0.4,0c-3.7,0-7.4,0-11,0
				c-3.6,0-7.3,0-10.9,0c-0.1,0-0.3,0-0.4,0c-0.4,0-0.7-0.4-0.8-0.8c0-0.1,0-0.2,0-0.3c0-3.3,0-6.6,0-9.8c0-0.1,0-0.1,0-0.2
				c0-0.5,0.3-0.8,0.8-0.9c0.2,0,0.3,0,0.5,0c4.6,0,9.2,0,13.8,0c2.7,0,5.4,0,8.1,0c0.1,0,0.3,0,0.4,0c0.5,0.1,0.8,0.4,0.8,0.9
				c0,0.1,0,0.2,0,0.3c0,3.2,0,6.4,0,9.6C275,660.4,275,660.5,275,660.6z"/>
			<path class="st27" d="M262.8,661.1c3.6,0,7.3,0,10.9,0c0.1,0,0.3,0,0.4,0c0.3,0,0.5-0.2,0.5-0.5c0-0.1,0-0.2,0-0.3
				c0-3.2,0-6.4,0-9.6c0-0.1,0-0.2,0-0.3c0-0.3-0.2-0.5-0.5-0.5c-0.2,0-0.3,0-0.5,0c-6.1,0-12.2,0-18.3,0c-1.2,0-2.4,0-3.5,0
				c-0.1,0-0.3,0-0.4,0c-0.3,0.1-0.4,0.2-0.4,0.5c0,0.1,0,0.2,0,0.3c0,3.2,0,6.4,0,9.6c0,0.1,0,0.1,0,0.2c0,0.4,0.2,0.7,0.7,0.6
				c0.1,0,0.2,0,0.4,0C255.6,661.1,259.2,661.1,262.8,661.1z"/>
			<path class="st27" d="M289.2,688.4c1.6,0,2.9-1.2,2.9-3c0-1.8-1.5-2.9-3-2.9c-1.5,0-2.9,1.2-2.9,3
				C286.3,687.2,287.7,688.4,289.2,688.4z"/>
			<polyline class="st27" points="219.1,668.2 247.9,668.2 247.9,671.1 219.3,671.1 			"/>
			<rect x="248.2" y="668.2" class="st27" width="29.5" height="2.9"/>
			<polyline class="st27" points="219.4,672.4 247.9,672.4 247.9,675.3 219.6,675.3 			"/>
			<rect x="248.2" y="672.4" class="st27" width="29.5" height="2.9"/>
		</g>
		<g>
			<path class="st27" d="M235.8,693.3c4.3,0,7.8-3.5,7.9-7.8c0-4.3-3.4-7.9-7.8-7.9c-4.3,0-7.9,3.5-7.9,7.8
				C228,689.8,231.5,693.4,235.8,693.3z"/>
			<path class="st27" d="M235.8,690.8c2.8,0,5.3-2.3,5.3-5.3c0-2.9-2.3-5.3-5.3-5.3c-3.1,0-5.3,2.5-5.3,5.3
				C230.5,688.4,232.9,690.8,235.8,690.8z"/>
			<path class="st27" d="M235.8,688.4c1.6,0,2.9-1.2,2.9-3c0-1.8-1.5-2.9-3-2.9c-1.5,0-2.9,1.2-2.9,3
				C232.9,687.3,234.3,688.4,235.8,688.4z"/>
			<path class="st27" d="M233.5,663.7c-4.6,0-9.1,0-13.7,0c-0.1,0-0.3,0-0.4,0c-0.2,0-0.2,0-0.2,0.2c0,0.4,0,0.8,0,1.3
				c0,1.7,0,3.4,0.1,5.2c0.1,1.2,0.2,2.4,0.2,3.7c0.1,0.7,0.1,1.5,0.2,2.2c0.1,1.1,0.3,2.2,0.4,3.3c0.1,0.6,0.1,1.1,0.2,1.7
				c0,0.2,0,0.2,0.3,0.2c1,0,1.9,0,2.9,0c0.7,0,1.1,0.4,1.1,1.1c0,0.7,0,1.5,0,2.2c0,0.1,0,0.2,0,0.4c0,0.1,0.1,0.2,0.2,0.2
				c0.5,0,0.9-0.2,1.2-0.6c0.2-0.2,0.3-0.4,0.4-0.6c0.3-0.6,0.7-1.2,1-1.7c0.4-0.7,1-1.1,1.8-1.4c0.3-0.1,0.7-0.1,1-0.1
				c2.6,0,5.2,0,7.8,0c1,0,2.1,0,3.1,0c0.6,0,1.2,0.2,1.7,0.5c0.3,0.2,0.6,0.5,0.9,0.8c0.5,0.7,1.1,1.4,1.6,2.2
				c0.4,0.6,1,0.9,1.8,0.9c0.1,0,0.2,0,0.3,0c10,0,20,0,29.9,0c0.1,0,0.3,0,0.4,0c0.7,0,1.3-0.5,1.5-1.2c0-0.1,0-0.2,0.1-0.3
				c0.4-1.6,1-3.1,2-4.5c1.3-1.8,3-3,5.1-3.6c1.9-0.5,3.9-0.5,5.9,0c2,0.5,3.7,1.6,4.9,3.3c0.8,1,1.3,2.2,1.6,3.4
				c0.2,0.5,0.3,1,0.4,1.6c0.1,0.7,0.6,1.1,1.3,1.2c0.1,0,0.3,0,0.4,0c1.6,0,3.1,0,4.7,0c0.1,0,0.2,0,0.3,0c0.2,0,0.2,0,0.2-0.2
				c0-0.5,0-0.9,0-1.4c0-0.5,0-0.5-0.5-0.5c-1.5,0-3,0-4.4,0c-0.4,0-0.4,0-0.5-0.4c-0.4-2-1.2-3.8-2.4-5.4c-1.8-2.5-4.3-3.9-7.4-4.2
				c-0.7-0.1-1.4-0.1-2.1-0.1c-2.3,0-4.6,0-6.9,0c-0.2,0-0.3,0-0.5,0c-0.9-0.1-1.6-0.8-1.7-1.7c0-0.2,0-0.4,0-0.5c0-2.2,0-4.3,0-6.5
				c0-0.1,0-0.3,0-0.4c0-0.1-0.1-0.1-0.1-0.1c-0.4,0-0.8,0-1.2,0c-0.1,0-0.2,0.1-0.2,0.2c0,0.2,0,0.3,0,0.5c0,6,0,12,0,18
				c0,0.2,0,0.3,0,0.5c-0.1,0.4-0.3,0.7-0.8,0.7c-0.1,0-0.2,0-0.4,0c-9.3,0-18.6,0-27.9,0c-0.1,0-0.2,0-0.3,0
				c-0.5,0-0.8-0.3-0.8-0.8c0-0.1,0-0.3,0-0.4c0-6,0-11.9,0-17.9c0-0.8,0.1-0.7-0.7-0.7C242.6,663.7,238.1,663.7,233.5,663.7z"/>
			<path class="st27" d="M263,663.7c-4.8,0-9.5,0-14.3,0c-0.5,0-0.5,0-0.5,0.5c0,6.1,0,12.1,0,18.2c0,0.1,0,0.2,0,0.3
				c0,0.3,0.2,0.5,0.5,0.5c0.1,0,0.2,0,0.3,0c9.3,0,18.6,0,27.9,0c0.1,0,0.1,0,0.2,0c0.4,0,0.5-0.2,0.6-0.6c0-0.1,0-0.2,0-0.4
				c0-6,0-12,0-18c0-0.7,0.1-0.6-0.6-0.6C272.4,663.7,267.7,663.7,263,663.7z"/>
			<path class="st27" d="M233.5,663.3c4.6,0,9.2,0,13.8,0c0.6,0,0.5,0.1,0.5-0.6c0-4.9,0-9.7,0-14.6c0-0.1,0-0.3,0-0.4
				c0-0.1-0.1-0.2-0.2-0.2c-0.2,0-0.3,0-0.5,0c-8.5,0-17.1,0-25.6,0c-0.9,0-0.7-0.1-0.8,0.8c-0.2,1-0.3,1.9-0.4,2.9
				c-0.2,1.1-0.3,2.2-0.5,3.4c-0.2,1.3-0.3,2.6-0.4,3.9c-0.1,1.4-0.2,2.8-0.2,4.3c0,0.6-0.1,0.6,0.6,0.6
				C224.3,663.3,228.9,663.3,233.5,663.3z"/>
			<path class="st27" d="M263.1,647.2c13.8,0,27.6,0,41.4,0c0.2,0,0.3,0,0.5,0c0.7,0,1.1-0.5,1.2-1.1c0-0.3,0.1-0.7,0.1-1
				c0-0.2,0-0.4,0-0.7c0-0.4-0.1-0.4-0.5-0.5c-1.2-0.2-2.5-0.4-3.7-0.5c-1.7-0.2-3.5-0.4-5.2-0.5c-1.7-0.1-3.3-0.3-5-0.4
				c-1.9-0.1-3.8-0.2-5.7-0.3c-2.1-0.1-4.2-0.1-6.3-0.2c-3.1-0.1-6.2-0.1-9.3,0c-2.6,0-5.2,0-7.8,0.1c-2.6,0.1-5.2,0.1-7.8,0.2
				c-2.7,0.1-5.4,0.2-8.1,0.3c-2.1,0.1-4.2,0.2-6.2,0.3c-1.8,0.1-3.6,0.2-5.4,0.3c-1.9,0.1-3.8,0.2-5.6,0.3c-0.5,0-1.1,0.1-1.6,0.1
				c-1.2,0.1-2.5,0.2-3.7,0.2c-1.7,0.1-3.1,1.3-3.4,3c0,0.1,0,0.3,0,0.4c0,0.1,0,0.1,0.1,0.1c0.2,0,0.4,0,0.5,0
				C235.4,647.2,249.2,647.2,263.1,647.2z"/>
			<path class="st27" d="M292.2,663.7c-3.1,0-6.2,0-9.2,0c-0.9,0-1.7,0-2.6,0c-0.3,0-0.3,0-0.4,0.3c0,0.1,0,0.1,0,0.2
				c0,2.2,0,4.4,0,6.6c0,0.1,0,0.3,0,0.4c0.1,0.7,0.6,1.3,1.4,1.3c0.2,0,0.3,0,0.5,0c2.3,0,4.6,0,6.9,0c0.9,0,1.8,0.1,2.7,0.2
				c2.8,0.5,5.1,1.9,6.9,4.2c0.9,1.2,1.6,2.6,2.1,4c0.2,0.5,0.3,1.1,0.5,1.6c0,0.1,0.1,0.2,0.2,0.2c0.1,0,0.2,0,0.3,0
				c1.4,0,2.8,0,4.2,0c0.1,0,0.2,0,0.3,0c0.1,0,0.2,0,0.2-0.2c0-0.1,0-0.2,0-0.4c0-0.6,0.4-0.9,0.9-0.9c0.2,0,0.3,0,0.5,0
				c0.7,0,0.6,0.1,0.6-0.6c0-5.1,0-10.2,0-15.3c0-0.1,0-0.2,0-0.3c0-0.2-0.1-0.4-0.3-0.4c-0.1,0-0.2-0.1-0.2-0.1
				c-1.4-0.6-2.8-0.9-4.3-0.9C299.6,663.7,295.9,663.7,292.2,663.7z"/>
			<path class="st27" d="M262.9,663.3c4.8,0,9.5,0,14.3,0c0.5,0,0.5,0.1,0.5-0.5c0-4.9,0-9.8,0-14.7c0-0.1,0-0.2,0-0.4
				c0-0.1-0.1-0.2-0.2-0.2c-0.1,0-0.3,0-0.4,0c-4,0-7.9,0-11.9,0c-5.5,0-11,0-16.4,0c-0.1,0-0.3,0-0.4,0c-0.1,0-0.1,0.1-0.1,0.1
				c0,0.1,0,0.2,0,0.3c0,5,0,9.9,0,14.9c0,0.1,0,0.2,0,0.3c0,0.1,0,0.1,0.1,0.1c0.1,0,0.3,0,0.4,0
				C253.5,663.3,258.2,663.3,262.9,663.3z"/>
			<path class="st27" d="M289.2,693.3c4.3,0,7.8-3.5,7.9-7.8c0-4.3-3.4-7.9-7.8-7.9c-4.3,0-7.9,3.5-7.9,7.8
				C281.4,689.8,284.9,693.4,289.2,693.3z"/>
			<path class="st27" d="M293.9,663.3C293.9,663.3,293.9,663.3,293.9,663.3c4.5,0,8.9,0,13.4,0c0.1,0,0.3,0,0.4,0
				c0.1,0,0.1-0.1,0.1-0.1c-0.1-0.2-0.1-0.3-0.2-0.4c-2.5-4.9-5-9.8-7.5-14.8c-0.2-0.4-0.2-0.4-0.6-0.4c-6.4,0-12.7,0-19.1,0
				c-0.1,0-0.2,0-0.3,0c-0.2,0-0.2,0-0.2,0.2c0,0.1,0,0.2,0,0.4c0,0.9,0,1.8,0,2.7c0,4,0,7.9,0,11.9c0,0.1,0,0.3,0,0.4
				c0,0.1,0.1,0.1,0.1,0.1c0.1,0,0.3,0,0.4,0C285,663.3,289.5,663.3,293.9,663.3z"/>
			<path class="st27" d="M308.5,673.2c0,2.6,0,5.2,0,7.8c0,0.4,0,0.4,0.4,0.4c1.4,0,2.7,0,4.1,0c0.5,0,0.5,0,0.5-0.5
				c0-2.3,0-4.6,0-7c0-0.6,0-1.3-0.2-1.9c-0.5-2.9-2-5.1-4.5-6.8c-0.1,0-0.2-0.1-0.2-0.1c-0.1,0-0.1,0-0.1,0.1c0,0.1,0,0.3,0,0.4
				C308.5,668.2,308.5,670.7,308.5,673.2z"/>
			<path class="st27" d="M311.2,662.1C311.2,662.1,311.2,662.1,311.2,662.1c0.5,0,0.9,0,1.4,0c0.1,0,0.2-0.1,0.1-0.2
				c0-0.1,0-0.2-0.1-0.3c-1.2-4.8-3.4-9-6.8-12.5c-0.1-0.1-0.1-0.1-0.2-0.2c-0.1-0.1-0.2-0.1-0.3-0.1c-0.5,0-1,0-1.5,0
				c-0.6,0-1,0.6-0.7,1.2c0.1,0.1,0.1,0.3,0.2,0.4c1.2,2.3,2.3,4.6,3.5,6.9c0.7,1.4,1.4,2.8,2.1,4.2c0.2,0.4,0.5,0.6,0.9,0.6
				C310.4,662.1,310.8,662.1,311.2,662.1z"/>
			<path class="st27" d="M289.4,675.7c-0.9,0-1.7,0.1-2.5,0.3c-1.7,0.4-3.1,1.1-4.3,2.4c-0.3,0.3-0.6,0.7-0.9,1.1
				c-1,1.4-1.7,3-2,4.7c0,0.1,0,0.2,0.1,0.2c0.4,0,0.8,0,1.3,0c0.1,0,0.2-0.1,0.2-0.2c0-0.2,0.1-0.4,0.1-0.6c0.9-4,4.9-7,9.5-6.2
				c3.3,0.6,5.8,3.1,6.5,6.3c0,0.1,0.1,0.3,0.1,0.4c0,0.1,0.1,0.2,0.2,0.2c0.4,0,0.8,0,1.2,0c0.1,0,0.1-0.1,0.1-0.1
				c0-0.2-0.1-0.4-0.1-0.6c-0.3-1.5-0.8-2.8-1.6-4.1c-1.1-1.7-2.7-2.9-4.7-3.5C291.3,675.8,290.4,675.7,289.4,675.7z"/>
			<path class="st27" d="M310.2,686.2c1,0,1.9,0,2.9,0c0.1,0,0.3,0,0.4,0c0.8,0,1.4-0.6,1.5-1.4c0-0.5,0-1.1,0-1.6
				c-0.1-0.8-0.6-1.4-1.4-1.4c-0.1,0-0.2,0-0.3,0c-2,0-4.1,0-6.1,0c-0.6,0-0.8,0.2-0.8,0.8c0,1,0,2,0,3c0,0.1,0,0.2,0,0.3
				c0,0.3,0.2,0.4,0.5,0.5c0.1,0,0.2,0,0.4,0C308.2,686.2,309.2,686.2,310.2,686.2z"/>
			<path class="st27" d="M310.7,663.3c0.6,0,1.2,0,1.7,0c0.7,0,0.6,0.1,0.5-0.6c0,0,0,0,0,0c-0.1-0.2-0.1-0.2-0.3-0.2
				c-0.7,0-1.3,0-2,0c-0.3,0-0.5,0-0.8,0c-0.4,0-0.7-0.2-1-0.6c-0.1-0.1-0.1-0.2-0.2-0.3c-1.8-3.5-3.6-7-5.3-10.5
				c-0.2-0.3-0.3-0.6-0.5-1c-0.3-0.8,0.2-1.6,1-1.6c0.1,0,0.3,0,0.4,0c0.3,0,0.5,0,0.8,0c-0.1-0.3-0.3-0.4-0.5-0.6
				c-0.1-0.2-0.3-0.2-0.6-0.2c-1.1,0-2.1,0-3.2,0c-0.1,0-0.1,0-0.2,0c-0.1,0-0.1,0.1-0.1,0.1c0,0.1,0.1,0.2,0.2,0.3
				c0.5,1,1.1,2.1,1.6,3.1c1.6,3.2,3.2,6.3,4.8,9.5c0.4,0.8,0.8,1.5,1.2,2.3c0.2,0.3,0.2,0.4,0.6,0.4
				C309.4,663.3,310,663.3,310.7,663.3z"/>
			<path class="st27" d="M278.1,655.5c0,2.4,0,4.8,0,7.1c0,0.1,0,0.2,0,0.3c0,0.4,0,0.4,0.4,0.4c0.2,0,0.4,0,0.6,0
				c0.6,0,0.6,0.1,0.6-0.6c0-4.9,0-9.8,0-14.6c0-0.1,0-0.1,0-0.2c0-0.3,0-0.3-0.3-0.3c-0.2,0-0.4,0-0.7,0c-0.6,0-0.6-0.1-0.6,0.6
				C278.1,650.6,278.1,653,278.1,655.5z"/>
			<path class="st27" d="M224.2,684c0-0.5,0-1,0-1.4c0-0.1,0-0.2,0-0.3c0-0.3-0.2-0.5-0.5-0.5c0,0-0.1,0-0.1,0c-0.9,0-1.9,0-2.8,0
				c-1,0-1.6,0.6-1.6,1.6c0,0.4,0,0.9,0,1.3c0,1,0.7,1.6,1.6,1.6c0,0,0.1,0,0.1,0c0.9,0,1.8,0,2.6,0c0.1,0,0.2,0,0.3,0
				c0.3,0,0.4-0.2,0.5-0.5c0-0.1,0-0.2,0-0.3C224.2,684.9,224.2,684.5,224.2,684z"/>
			<path class="st27" d="M313.5,668.2c0-1.1-0.1-2.2-0.2-3.3c0-0.3-0.1-0.7-0.1-1c0-0.2-0.1-0.2-0.3-0.2c-0.1,0-0.1,0-0.2,0
				c-1.3,0-2.5,0-3.8,0c-0.1,0-0.2,0-0.3,0c-0.1,0-0.2,0.1-0.2,0.2c0,0.2,0,0.4,0,0.6c0,0.1,0.1,0.2,0.2,0.3c0.1,0,0.1,0.1,0.2,0.1
				c2.1,1.3,3.6,3.2,4.5,5.5c0,0.1,0.1,0.2,0.1,0.2c0,0,0,0,0.1,0c0,0,0,0,0,0c0-0.1,0-0.1,0-0.2
				C313.5,669.7,313.5,668.9,313.5,668.2z"/>
			<path class="st27" d="M307.2,663.7c-0.2,0-0.4,0-0.6,0c0,0,0,0-0.1,0c0,0,0,0.1,0,0.1c0.5,0.2,0.9,0.4,1.4,0.6
				c0.1,0,0.1,0,0.1-0.1c0-0.1,0-0.2,0-0.4c0-0.2-0.1-0.2-0.2-0.2C307.6,663.7,307.4,663.7,307.2,663.7z"/>
			<path class="st27" d="M283.7,666.4c-0.5,0-1,0-1.6,0c-0.1,0-0.2,0-0.3,0c-0.3,0-0.6-0.3-0.6-0.7c0-0.3,0.3-0.6,0.6-0.6
				c0.1,0,0.2,0,0.3,0c1.1,0,2.1,0,3.2,0c0.1,0,0.1,0,0.2,0c0.4,0,0.6,0.3,0.6,0.7c0,0.3-0.3,0.6-0.6,0.6c-0.1,0-0.2,0-0.3,0
				C284.7,666.4,284.2,666.4,283.7,666.4z"/>
			<path class="st27" d="M283.6,665.4c-0.5,0-1,0-1.5,0c-0.1,0-0.2,0-0.3,0c-0.1,0-0.2,0.2-0.2,0.3c0,0.1,0.1,0.3,0.2,0.3
				c0.1,0,0.1,0,0.2,0c1.1,0,2.2,0,3.4,0c0.1,0,0.2,0,0.2,0c0.1,0,0.2-0.2,0.2-0.3c0-0.1-0.1-0.2-0.2-0.3c-0.1,0-0.2,0-0.3,0
				C284.7,665.4,284.2,665.4,283.6,665.4z"/>
			<path class="st27" d="M289.2,690.8c2.8,0,5.3-2.3,5.3-5.3c0-2.9-2.3-5.3-5.3-5.3c-3.1,0-5.3,2.5-5.3,5.3
				C283.9,688.4,286.3,690.8,289.2,690.8z"/>
			<path class="st27" d="M289.3,648.4c2.3,0,4.6,0,7,0c1.3,0,2.3,0.5,3.1,1.5c0.2,0.2,0.3,0.5,0.5,0.7c1.2,2.3,2.4,4.7,3.6,7
				c0.1,0.2,0.2,0.4,0.3,0.6c0.1,0.2,0.1,0.2,0.2,0.1c0,0,0.1-0.1,0.1-0.1c0.3-0.2,0.7,0,0.8,0.3c0,0.1,0,0.2,0,0.4
				c0,0.2,0,0.4,0,0.6c0,0.1,0,0.2,0.2,0.2c0.4,0.1,0.5,0.2,0.6,0.7c0,0.6,0,1.2,0,1.8c0,0.2,0,0.4-0.2,0.5
				c-0.2,0.2-0.4,0.1-0.6,0.2c-0.2,0.1-0.2,0.3-0.4,0.3c-0.3,0-0.5-0.1-0.6-0.4c0-0.1,0-0.1,0-0.2c0-0.1-0.1-0.1-0.2-0.1
				c-0.1,0-0.3,0-0.4,0c-6.9,0-13.7,0-20.6,0c-0.2,0-0.3,0-0.5,0c-0.5,0-0.8-0.4-0.9-0.8c0-0.1,0-0.2,0-0.4c0-3.9,0-7.7,0-11.6
				c0-0.1,0-0.2,0-0.3c0-0.5,0.4-0.9,0.9-0.9c0.1,0,0.2,0,0.4,0C284.7,648.4,287,648.4,289.3,648.4z"/>
			<path class="st27" d="M292.9,662.1c3.4,0,6.9,0,10.3,0c0.1,0,0.3,0,0.4,0c0.1,0,0.1-0.1,0.1-0.1c0-0.1,0-0.2,0-0.3
				c0-0.7,0-1.3,0-2c0-0.3-0.1-0.5-0.2-0.7c-0.6-1.1-1.1-2.2-1.7-3.3c-0.8-1.6-1.6-3.2-2.4-4.8c-0.7-1.3-1.8-2-3.3-2
				c-4.6,0-9.2,0-13.8,0c-0.1,0-0.2,0-0.3,0c-0.3,0-0.5,0.2-0.5,0.5c0,0.1,0,0.2,0,0.3c0,0.4,0,0.8,0,1.3c0,3.4,0,6.8,0,10.2
				c0,0.2,0,0.3,0,0.5c0,0.3,0.2,0.5,0.5,0.5c0.1,0,0.3,0,0.4,0C286,662.1,289.4,662.1,292.9,662.1z"/>
			<path class="st27" d="M304.5,660.6L304.5,660.6c0-0.2,0-0.4,0-0.5c0-0.4,0-0.8,0-1.3c0-0.1,0-0.2-0.1-0.3c-0.1-0.1-0.2-0.1-0.3,0
				c-0.1,0.1-0.1,0.2-0.1,0.3c0,1.2,0,2.4,0,3.5c0,0.1,0,0.1,0,0.2c0,0.1,0.1,0.2,0.2,0.2c0.1,0,0.2-0.1,0.2-0.2c0-0.1,0-0.1,0-0.2
				C304.5,661.8,304.5,661.2,304.5,660.6z"/>
			<path class="st27" d="M305.3,661.2c0-0.3,0-0.6,0-0.8c0-0.1,0-0.2-0.1-0.3c-0.1-0.1-0.2-0.1-0.2,0c-0.1,0.1-0.1,0.2-0.1,0.3
				c0,0.5,0,1.1,0,1.6c0,0.1,0,0.2,0,0.3c0,0.1,0.1,0.1,0.1,0.1c0.1,0,0.1,0,0.1-0.1c0.1-0.1,0.1-0.2,0.1-0.3
				C305.3,661.8,305.3,661.5,305.3,661.2z"/>
			<path class="st27" d="M310.2,673.5c0-0.6,0.1-1.1,0.2-1.6c0.1-0.2,0.1-0.4,0.3-0.6c0.1-0.1,0.2-0.2,0.3-0.3
				c0.3-0.2,0.6-0.2,0.8,0c0.1,0.1,0.2,0.3,0.3,0.4c0.2,0.3,0.2,0.6,0.3,0.9c0.2,0.9,0.2,1.8-0.1,2.6c-0.1,0.2-0.1,0.4-0.2,0.6
				c-0.1,0.2-0.2,0.3-0.3,0.4c-0.3,0.3-0.7,0.3-1,0c-0.2-0.1-0.3-0.3-0.3-0.5c-0.1-0.3-0.2-0.6-0.3-0.9c0-0.1,0-0.3,0-0.4
				C310.2,673.8,310.2,673.6,310.2,673.5z"/>
			<path class="st27" d="M310.5,673.5c0,0.1,0,0.3,0,0.5c0,0.4,0.1,0.8,0.2,1.1c0.1,0.2,0.1,0.3,0.3,0.5c0.2,0.2,0.4,0.2,0.6,0
				c0.1-0.1,0.2-0.3,0.3-0.5c0.1-0.3,0.2-0.7,0.2-1c0.1-0.7,0-1.4-0.2-2.1c-0.1-0.2-0.1-0.4-0.3-0.5c-0.2-0.3-0.5-0.3-0.7,0
				c-0.1,0.2-0.2,0.4-0.3,0.6C310.6,672.4,310.6,672.9,310.5,673.5z"/>
			<path class="st27" d="M275.7,649.7c0-0.1,0-0.2,0-0.3c0-0.4-0.2-0.6-0.6-0.6c-0.1,0-0.3,0-0.4,0c-7.8,0-15.6,0-23.5,0
				c-0.1,0-0.1,0-0.2,0c-0.7,0-0.9,0.3-0.9,0.9c0,3.9,0,7.7,0,11.6c0,0.1,0,0.2,0,0.4c0.1,0.3,0.3,0.5,0.6,0.5c0.1,0,0.3,0,0.4,0
				c3.9,0,7.9,0,11.8,0c3.9,0,7.9,0,11.8,0c0.1,0,0.3,0,0.4,0c0.4,0,0.6-0.2,0.6-0.6c0-0.1,0-0.2,0-0.4
				C275.7,657.3,275.7,653.5,275.7,649.7z M275,660.6c0,0.5-0.3,0.8-0.8,0.8c-0.1,0-0.3,0-0.4,0c-3.7,0-7.4,0-11,0
				c-3.6,0-7.3,0-10.9,0c-0.1,0-0.3,0-0.4,0c-0.4,0-0.7-0.4-0.8-0.8c0-0.1,0-0.2,0-0.3c0-3.3,0-6.6,0-9.8c0-0.1,0-0.1,0-0.2
				c0-0.5,0.3-0.8,0.8-0.9c0.2,0,0.3,0,0.5,0c4.6,0,9.2,0,13.8,0c2.7,0,5.4,0,8.1,0c0.1,0,0.3,0,0.4,0c0.5,0.1,0.8,0.4,0.8,0.9
				c0,0.1,0,0.2,0,0.3c0,3.2,0,6.4,0,9.6C275,660.4,275,660.5,275,660.6z"/>
			<path class="st27" d="M262.8,661.1c3.6,0,7.3,0,10.9,0c0.1,0,0.3,0,0.4,0c0.3,0,0.5-0.2,0.5-0.5c0-0.1,0-0.2,0-0.3
				c0-3.2,0-6.4,0-9.6c0-0.1,0-0.2,0-0.3c0-0.3-0.2-0.5-0.5-0.5c-0.2,0-0.3,0-0.5,0c-6.1,0-12.2,0-18.3,0c-1.2,0-2.4,0-3.5,0
				c-0.1,0-0.3,0-0.4,0c-0.3,0.1-0.4,0.2-0.4,0.5c0,0.1,0,0.2,0,0.3c0,3.2,0,6.4,0,9.6c0,0.1,0,0.1,0,0.2c0,0.4,0.2,0.7,0.7,0.6
				c0.1,0,0.2,0,0.4,0C255.6,661.1,259.2,661.1,262.8,661.1z"/>
			<path class="st27" d="M289.2,688.4c1.6,0,2.9-1.2,2.9-3c0-1.8-1.5-2.9-3-2.9c-1.5,0-2.9,1.2-2.9,3
				C286.3,687.3,287.7,688.4,289.2,688.4z"/>
			<polyline class="st27" points="219.2,668.2 247.9,668.2 247.9,671.1 219.3,671.1 			"/>
			<rect x="248.2" y="668.2" class="st27" width="29.5" height="2.9"/>
			<polyline class="st27" points="219.4,672.4 247.9,672.4 247.9,675.3 219.6,675.3 			"/>
			<rect x="248.2" y="672.4" class="st27" width="29.5" height="2.9"/>
		</g>
	</g>
</g>
<g id="referenz" class="st28">
	
		<image style="display:inline;overflow:visible;" width="428" height="926" xlink:href="../../../../../Downloads/StartView.vue.jpg"  transform="matrix(1 0 0 1 1 1)">
	</image>
</g>
</svg>
