<?xml version="1.0" encoding="utf-8"?>
<!-- Generator: Adobe Illustrator 28.3.0, SVG Export Plug-In . SVG Version: 6.00 Build 0)  -->
<svg version="1.1" xmlns="http://www.w3.org/2000/svg" xmlns:xlink="http://www.w3.org/1999/xlink" x="0px" y="0px"
	 viewBox="0 0 428 928" style="enable-background:new 0 0 428 928;" xml:space="preserve">
<style type="text/css">
	.st0{fill:url(#SVGID_1_);}
	.st1{fill:url(#SVGID_00000064329632159508382940000002034081586106405766_);}
	.st2{fill:url(#SVGID_00000176034998871096803610000006463859482595650433_);}
	.st3{fill:url(#SVGID_00000093896478475546402970000003363372911149685400_);}
	.st4{fill:url(#SVGID_00000173138691235053441340000012686098947055293335_);}
	.st5{fill:url(#SVGID_00000129191205896787954170000012186838813068948387_);}
	.st6{opacity:0.5;fill:url(#SVGID_00000178891354552855261960000008777059097178517673_);enable-background:new    ;}
	.st7{opacity:0.5;fill:url(#SVGID_00000163764271527873713090000009686049755327038621_);enable-background:new    ;}
	.st8{opacity:0.2;fill:url(#SVGID_00000142859474803551439100000018289475196486665100_);enable-background:new    ;}
	.st9{opacity:0.2;fill:url(#SVGID_00000183950941853756614990000013969118347073844864_);enable-background:new    ;}
	.st10{opacity:0.5;fill:url(#SVGID_00000070100133718100395230000012948124217000581311_);enable-background:new    ;}
	.st11{opacity:0.5;fill:url(#SVGID_00000177471810551752966390000014882804954870759812_);enable-background:new    ;}
	.st12{opacity:0.3;fill:url(#SVGID_00000030470531858976609300000004142105974332185520_);enable-background:new    ;}
	.st13{opacity:0.3;fill:url(#SVGID_00000165945995027519595180000015522241654008415370_);enable-background:new    ;}
	.st14{fill:#EFE0C5;}
	.st15{fill:#969695;}
	.st16{fill:#FBECCD;}
	.st17{fill:#FF5B22;}
	.st18{fill:#BED8E5;}
	.st19{fill:#F7EFE2;}
	.st20{fill:#F9F9E2;}
	.st21{fill:#B4D9C0;}
	.st22{display:none;}
</style>
<g id="bg">
	
		<linearGradient id="SVGID_1_" gradientUnits="userSpaceOnUse" x1="100" y1="1147" x2="100" y2="536" gradientTransform="matrix(1 0 0 -1 0 1148)">
		<stop  offset="2.000000e-04" style="stop-color:#FFE6DE"/>
		<stop  offset="0.6252" style="stop-color:#FEFAF1"/>
		<stop  offset="0.7447" style="stop-color:#FBECCD"/>
	</linearGradient>
	<rect x="-547" y="1" class="st0" width="1294" height="611"/>
</g>
<g id="wald">
	
		<linearGradient id="SVGID_00000046304203314965011310000018439238430237204106_" gradientUnits="userSpaceOnUse" x1="99.85" y1="428.7" x2="99.85" y2="634.9" gradientTransform="matrix(1 0 0 -1 0 1148)">
		<stop  offset="0" style="stop-color:#FDE7D2"/>
		<stop  offset="1" style="stop-color:#F2F5EE"/>
	</linearGradient>
	<path style="fill:url(#SVGID_00000046304203314965011310000018439238430237204106_);" d="M-547,534.9c0,0,71-14.9,133.1-14.9
		s234.5,7.5,299,7.5s301.3-14.4,366-14.4S464.9,535,500.8,535c35.9,0,204.5-21.9,245.9-21.9v206.2H-547V534.9z"/>
	
		<linearGradient id="SVGID_00000138552607579198039920000012949005734866235057_" gradientUnits="userSpaceOnUse" x1="99.9" y1="428.8" x2="99.9" y2="626.9" gradientTransform="matrix(1 0 0 -1 0 1148)">
		<stop  offset="0" style="stop-color:#576B74"/>
		<stop  offset="1" style="stop-color:#FDE7D2"/>
	</linearGradient>
	<path style="fill:url(#SVGID_00000138552607579198039920000012949005734866235057_);" d="M-547,521.1c40,9.6,99.5,37.3,133.1,37.3
		s221.3-37.3,260.1-37.3S29.9,566,55.8,566s212.2-34.4,276.9-34.4s110,34.4,190.2,34.4s185.1-35.3,223.9-35.3v188.5H-547V521.1z"/>
	
		<linearGradient id="SVGID_00000034065243837155981610000004471520408771477425_" gradientUnits="userSpaceOnUse" x1="99.9" y1="428.7" x2="99.9" y2="633.7" gradientTransform="matrix(1 0 0 -1 0 1148)">
		<stop  offset="0" style="stop-color:#B4D9C0"/>
		<stop  offset="1" style="stop-color:#70A292"/>
	</linearGradient>
	<path style="fill:url(#SVGID_00000034065243837155981610000004471520408771477425_);" d="M-547,572.6c0,0,135.7-35.4,188.8-35.4
		s141,42.1,181.1,42.1s194.2-65,255.1-65c35.7,0,147.6,50.7,196.4,50.7c48.9,0,148.1-28.2,214.1-30.1c66-1.9,117.2,33,169,33
		s89.3-31.5,89.3-31.5v182.9H-547V572.6z"/>
	
		<linearGradient id="SVGID_00000174595108479165102160000010255585637680736166_" gradientUnits="userSpaceOnUse" x1="-167.7998" y1="496.2875" x2="746.8" y2="496.2875" gradientTransform="matrix(1 0 0 -1 0 1148)">
		<stop  offset="0" style="stop-color:#52907C"/>
		<stop  offset="1" style="stop-color:#498875"/>
	</linearGradient>
	<path style="fill:url(#SVGID_00000174595108479165102160000010255585637680736166_);" d="M733.3,637.9c-7.5-5.8-9.1-10.5-3.8-10.2
		c2.6,0.1,10-4.5,6.3-5.2c-10.4-1.7-11.9-10.4-10.5-9.1c1.4,1.3,10.9-0.9,5-3.8c-3.8-1.9-8.6-10-8.1-9.6c2.6,1.9,8,0.9,4.2-0.9
		c-2.2-1.1-4.8-6.7-4.1-6.4s4.5-0.1,2-1.4c-2.5-1.2-2.5-5.9-3.9-7.1c-0.1-0.1-0.5-0.1-0.6,0c-1.5,1.2-1.4,5.8-3.9,7.1
		c-2.5,1.2,1.2,1.7,2,1.4c0.7-0.3-1.9,5.3-4.1,6.4c-3.8,1.8,1.6,2.8,4.2,0.9c0.5-0.4-4.5,7.3-8.1,9.6c-7.6,4.7,4.2,3.6,5,3.8
		c1.8,0.5-3.9,6.2-9.4,8.6c-2.2-2.7-2.4-5.4-1.6-4.6c1.4,1.3,10.7-0.9,4.9-3.9c-3.7-1.9-8.4-10.2-7.9-9.8c2.6,2,7.8,0.9,4.1-1
		c-2.2-1.1-5.8-6.7-5.1-6.4c0.7,0.3,4.8-0.2,2.3-1.4c-2.5-1.3-1.7-6.2-3.2-7.4c-0.1-0.1-0.5-0.1-0.6,0c-1.4,1.2-0.7,6-3.2,7.2
		c-2.5,1.3,1.3,1.7,2,1.4c0.7-0.3-2.6,5.5-4.8,6.6c-3.7,1.9,1.5,2.9,4.1,1c0.5-0.4-4.7,7-7.9,9.8c-6.3,5.6,4.5,3.3,4.9,3.9
		c1,1.5-6.3,8.8-12.3,9.8c-3.6,0.6,2,6.1,7.7,4.8c3.8-0.9,2.8,1.4-1.1,4.9c-0.2-0.5-0.8-0.9-1.6-1c-13.3-2.2-15.2-13.2-13.4-11.6
		c1.8,1.6,14-1.1,6.3-4.9c-4.8-2.4-10.9-12.7-10.3-12.2c3.4,2.4,10.2,1.2,5.3-1.2c-2.8-1.4-7.6-8.3-6.6-8c1,0.4,6.2-0.2,3-1.8
		c-3.2-1.6-2.3-7.7-4.1-9.2c-0.1-0.1-0.6-0.1-0.7,0c-1.9,1.5-0.9,7.4-4.1,9c-3.2,1.6,1.7,2.2,2.6,1.8c1-0.4-3.4,6.8-6.2,8.1
		c-4.8,2.4,2,3.6,5.3,1.2c0.6-0.4-5.3,7.5-9.4,11.4c-1.9-1-1.9-4.2-3-5.1c-0.1-0.1-0.4-0.1-0.4,0c-1.1,0.9-1.1,4.2-3.1,5.1
		c-2,1,0.9,1.3,1.5,1.1c0.6-0.2-1.5,4.1-3.2,4.9c-2.9,1.4,1.2,2.2,3.2,0.7c0.4-0.3-2.5,4.5-5.1,6.7c-6.5-3.3-8.7-9.2-7.5-8.1
		c1.5,1.3,11.4-0.9,5.2-4c-3.9-1.9-8.9-10.4-8.4-10c2.7,2,8.3,0.9,4.4-1c-2.3-1.1-5-7-4.3-6.7c0.8,0.3,4.7-0.2,2.1-1.4
		c-2.6-1.3-2.6-5.7-4.1-6.9c-0.1-0.1-0.5-0.1-0.6,0c-1.5,1.2-1.5,5.6-4.1,6.9s1.3,1.7,2.1,1.4c0.8-0.3-2,5.5-4.3,6.7
		c-3.9,1.9,1.6,3,4.4,1c0.5-0.4-4.5,8-8.4,10c-6.2,3.1,3.7,5.3,5.2,4c0.7-0.7,0.2,1.4-1.9,3.8c-3.9-2.1-8.9-10.1-8.3-9.8
		c2.8,2,8.4,0.9,4.4-1c-2.3-1.1-5.1-6.9-4.3-6.6c0.8,0.3,4.8-0.1,2.1-1.4s-2.6-6.1-4.2-7.3c-0.1-0.1-0.5-0.1-0.6,0
		c-1.5,1.2-1.5,6-4.2,7.3s1.3,1.7,2.1,1.4c0.8-0.3-2,5.5-4.3,6.6c-4,1.9,1.7,2.9,4.4,1c0.5-0.4-4.8,7.6-8.5,9.9
		c-8.1,4.9,4.4,3.7,5.3,3.9c1.3,0.4-1.2,3.3-4.8,5.9c-0.2-0.1-0.3-0.2-0.5-0.3c-3.3-1.6-7.6-8.8-7.1-8.5c2.3,1.7,7,0.8,3.7-0.8
		c-1.9-1-4.3-5.9-3.6-5.6s4-0.1,1.7-1.2c-2.2-1.1-2.2-4.8-3.5-5.8c-0.1-0.1-0.4-0.1-0.5,0c-1.3,1-1.3,4.7-3.5,5.8
		c-2.2,1.1,1.1,1.5,1.7,1.2c0.7-0.3-1.7,4.7-3.6,5.6c-3.3,1.6,1.4,2.5,3.7,0.8c0.3-0.2-1.2,2.4-3.1,4.8c-0.2-0.4-0.8-0.9-1.8-1.4
		c-3.8-1.9-8.6-10-8.1-9.6c2.6,1.9,8,0.9,4.2-0.9c-2.2-1.1-4.9-6.7-4.1-6.4s4.5-0.1,2-1.4c-2.5-1.2-2.5-5.9-4-7.1
		c-0.1-0.1-0.5-0.1-0.6,0c-1.5,1.2-1.4,5.9-4,7.1c-2.5,1.2,1.2,1.7,2,1.4s-1.9,5.4-4.1,6.4c-3.8,1.9,1.6,2.9,4.2,0.9
		c0.5-0.4-4.5,7.4-8.1,9.6c-0.3,0.2-0.5,0.3-0.7,0.5c-2-2.5-3.5-5.1-3.2-4.9c2.5,1.8,7.7,0.9,4-0.9c-2.1-1-5.7-6.3-5-6
		s4.7-0.2,2.3-1.4c-2.4-1.2-1.7-5.8-3.1-6.9c-0.1-0.1-0.4-0.1-0.6,0c-1.4,1.1-0.7,5.6-3.1,6.8c-2.4,1.2,1.3,1.6,2,1.4
		c0.7-0.3-2.6,5.1-4.7,6.2c-3.7,1.8,1.5,2.7,4,0.9c0.5-0.4-4.7,6.6-7.8,9.2c-0.2-0.1-0.4-0.3-0.7-0.4c-3.7-1.9-8.4-10.2-7.9-9.8
		c2.6,2,7.8,0.9,4.1-1c-2.2-1.1-5.8-6.7-5.1-6.4c0.7,0.3,4.8-0.2,2.3-1.4c-2.5-1.3-1.7-6.2-3.2-7.4c-0.1-0.1-0.5-0.1-0.6,0
		c-1.4,1.2-0.7,6-3.2,7.2c-2.5,1.3,1.3,1.7,2,1.4s-2.6,5.5-4.8,6.6c-3.7,1.9,1.5,2.9,4.1,1c0.5-0.4-4.7,7-7.9,9.8
		c-6.3,5.6,4.5,3.3,4.9,3.9c1,1.5-6.3,8.8-12.3,9.8c-3.6,0.6,2,6.1,7.7,4.8c5.4-1.2,1.1,4-7.6,9.8c-2.9-0.2-5.8-0.4-8.8-0.6
		c2.3-1.5,2.8-3,0.1-3.8c-9.1-2.8-17.7-9.5-13-8.5c4.6,1,11.7-3,8.9-3.5c-8.1-1.3-10.9-8.4-9.8-7.4s8.5-0.7,3.9-3
		c-2.9-1.4-6.7-7.7-6.3-7.4c2,1.5,6.2,0.7,3.2-0.7c-1.7-0.8-3.8-5.2-3.2-4.9c0.6,0.2,3.5-0.1,1.5-1.1s-1.9-4.2-3.1-5.1
		c-0.1-0.1-0.4-0.1-0.4,0c-1.1,0.9-1.1,4.2-3.1,5.1c-2,1,0.9,1.3,1.5,1.1c0.6-0.2-1.5,4.1-3.2,4.9c-2.9,1.4,1.2,2.2,3.2,0.7
		c0.4-0.3-2.5,4.5-5.1,6.7c-6.5-3.3-8.7-9.2-7.5-8.1c1.5,1.3,11.4-0.9,5.2-4c-3.9-1.9-8.9-10.4-8.4-10c2.7,2,8.3,0.9,4.4-1
		c-2.3-1.1-5-7-4.3-6.7c0.8,0.3,4.7-0.2,2.1-1.4c-2.6-1.3-2.6-5.7-4.1-6.9c-0.1-0.1-0.5-0.1-0.6,0c-1.5,1.2-1.5,5.6-4.1,6.9
		c-2.6,1.3,1.3,1.7,2.1,1.4c0.8-0.3-2,5.5-4.3,6.7c-3.9,1.9,1.6,3,4.4,1c0.4-0.3-1.7,3.2-4.2,6.3c-0.1-0.1-0.3-0.2-0.5-0.3
		c-2.3-1.1-5.1-6.9-4.3-6.6s4.7-0.1,2.1-1.4c-2.7-1.3-2.6-6.1-4.2-7.3c-0.1-0.1-0.5-0.1-0.6,0c-1.5,1.2-1.5,6-4.2,7.3
		c-2.7,1.3,1.3,1.7,2.1,1.4s-2,5.5-4.3,6.6c-4,1.9,1.7,2.9,4.4,1c0.5-0.4-4.7,7.6-8.5,9.9c-8.1,4.9,4.4,3.7,5.3,3.9
		c2.3,0.6-6.8,8.8-13.3,9.9c-3.9,0.6,5.6,5,8.3,4.8c3.6-0.2,3.1,1.7,0.2,4.6H451c-1.7,0.5-2.5,1.3-2.4,2.2c-0.2,0.2-0.4,0.3-0.7,0.5
		c-5-0.5-10-1.1-15.1-1.7c6.6-2,9.8-5.2,5.4-6.6c-10.3-3.2-20.1-10.8-14.8-9.7c5.2,1.1,13.3-3.5,10.1-4c-9.2-1.5-12.4-9.6-11.1-8.5
		c1.3,1.1,9.7-0.8,4.4-3.4c-3.3-1.6-7.6-8.8-7.1-8.5c2.3,1.7,7,0.8,3.7-0.8c-1.9-0.9-4.3-5.9-3.6-5.6s4-0.1,1.7-1.2
		c-2.2-1.1-2.2-4.8-3.5-5.8c-0.1-0.1-0.4-0.1-0.5,0c-1.3,1-1.3,4.7-3.5,5.8c-2.2,1.1,1.1,1.5,1.7,1.2c0.7-0.3-1.7,4.7-3.6,5.6
		c-3.3,1.6,1.4,2.5,3.7,0.8c0.5-0.3-3.8,6.8-7.1,8.5c-5.3,2.6,3.1,4.5,4.4,3.4c1.3-1.1-1.9,6.9-11.1,8.5c-3.3,0.5,4.9,5.1,10.1,4
		c5.3-1.1-4.5,6.4-14.8,9.7c-0.2,0.1-0.4,0.2-0.6,0.2c-8.1-2.9-15-8.2-10.8-7.3c4.4,0.9,11.4-2.9,8.6-3.3c-7.9-1.3-10.6-7.9-9.5-6.9
		c1.1,0.9,8.3-0.6,3.8-2.8c-2.8-1.3-6.5-7.2-6.1-6.9c2,1.4,6,0.7,3.2-0.7c-1.7-0.8-3.7-4.8-3.1-4.6c0.6,0.2,3.4-0.1,1.5-1
		c-1.9-0.9-1.9-3.9-3-4.8c-0.1-0.1-0.4-0.1-0.4,0c-1.1,0.9-1.1,3.9-3,4.8s0.9,1.2,1.5,1s-1.4,3.9-3.1,4.6c-2.9,1.3,1.2,2.1,3.2,0.7
		c0.4-0.3-3.3,5.6-6.1,6.9c-4.5,2.1,2.7,3.7,3.8,2.8c1.1-0.9-1.6,5.7-9.5,6.9c-2.8,0.4,4.2,4.2,8.6,3.3c3.8-0.8-1.4,3.4-8.3,6.3
		c-31.6-3.4-58.8-6-75.1-5.8c-49,0.6-248,63.7-317.6,63.7c-69.6,0-143.1,12.4-143.1,12.4h914.6v-84.8
		C746.7,634.4,741.8,635.8,733.3,637.9z M564.6,640.6c0.4,0.3,1.3,0.4,2.3,0.3c-0.7,0.6-1.5,1.1-2.3,1.7
		C564,641.1,564.1,640.1,564.6,640.6z M598.6,653.1c0.4,0.1,0.8,0.1,1.3,0.2c-0.6,0.4-1.2,0.9-1.8,1.4
		C596.8,653.4,596.7,652.7,598.6,653.1z M646.9,646.7c-0.1-0.1-0.2-0.1-0.3-0.2C646.7,646.5,646.8,646.6,646.9,646.7z M582.3,652.8
		c1.7,0.4,3.4,0.6,5,0.2c2.9-0.6,1.3,1.3-2.4,3.7C583.5,655.3,582.6,653.9,582.3,652.8z M566.5,654.3c-0.2,0.3-0.5,0.5-0.8,0.8
		C565.7,654.7,566,654.4,566.5,654.3z M548.3,655.1c1.5,0.3,2.9,0.2,4-0.2c-0.1,1-1.8,2.8-4.7,5.1
		C544.1,656.3,544.3,654.2,548.3,655.1z M707.9,632.1c0.8,0.2,1.5,0.2,2.2,0.2c-1,1-2.4,2.2-4,3.4
		C703.9,632.8,704.4,631.3,707.9,632.1z M678.1,642.4c0.6,0.1,1.2,0.2,1.8,0.2c-0.3,0.2-0.6,0.4-0.9,0.6c-2.1,1.3-3,2.8-2.7,4.1
		C672.8,643.5,673.4,641.4,678.1,642.4z M659.3,624.2c0.6,0.9-1.1,3.3-3.9,5.8c-1.9-2.2-3.4-4.9-3.2-4.7c2,1.5,6.2,0.7,3.2-0.7
		c-0.2-0.1-0.4-0.2-0.6-0.4C657.1,624.1,659.1,623.9,659.3,624.2z M652.4,619.6c0.1,0,0.2,0,0.3,0.1c-0.1,0.1-0.2,0.2-0.3,0.3
		C652.2,619.7,652.2,619.6,652.4,619.6z M637.5,638.5c1.4,0.3,3,0.2,4.5,0c0.3,0.5,0.8,1,1.4,1.6c-1.1,0.9-2.4,1.7-4,2.3
		C635.7,639.8,634.4,637.9,637.5,638.5z M625.3,639.9c-0.8-0.3-1.6-0.7-2.2-1.1c0.4,0,0.7-0.1,1.1-0.2
		C626.1,638.1,626.3,638.7,625.3,639.9z M618.4,631.6C618.4,631.7,618.4,631.7,618.4,631.6c-0.1,0.1-0.3,0.2-0.5,0.3
		C618,631.5,618.1,631.4,618.4,631.6z M604.8,647.9c-1.1-0.5-2-1-2.8-1.6c0.1,0,0.2,0,0.3,0C604.4,646.2,605.1,646.8,604.8,647.9z
		 M581.1,635.9c0.6,0.6,3,0.4,4.8-0.1c-0.6,0.6-1.3,1.1-1.9,1.4c-5.3,2.6,3.1,4.5,4.4,3.4c0.6-0.5,0.2,1.1-1.4,3
		C580.7,640.6,579.9,634.9,581.1,635.9z M570.5,635.9c0.5,0.1,0.4,0.7-0.1,1.5c-0.3-0.2-0.6-0.4-1-0.6c-0.5-0.2-1-0.6-1.4-1
		C569.2,635.9,570.3,635.9,570.5,635.9z M544.1,640.4c0.6,0.6,2.8,0.5,4.5-0.1c1.8,0.6,5.6-0.1,5.9,0.3c0.7,1-2.3,4.4-6.2,6.8
		C543.6,644.2,543,639.4,544.1,640.4z M491.2,651.9c-0.1-0.1-0.2-0.1-0.3-0.2C491.1,651.8,491.2,651.9,491.2,651.9z M481.8,643.8
		c2.6,0.6,5.8-0.1,8.4-1.1c-1.1,1.6-3.2,3.7-6.4,4.9C480.1,645.1,478.7,643.1,481.8,643.8z M469.7,630c-0.2-0.2-0.4-0.4-0.6-0.6
		c0.3-0.1,0.5-0.2,0.6-0.3C470.1,628.7,470.1,629.1,469.7,630z M463.8,622.1c0.9,0.7,2.2,1,3.3,1c-0.6,0.6-1.2,1.1-1.8,1.5
		C464.2,623.1,463.6,621.9,463.8,622.1z"/>
	
		<linearGradient id="SVGID_00000113350886968262642150000016849345759510373018_" gradientUnits="userSpaceOnUse" x1="-49.1" y1="428.795" x2="-49.1" y2="689.6199" gradientTransform="matrix(1 0 0 -1 0 1148)">
		<stop  offset="0" style="stop-color:#1F6A6E"/>
		<stop  offset="1" style="stop-color:#2C707A"/>
	</linearGradient>
	<path style="fill:url(#SVGID_00000113350886968262642150000016849345759510373018_);" d="M296.4,691.3c-37.5,0-132.5,6.3-172.9,6.8
		c11.8-4.7,16.4-10.7,7.3-13.6c-24.2-7.6-47.1-25.3-34.7-22.7c12.2,2.6,31.3-8.1,23.6-9.4c-21.6-3.6-29-22.5-26-19.9
		c2.9,2.6,22.7-1.8,10.3-7.9c-7.8-3.8-17.8-20.6-16.7-19.8c5.4,4,16.5,1.9,8.7-1.9c-4.6-2.2-10-13.8-8.5-13.2
		c1.5,0.6,9.3-0.3,4.1-2.9c-5.2-2.6-5.1-11.2-8.2-13.7c-0.2-0.2-1-0.2-1.2,0c-3,2.4-3,11.1-8.2,13.7c-5.2,2.6,2.5,3.5,4.1,2.9
		c1.5-0.6-3.9,11-8.5,13.2c-7.8,3.8,3.2,5.9,8.7,1.9c1.1-0.8-8.9,16-16.7,19.8c-12.4,6.1,7.3,10.5,10.3,7.9
		c2.9-2.6-4.5,16.2-26,19.9c-7.6,1.3,11.5,12,23.6,9.4c8-1.7,1.4,5-10.7,12c-0.6-0.4-1.1-0.8-1.8-1.2
		c-26.2-17.4-32.7-30.3-17.5-27.1c14.9,3.2,25.2-11.5,15.9-13.1C29,628,25.2,606.1,28.8,609.3c3.6,3.2,27.7-2.2,12.6-9.7
		c-9.5-4.7-21.8-25.2-20.4-24.3c6.7,4.8,20.2,2.3,10.6-2.4c-5.6-2.7-15-16.6-13.1-15.8c1.9,0.7,12.3-0.4,6-3.6
		c-6.4-3.1-4.5-15.2-8.2-18.2c-0.3-0.2-1.2-0.2-1.5,0c-3.7,3-1.9,14.7-8.2,17.9c-6.4,3.1,3.3,4.3,5.2,3.6
		c1.9-0.7-6.8,13.5-12.4,16.2c-0.6,0.3-1.1,0.6-1.6,0.9c-8.2-8.9-15.3-21.1-14.2-20.3c7.8,5.6,23.6,2.7,12.4-2.8
		c-6.5-3.2-14.3-19.7-12.1-18.9c2.2,0.9,13.2-0.4,5.8-4.1c-7.4-3.6-7.3-17.4-11.6-20.9c-0.3-0.3-1.4-0.3-1.7,0
		c-4.3,3.5-4.2,17.2-11.6,20.9c-7.4,3.6,3.6,4.9,5.8,4.1c2.2-0.9-5.6,15.7-12.1,18.9c-11.2,5.4,4.6,8.4,12.4,2.8
		c1.5-1.1-13.3,21.7-23.8,28.3c-0.8,0.5-1.6,1-2.3,1.5c-0.4-0.4-1.1-0.9-2.2-1.4c-4.6-2.2-10-13.8-8.5-13.2c1.5,0.6,9.3-0.3,4.1-2.9
		c-5.2-2.6-5.1-11.2-8.2-13.7c-0.2-0.2-1-0.2-1.2,0c-3,2.4-3,11.1-8.2,13.7c-5.2,2.6,2.5,3.5,4.1,2.9c1.5-0.6-3.9,11-8.5,13.2
		c-7.8,3.8,3.2,5.9,8.7,1.9c1-0.8-8.2,14.7-15.8,19.3c-21.3-8.3-24.3-27.4-20.6-24.1c4.2,3.7,32.3-2.6,14.7-11.3
		c-11.1-5.5-25.4-29.4-23.8-28.3c7.8,5.6,23.6,2.7,12.4-2.8c-6.5-3.2-14.3-19.7-12.1-18.9c2.2,0.9,13.2-0.4,5.8-4.1
		c-7.4-3.6-7.3-17.4-11.6-20.9c-0.3-0.3-1.4-0.3-1.7,0c-4.3,3.5-4.2,17.2-11.6,20.9c-7.4,3.6,3.6,4.9,5.8,4.1
		c2.2-0.8-5.6,15.7-12.1,18.9c-11.2,5.4,4.6,8.4,12.4,2.8c1.5-1.1-13.2,21.7-23.8,28.3c-22.5,14,12.3,10.7,14.7,11.3
		c5.7,1.6-14.1,20.7-31.4,26.8c-5.2-6.4-5.5-12.4-3.5-10.6c3.6,3.2,27.7-2.2,12.6-9.7c-9.5-4.7-21.8-25.2-20.4-24.3
		c6.7,4.8,20.2,2.3,10.6-2.4c-5.6-2.7-15-16.6-13.1-15.8c1.9,0.7,12.3-0.4,6-3.6c-6.4-3.1-4.5-15.2-8.2-18.2c-0.3-0.2-1.2-0.2-1.5,0
		c-3.7,3-1.9,14.7-8.2,17.9c-6.4,3.1,3.3,4.3,5.2,3.6s-6.8,13.5-12.4,16.2c-9.6,4.7,4,7.2,10.6,2.4c1.3-1-12.2,17.3-20.4,24.3
		c-16.2,13.9,11.5,8.2,12.6,9.7c1,1.5-1.2,5.1-5.3,9.2c-22.1-10.3-29.5-30.3-25.6-26.8c4.7,4.2,36.3-2.9,16.5-12.7
		c-12.5-6.2-28.4-33-26.7-31.7c8.7,6.3,26.4,3,13.9-3.1c-7.3-3.6-16-22.1-13.6-21.2c2.5,1,14.9-0.5,6.5-4.6
		c-8.3-4.1-8.2-18-13.1-21.9c-0.4-0.3-1.5-0.3-1.9,0c-4.8,3.9-4.7,17.8-13.1,21.9c-8.3,4.1,4.1,5.5,6.5,4.6
		c2.5-1-6.2,17.6-13.6,21.2c-12.5,6.1,5.2,9.4,13.9,3.1c1.7-1.3-14.3,25.6-26.7,31.7c-19.8,9.8,11.8,16.9,16.5,12.7
		c4.7-4.2-7.2,26-41.7,31.8c-12.2,2,18.4,19.3,37.8,15.1c13.5-2.9,1,9.2-20.6,21.1c-32.9-22.5-42.2-42.2-22.2-41.2
		c8.6,0.4,33.4-15.3,21-17.3c-35-5.8-40-34.8-35.3-30.6c4.8,4.2,36.7-2.9,16.7-12.8c-12.6-6.2-28.8-33.4-27.1-32.1
		c8.8,6.4,26.8,3.1,14.1-3.1c-7.4-3.6-16.2-22.4-13.7-21.4s15-0.5,6.6-4.6c-8.4-4.1-8.3-19.8-13.2-23.7c-0.4-0.3-1.6-0.3-1.9,0
		c-4.9,4-4.8,19.6-13.2,23.7c-8.4,4.1,4.1,5.6,6.6,4.6s-6.3,17.8-13.7,21.4c-12.7,6.2,5.2,9.6,14.1,3.1c1.7-1.3-15,24.7-27.1,32.1
		c-25.6,15.9,14,12.1,16.7,12.8c5,1.4-7.2,14.6-22,23.7c-9.1-6.6-12.1-15.1-10-13.2c2.9,2.6,22.7-1.8,10.3-7.9
		c-7.8-3.8-17.8-20.6-16.7-19.8c5.4,4,16.5,1.9,8.7-1.9c-4.6-2.2-10-13.8-8.5-13.2c1.5,0.6,9.3-0.3,4.1-2.9
		c-5.2-2.6-5.1-11.2-8.2-13.7c-0.2-0.2-1-0.2-1.2,0c-3,2.4-3,11.1-8.2,13.7s2.5,3.5,4.1,2.9c1.5-0.6-3.9,11-8.5,13.2
		c-1.5,0.7-2.3,1.4-2.6,2c-10.6-6.5-23.3-27.9-21.9-26.8c7.6,5.5,23,2.6,12.1-2.7c-6.4-3.1-17.1-18.8-14.9-18c2.2,0.8,14-0.5,6.8-4
		c-7.2-3.6-5.1-17.3-9.3-20.7c-0.3-0.3-1.3-0.3-1.7,0c-4.2,3.4-2.1,16.7-9.3,20.3c-7.2,3.6,3.8,4.9,6,4c2.2-0.8-7.7,15.3-14.1,18.4
		c-10.9,5.3,4.5,8.2,12.1,2.7c1.5-1.1-13.9,19.6-23.2,27.6c-18.4,15.8,13.1,9.3,14.3,11c3,4.3-18.4,24.6-36.2,27.6
		c-10.6,1.8,5.7,17,22.6,13.4c17.3-3.7,0.9,13.7-28.9,31.5c-0.8,0.5-1.6,1-2.3,1.5c-17.7-3.8-30.3-6.7-34.4-7.2v101.4h995.4
		C375.1,719.2,335.7,691.3,296.4,691.3z M-102.2,638c5.3,2.3,12.6,4.1,18.3,2.8c5.8-1.2,3.9,2-2.3,6.5c-2.9-0.6-5.7-1.2-8.5-1.7
		C-97.6,643-100.2,640.4-102.2,638z M-59.7,611.6c0.7,0.7,2.6,0.9,4.7,0.7c-1.3,0.9-2.6,1.7-4,2.5
		C-60.5,612.2-60.7,610.7-59.7,611.6z M2.3,610.9c-0.8-0.6-1.5-1.3-2.2-1.9c1.1,0,1.9,0.1,2.1,0.3C2.4,609.7,2.4,610.3,2.3,610.9z
		 M-52.4,649.2c-8.1-5.5-11.4-9.7-4.8-8.3c3.6,0.8,7.8,0.4,11.7-0.6C-46.5,642.6-48.9,645.7-52.4,649.2z M10,575.4
		c0.5-0.4-1.2,2.1-3.9,5.7c-1.3-0.8-2.7-1.9-4.1-3.1C4.6,577.8,7.7,577,10,575.4z M-7.3,593.1c0.5,0.4,1.4,0.8,2.4,0.9
		c-1.1,1.2-2.1,2.2-3.1,3.2C-9.1,593.9-8.7,591.9-7.3,593.1z M-66.1,583.8c2.1,1.6,5.1,2.2,7.5,2.1c-9.4,9.2,18.2,6.6,20.3,7.2
		c3,0.8-1,6.5-8,12.6c-0.6-0.6-1.6-1.3-3.1-2C-57.2,599.8-67.2,583.1-66.1,583.8z M-98.9,621.2c4.1,0.2,12.5-3.8,17.5-7.8
		c-2.1,4.5-10.1,15-25.3,17.8C-110,624.8-107.6,620.8-98.9,621.2z M-381.7,604.2c8.5-0.5,9.8,3,6,8.7c-8.8-4.2-16.3-9-20.3-12.4
		C-390.4,602.8-384.8,604.4-381.7,604.2z M-421.9,572.4c-3.5-1.9-6.4-4-8.7-6.2c3.8,1.6,9.4,2,10.9,0.7
		C-418.5,565.8-419.1,568.6-421.9,572.4z M-434.4,595.4c4.1,1.1,8.5,1.5,12.3,0.7c6.8-1.5,3,3.2-5.7,8.9
		C-431.7,601.1-433.9,597.8-434.4,595.4z M-166.6,631.4c7,1.5,12.9-0.9,16.4-4.1c-1.9,3.5-6.4,8.3-12.9,13.6
		c-2.4,0.1-4.8,0.2-7.2,0.4C-177.1,633.6-176.1,629.4-166.6,631.4z M-217,641.8c-11-6.7-18.5-12.9-19.5-15.9
		c3.9,3.7,12.2,7.2,20.6,5.4C-206.8,629.3-208.4,634.2-217,641.8z M-413.3,539.1c0.5-0.4-1.6,3.4-4.7,7.8c1-1.6,0.4-3.5-2.8-5.7
		C-418.4,541.3-415.4,540.7-413.3,539.1z M-437.5,550.9c2.7,2.4,15.7,0.5,19.1-3.5c-3.3,4.6-7.7,9.7-11.6,11.6
		c-2.5,1.3-3.7,2.4-4,3.5C-439.5,555.4-439.7,549-437.5,550.9z"/>
	
		<linearGradient id="SVGID_00000009563817504188608000000006762994486130179495_" gradientUnits="userSpaceOnUse" x1="-494.3" y1="826" x2="-42.4998" y2="826" gradientTransform="matrix(1 0 0 -1 0 1148)">
		<stop  offset="0" style="stop-color:#DABDD7"/>
		<stop  offset="1" style="stop-color:#FBDFD5"/>
	</linearGradient>
	<path style="opacity:0.5;fill:url(#SVGID_00000009563817504188608000000006762994486130179495_);enable-background:new    ;" d="
		M-447.2,297l-47.1,32.8l260,17.2l191.8-25h-205.1L-447.2,297z"/>
	
		<linearGradient id="SVGID_00000173840697808142567190000011112333810769158838_" gradientUnits="userSpaceOnUse" x1="125.8676" y1="704.6036" x2="597.5704" y2="657.8644" gradientTransform="matrix(1 0 0 -1 0 1148)">
		<stop  offset="0" style="stop-color:#DABDD7"/>
		<stop  offset="1" style="stop-color:#FBDFD5"/>
	</linearGradient>
	<path style="opacity:0.5;fill:url(#SVGID_00000173840697808142567190000011112333810769158838_);enable-background:new    ;" d="
		M598,485.8l-474.6-17.5l116.8-17.9l-43-4.3l291.5,8.1L598,485.8z"/>
	
		<linearGradient id="SVGID_00000058574797932796364320000013221318574849210247_" gradientUnits="userSpaceOnUse" x1="199" y1="481.5" x2="667.4" y2="481.5" gradientTransform="matrix(1 0 0 -1 0 1148)">
		<stop  offset="0" style="stop-color:#DABDD7"/>
		<stop  offset="1" style="stop-color:#FBDFD5"/>
	</linearGradient>
	<path style="opacity:0.2;fill:url(#SVGID_00000058574797932796364320000013221318574849210247_);enable-background:new    ;" d="
		M325.1,673.1L199,659.9l468.4,13.2H437.3H325.1z"/>
	
		<linearGradient id="SVGID_00000047039177039122487590000004295578881058630311_" gradientUnits="userSpaceOnUse" x1="115.6" y1="563.85" x2="551.2" y2="563.85" gradientTransform="matrix(1 0 0 -1 0 1148)">
		<stop  offset="0" style="stop-color:#DABDD7"/>
		<stop  offset="1" style="stop-color:#FBDFD5"/>
	</linearGradient>
	<path style="opacity:0.2;fill:url(#SVGID_00000047039177039122487590000004295578881058630311_);enable-background:new    ;" d="
		M551.2,600.5l-435.6-11.3l279.9-21.4L551.2,600.5z"/>
	
		<linearGradient id="SVGID_00000109744518520856545260000016755654369567232406_" gradientUnits="userSpaceOnUse" x1="-425.1" y1="711.3" x2="121.7" y2="711.3" gradientTransform="matrix(1 0 0 -1 0 1148)">
		<stop  offset="0" style="stop-color:#DABDD7"/>
		<stop  offset="1" style="stop-color:#FBDFD5"/>
	</linearGradient>
	<path style="opacity:0.5;fill:url(#SVGID_00000109744518520856545260000016755654369567232406_);enable-background:new    ;" d="
		M-425.1,427.2l248.4,19l298.4-19H-99.1H-425.1z"/>
	
		<linearGradient id="SVGID_00000115483394705067074850000017897652742781219207_" gradientUnits="userSpaceOnUse" x1="105.6" y1="655.4" x2="561.2" y2="655.4" gradientTransform="matrix(1 0 0 -1 0 1148)">
		<stop  offset="0" style="stop-color:#DABDD7"/>
		<stop  offset="1" style="stop-color:#FBDFD5"/>
	</linearGradient>
	<path style="opacity:0.5;fill:url(#SVGID_00000115483394705067074850000017897652742781219207_);enable-background:new    ;" d="
		M410,499.5H105.6l226.8-13.8l228.8,6.9L410,499.5z"/>
	
		<linearGradient id="SVGID_00000179641462821826078940000001679306269235290030_" gradientUnits="userSpaceOnUse" x1="-456.9" y1="1105.3" x2="164.5" y2="1105.3" gradientTransform="matrix(1 0 0 -1 0 1148)">
		<stop  offset="0" style="stop-color:#DABDD7"/>
		<stop  offset="1" style="stop-color:#FBDFD5"/>
	</linearGradient>
	<path style="opacity:0.3;fill:url(#SVGID_00000179641462821826078940000001679306269235290030_);enable-background:new    ;" d="
		M-456.9,74.8l88-72.8l533.4,81.4L-456.9,74.8z"/>
	
		<linearGradient id="SVGID_00000151529219087148017160000012030699918670855568_" gradientUnits="userSpaceOnUse" x1="92.2" y1="982.95" x2="708.5" y2="982.95" gradientTransform="matrix(1 0 0 -1 0 1148)">
		<stop  offset="0" style="stop-color:#DABDD7"/>
		<stop  offset="1" style="stop-color:#FBDFD5"/>
	</linearGradient>
	<path style="opacity:0.3;fill:url(#SVGID_00000151529219087148017160000012030699918670855568_);enable-background:new    ;" d="
		M708.5,221.1L529.8,197L92.2,150.4L623.1,109L708.5,221.1z"/>
</g>
<g id="bus">
	<g>
		<path class="st14" d="M-182.4,716.9c30.5,0.2,55.1-24.9,55.3-54.8c0.2-30-24.2-55.3-54.9-55.5c-30.3-0.2-55.3,24.4-55.4,55
			C-237.5,692.3-212.5,717-182.4,716.9z"/>
		<path class="st14" d="M-182.4,699.1c20,0.2,37.4-16,37.4-37.2c0.1-20.1-16-37.2-37-37.3c-21.6-0.2-37.5,17.4-37.6,37.1
			C-219.7,682.1-203,699.1-182.4,699.1z"/>
		<path class="st14" d="M-182.1,682.5c11-0.2,20.6-8.7,20.5-20.8c-0.1-12.4-10.3-20.6-20.8-20.5c-10.7,0.1-20.6,8.5-20.5,20.8
			C-202.8,674.1-193,682.4-182.1,682.5z"/>
		<path class="st14" d="M-198.7,508.3c-32.1,0-64.2,0-96.3,0c-0.9,0-1.9,0-2.8,0c-1.4,0.1-1.7,0.3-1.7,1.7c-0.1,2.9-0.1,5.9-0.2,8.8
			c-0.2,12.1,0.2,24.2,0.7,36.3c0.4,8.6,1.1,17.2,1.7,25.8c0.4,5.1,1,10.3,1.6,15.4c0.9,7.6,1.9,15.2,2.8,22.9c0.5,4,1,7.9,1.6,11.9
			c0.2,1.7,0.3,1.7,2,1.7c6.7,0,13.5,0.2,20.2-0.1c5.2-0.2,7.9,2.9,7.7,7.7c-0.2,5.3,0,10.5,0,15.8c0,0.8,0,1.7,0,2.5
			c0.1,0.8,0.4,1.1,1.2,1.1c3.4-0.3,6.3-1.6,8.7-4c1.2-1.2,2.2-2.6,3-4c2.4-4.1,4.8-8.1,7.3-12.2c2.9-4.8,7-8,12.4-9.6
			c2.3-0.7,4.7-1,7.2-1c18.3,0,36.6,0,54.9,0c7.3,0,14.5,0,21.8,0c4.3,0,8.3,1.2,11.9,3.5c2.4,1.6,4.4,3.6,6.1,5.9
			c3.8,5.1,7.6,10.1,11.3,15.2c3.1,4.2,7.3,6.2,12.4,6.3c0.7,0,1.5,0,2.2,0c70.2,0,140.3,0,210.5,0c0.9,0,1.9,0,2.8,0
			c5.2-0.2,9-3.2,10.4-8.2c0.2-0.6,0.3-1.2,0.4-1.8c2.6-11.4,6.9-22,13.7-31.6c9-12.6,21-21.1,36-25.1c13.7-3.6,27.5-3.7,41.2-0.2
			c14.3,3.6,25.8,11.5,34.4,23.5c5.3,7.3,8.9,15.5,11.4,24.1c1.1,3.6,1.8,7.4,2.5,11.1c0.9,4.7,4.3,8,8.8,8.7c1,0.2,2.1,0.1,3.1,0.1
			c11,0,22.1,0,33.1,0c0.6,0,1.3,0,1.9,0c1.4-0.1,1.7-0.3,1.7-1.7c0-3.3,0-6.5,0-9.8c0-3.8,0.2-3.6-3.6-3.6c-10.4,0-20.8,0-31.2,0
			c-2.8,0-3,0.2-3.7-3c-2.9-13.9-8.4-26.7-16.9-38c-13-17.4-30.3-27.1-51.8-29.9c-4.9-0.6-9.9-0.8-14.8-0.8c-16.2-0.1-32.4,0-48.6,0
			c-1.2,0-2.3,0-3.5-0.1c-6.3-0.7-11.1-5.5-11.7-11.7c-0.1-1.3-0.1-2.5-0.1-3.8c0-15.1,0-30.3,0-45.4c0-1.1,0-2.1-0.1-3.2
			c0-0.6-0.4-1-1-1c-2.8,0-5.7,0-8.5,0c-0.8,0-1.1,0.5-1.1,1.2c0,1.2,0,2.3,0,3.5c0,42.1,0,84.2,0,126.2c0,1.2,0,2.3-0.1,3.5
			c-0.4,2.9-2.4,4.7-5.3,5c-0.8,0.1-1.7,0-2.5,0c-65.4,0-130.9,0-196.3,0c-0.7,0-1.5,0-2.2,0c-3.5-0.2-5.7-2.3-5.9-5.8
			c-0.1-0.9,0-1.9,0-2.8c0-42,10.6-84.5,0-125.9c16.6-9.4,0.8-4.9-4.8-4.9C-134.5,508.3-166.6,508.3-198.7,508.3z"/>
		<path class="st14" d="M14.4,514.5c-33.5,0-66.6-15.7-100.1-15.7c-3.6,0-16.6,12.1-16.6,15.7c0,42.7-2.3,90.2-2.3,132.9
			c0,0.6,11.5,5.4,11.5,6c0.2,2.1,5.1-2.1,7.1-1.9c0.7,0.1,1.5,0,2.2,0c65.4,0,130.9,0,196.3,0c0.5,0,1.1,0,1.6,0
			c2.6-0.1,3.7-1.3,3.9-3.9c0-0.8,0-1.7,0-2.5c0-42.1,0-84.2,0-126.2c29.7-15.5,0.4-4.2-4.2-4.2C80.7,514.5,47.5,514.5,14.4,514.5z"
			/>
		<path class="st14" d="M-196.9,512.2c32.4,0,63.1,4.2,95.5,4.2c4.2,0,26.3-16.9,26.3-21.2c0-34.2-22.6-61.6-22.6-95.8
			c0-0.9,0-1.9,0-2.8c0-0.7-0.4-1.2-1.2-1.2c-1.2,0-2.3,0-3.5,0c-60.1,0-120.1,0-180.2,0c-6.4,0-4.8-1-5.9,5.3
			c-1.1,6.7-2,13.5-3,20.3c-1.1,7.9-2.3,15.8-3.3,23.7c-1.1,9.1-2.1,18.2-2.8,27.3c-0.8,10-1.5,19.9-1.8,29.9
			c-0.1,4.5-1,11.8,3.6,11.8C-263.4,513.6-229.1,512.2-196.9,512.2z"/>
		<path class="st14" d="M9.8,399.1c97.1,0,191.3-2.8,288.4-2.8c1.2,0,4.6-3.5,5.8-3.6c4.9-0.2,8-3.2,8.5-8c0.2-2.4,0.4-4.8,0.5-7.2
			c0.1-1.6,0.1-3.2-0.1-4.7c-0.2-2.7-0.5-2.9-3.2-3.3c-8.6-1.3-17.2-2.7-25.9-3.7c-12.2-1.4-24.5-2.7-36.7-3.8
			c-11.7-1-23.5-1.8-35.2-2.5c-13.3-0.8-26.7-1.4-40-1.9c-14.7-0.5-29.4-0.9-44.1-1.2c-21.8-0.4-43.5-0.5-65.3-0.3
			c-18.3,0.1-36.6,0.1-54.9,0.5c-18.3,0.4-36.6,0.7-54.9,1.3c-18.9,0.6-37.8,1.1-56.7,2c-14.6,0.6-29.2,1.2-43.8,1.9
			c-12.6,0.6-25.2,1.2-37.8,1.9c-13.2,0.7-26.5,1.4-39.7,2.1c-3.8,0.2-7.6,0.4-11.3,0.7c-8.7,0.6-17.4,1.2-26.1,1.7
			c-11.9,0.7-21.9,9.3-24.1,20.9c-0.2,0.9-0.2,1.9-0.2,2.8c0,0.5-0.6,4.5-0.1,4.5c1.3,0.1,3.4,2.8,4.6,2.8
			C-185.4,399.1-87.5,399.1,9.8,399.1z"/>
		<path class="st14" d="M205.5,508.9c-21.7,0-43.3,0-65,0c-6.1,0-12.2,0-18.3,0c-2.5,0-2.5,0-2.5,2.4c0,0.4,0,0.8,0,1.3
			c-8.8,14.9,0,30.9,0,46.4c0,1.1,0,2.1,0.1,3.2c0.5,5,4.5,8.9,9.5,9.5c1.1,0.1-0.6,9.7,0.5,9.7c16.2,0,34.1-0.1,50.3,0
			c6.4,0,12.6,1.2,18.9,2.3c19.9,3.5,37.6,2.8,50,18.9c6.5,8.5,11.3,17.9,14.8,28.1c1.3,3.8,2.3,7.6,3.2,11.5
			c0.2,0.8,0.5,1.3,1.4,1.3c0.6,0,1.5,5.7,2.2,5.7c9.9,0,20.1-0.9,30-0.9c0.6,0,2.1,3.3,2.8,3.2c0.7,0-0.5,4-0.5,3.2
			c0-0.8,2.8,6.8,2.8,6h13.8c1.2,0-1.2-17.1,0-17.1c5.2-0.1,44.8,1,44.8-4.2c-0.9-39.2-1.4-79-1.4-114.9c0-0.6-43-12.3-42.9-12.9
			c0.2-1.6-2.6,5.1-4.2,4.5c-0.6-0.2-1.1-0.6-1.7-0.8c-9.5-4.3-19.5-6.5-30-6.5C257.9,509,231.7,508.9,205.5,508.9z"/>
		<path class="st14" d="M2.9,514.9c33.5,0,67.1,12,100.6,12c3.7,0,36-6.6,36-10.6c27.3,0,17.6-121.8-9.7-121.8
			c0-0.8-22.2,2.8-22.3,2c0-0.7-0.4-1.2-1.2-1.2c-0.9,0-1.9,0-2.8,0c-27.9,0-55.8,0-83.6,0c-38.5,0-77,0-115.5,0
			c-1.1,0-2.1,0-3.2,0.1c-0.6,0-0.9,0.4-1,1c0,0.6-0.1,1.3-0.1,1.9c0,34.8,0,69.6,0,104.5c0,0.7,0,1.5,0.1,2.2
			c0,0.5,0.4,0.8,0.8,0.8c1,0.1,2.1,0.1,3.1,0.1C-62.6,505.8-30.2,514.9,2.9,514.9z"/>
		<path class="st14" d="M193.1,716.9c30.5,0.2,55.1-24.9,55.3-54.8c0.2-30-24.2-55.3-54.9-55.5c-30.3-0.2-55.3,24.4-55.4,55
			C137.9,692.3,163,717,193.1,716.9z"/>
		<path class="st14" d="M227.6,510.8c0,0,3.2,0.4,3.2,0.5c33.5,7.6,61.8,7.4,93.2,7.4c1,0,16.5-11.9,17.5-12c0.5,0,1.1-7.9,0.9-8.3
			c-0.4-1.1-11-2.2-11.5-3.2c-17.5-34.6-32.3-70.6-49.8-105.2c-1.6-3.1-11.8,5.4-15.3,5.4c-44.8,0-89.6,0-134.4,0
			c-0.6,0-1.3,0-1.9,0c-1.3,0.1-1.5,0.2-1.6,1.4c0,0.8,0,1.7,0,2.5c0,6.3,0,12.6,0,18.9c0,27.9,0,55.7,0,83.6c0,1,0,2.1,0.1,3.1
			c0,0.5,0.4,0.8,0.8,0.8c1,0.1,2.1,0.1,3.2,0.1C161.6,514,196.1,510.8,227.6,510.8z"/>
		<path class="st14" d="M328.4,575.4c0,18.2,0,36.4,0,54.6c0,2.8,0,2.8,2.8,2.8c9.6,0,19.1,0,28.7,0c3.9,0,3.6,0.3,3.6-3.5
			c0-16.3,0-32.6,0-48.9c0-4.4-0.3-8.8-1.1-13.2c-3.7-20.3-14.3-36.1-31.5-47.5c-0.5-0.3-1.1-0.7-1.6-0.9c-0.4-0.2-0.9,0-0.9,0.5
			c-0.1,1-0.1,2.1-0.1,3.2C328.4,540,328.4,557.7,328.4,575.4z"/>
		<path class="st14" d="M341.6,501.1c0,0,5.1,0.9,5.1,0.9c3.3,0,8.9,0.4,12.1,0.3c0.9,0,1.2-0.4,1-1.2c-0.1-0.6-0.3-1.2-0.4-1.8
			c-8.2-33.6-29.2-72.1-52.9-97.2c-0.4-0.5-0.9-0.9-1.3-1.3c-0.5-0.6-1.1-0.9-1.9-0.9c-3.5,0-8.9-3.6-12.4-3.6
			c-4.3,0.1-8.9,12.2-6.9,16.1c0.5,1,3.6,3.1,4.2,4.2c8.2,16.1,18.1,36.9,26.3,53.1c5,9.8,9.4,19.2,14.3,29.1
			c1.4,2.8,1.5,4.2,4.6,4.2C336.2,502.9,338.6,501.1,341.6,501.1z"/>
		<path class="st14" d="M215.6,585.1c-6.1,0.1-26.1-8.7-31.8-7.4c-11.8,2.7-25.6,8.9-34.1,17.5c-2.3,2.3-11.9,9.4-13.8,12
			c-7.3,10-16.9,31.3-19.4,43.4c-0.2,1,8.9,3,9.7,3c2.9,0,5.9,0,8.8,0c0.7,0,1.2-0.4,1.3-1.1c0.3-1.3,0.5-2.7,0.8-4
			c6.7-28.4,34.5-49.3,66.9-43.4c22.9,4.2,40.6,21.7,45.6,44.5c0.2,0.9,0.4,1.9,0.5,2.8c0.1,0.7,0.5,1.2,1.2,1.2c2.7,0,5.5,0,8.2,0
			c0.5,0,8.8-1.2,8.7-1.6c-0.2-1.4-0.2-3.7-0.5-5.1c-2.1-10.2,0.7-20.8-5.1-29.5c-8.1-12.3-15.4-24.2-29.5-28.1
			C226.3,587.3,222.5,585.1,215.6,585.1z"/>
		<path class="st14" d="M340.8,666.8c6.7,0,13.5,0,20.2,0c0.9,0,1.9,0,2.8,0c5.8-0.3,10.2-4.4,10.5-10.2c0.2-3.8,0.2-7.6,0-11.3
			c-0.4-5.5-4.5-9.5-10-10c-0.6-0.1-1.3,0-1.9,0c-14.4,0-28.8,0-43.2,0c-4.3,0-5.3,1.1-5.4,5.5c0,6.9,0,13.9,0,20.8
			c0,0.6,0,1.3,0.1,1.9c0.2,1.8,1.4,3.1,3.3,3.3c0.8,0.1,1.7,0.1,2.5,0.1C326.7,666.8,333.7,666.8,340.8,666.8z"/>
		<path class="st14" d="M342.5,512.6c4.1,0,11.6-0.9,15.7-0.9c5.3,0,2.4-5.4,1.7-10.2c0-0.1,0-0.2-0.1-0.3c-0.4-1.5-0.5-1.7-2.2-1.7
			c-4.7,0-9.5,0-14.2,0c-1.9,0-3.8,0-5.7,0c-3-0.1-5.2-1.5-6.7-4c-0.4-0.7-0.8-1.5-1.2-2.2c-12.5-24.7-25-49.3-37.5-74
			c-1.1-2.2-2.4-4.5-3.4-6.8c-2.3-5.4,1.2-11,7.1-11.3c1-0.1,2.1,0,3.2,0c1.8-0.1,3.5,0.3,5.3-0.3c-0.5-2-2.4-2.7-3.6-4.1
			c-1-1.3-2.3-1.5-3.9-1.5c-7.5,0.1-14.9,0-22.4,0c-0.5,0-1.1,0-1.6,0.1c-0.5,0.1-0.8,0.4-0.6,0.9c0.3,0.8,0.7,1.5,1.1,2.3
			c3.7,7.3,7.4,14.6,11.1,21.9c11.3,22.2,22.5,44.4,33.7,66.7c2.8,5.4,5.5,10.9,8.2,16.4c1.2,2.4,1.1,2.5,3.9,2.5
			C335,505.9,338,512.6,342.5,512.6z"/>
		<path class="st14" d="M-260.6,651.1c0-3.4,0-6.7,0-10.1c0-0.7,0-1.5-0.1-2.2c-0.3-2.2,2.8-8.3,0.6-8.5c-0.3,0-7.3-0.6-7.6-0.6
			c-6.6,0-13.3-0.1-19.9,0c-6.7,0.1-12,10-12.1,16.6c-0.1,3,0,6.1,0,9.2c-0.1,7,5.2,11.5,11.3,11.3c0.2,0,0.4,0,0.6,0
			c6.2,0,12.4,0,18.6,0c0.6,0,1.3,0,1.9-0.1c3.4,0,6.2-1.4,6.5-3.3c0.1-0.7,0.1-1.5,0.1-2.2C-260.6,657.9-260.6,654.5-260.6,651.1z"
			/>
		<path class="st14" d="M363.6,540.1c0.1-7.8-0.5-15.5-1.3-23.3c-0.2-2.3-0.6-4.6-1-6.9c-0.2-1.4-0.4-1.5-1.9-1.6
			c-0.4,0-0.8,0-1.3,0c-8.9,0-17.9,0-26.8,0c-0.6,0-1.3,0-1.9,0c-0.7,0-1.2,0.4-1.1,1.2c0,1.4,0.1,2.7,0.1,4.1c0,1,0.4,1.6,1.2,2
			c0.4,0.2,0.7,0.4,1.1,0.7c15,9.3,25.5,22.3,31.4,39c0.2,0.6,0.4,1.2,0.7,1.7c0.1,0.1,0.3,0.2,0.5,0.2c0,0,0.1-0.1,0.2-0.2
			c0-0.4,0.1-0.8,0.1-1.3C363.6,550.6,363.6,545.4,363.6,540.1z"/>
		<path class="st14" d="M319.7,508.4c-1.5,0-2.9,0-4.4,0c-0.2,0-0.3,0.2-0.5,0.2c0.1,0.2,0.1,0.4,0.3,0.5c3.3,1.4,6.6,2.7,9.9,4
			c0.6,0.2,1-0.1,0.9-0.8c0-0.8,0-1.7-0.1-2.5c-0.1-1.1-0.5-1.4-1.7-1.4C322.6,508.4,321.1,508.4,319.7,508.4z"/>
		<path class="st14" d="M154,527.2c-3.7,0-7.3,0-11,0c-0.7,0-1.5,0-2.2-0.1c-2.4-0.3-4.2-2.4-4.1-4.8c0.1-2.3,1.8-4.2,4.1-4.5
			c0.6-0.1,1.3-0.1,1.9-0.1c7.5,0,15.1,0,22.6,0c0.5,0,1,0,1.6,0c2.7,0.2,4.4,2.2,4.4,4.8c0,2.4-1.8,4.3-4.3,4.5
			c-0.7,0.1-1.5,0-2.2,0C161.1,527.2,157.6,527.2,154,527.2z"/>
		<path class="st14" d="M153.8,520.3c-3.6,0-7.1,0-10.7,0c-0.7,0-1.5,0-2.2,0.1c-0.9,0.2-1.6,1.2-1.6,2.1c0,0.9,0.7,1.9,1.6,2.1
			c0.4,0.1,0.8,0.1,1.2,0.1c7.9,0,15.7,0,23.6,0c0.5,0,1.1,0,1.6-0.2c0.9-0.3,1.5-1.2,1.5-2.2c-0.1-0.9-0.6-1.6-1.4-1.9
			c-0.7-0.2-1.4-0.2-2.2-0.2C161.3,520.3,157.5,520.3,153.8,520.3z"/>
		<path class="st14" d="M193.1,699.1c20,0.2,37.4-16,37.4-37.2c0.1-20.1-16-37.2-37-37.3c-21.6-0.2-37.5,17.4-37.6,37.1
			C155.8,682.1,172.5,699.1,193.1,699.1z"/>
		<path class="st14" d="M193.8,401.1c16.3,0,32.6-0.1,48.9,0c8.9,0,16.3,3.6,22,10.6c1.3,1.6,2.3,3.3,3.2,5.1
			c8.4,16.5,16.7,33,25.1,49.5c0.7,1.3,1.3,2.6,2,3.9c0.7,1.2,0.8,1.4,1.8,0.4c0.3-0.3,0.6-0.6,1-0.8c2.1-1.2,4.6-0.2,5.4,2.1
			c0.3,0.8,0.3,1.6,0.3,2.5c0.1,1.4,0,2.7,0,4.1c0,0.8,0.2,1.3,1.2,1.5c3,0.7,3.8,1.7,3.9,4.8c0.1,4.1,0,8.2,0,12.3
			c0,1.3-0.2,2.5-1.1,3.5c-1.1,1.2-2.8,0.9-4,1.6c-1.1,0.6-1.6,2.2-3.1,2.4c-2.1,0.3-3.8-0.6-4.4-2.6c-0.2-0.5-0.2-1-0.3-1.5
			c-0.1-0.6-0.5-0.9-1.1-0.9c-1.1,0-2.1,0-3.2,0c-48.3,0-96.6,0-144.8,0c-1.2,0-2.3,0-3.5,0c-3.5-0.2-5.9-2.5-6.3-5.9
			c-0.1-0.8-0.1-1.7-0.1-2.5c0-27.1,0-54.3,0-81.4c0-0.7,0-1.5,0-2.2c0.3-3.6,2.8-6,6.3-6.3c0.8-0.1,1.7,0,2.5,0
			C161.7,401.1,177.8,401.1,193.8,401.1z"/>
		<path class="st14" d="M218.9,497c24.2,0,48.4,0,72.6,0c1,0,2.1,0,3.2-0.1c0.6,0,1-0.4,1-1c0.1-0.7,0.1-1.5,0.1-2.2
			c0-4.6,0-9.3,0-13.9c0-1.9-0.4-3.5-1.3-5.1c-3.9-7.7-7.8-15.4-11.7-23.1c-5.7-11.3-11.3-22.5-17.1-33.7
			c-4.9-9.4-12.8-14.3-23.4-14.4c-32.4-0.1-64.8,0-97.2,0c-0.7,0-1.5,0-2.2,0.1c-2.1,0.3-3.4,1.7-3.7,3.7c-0.1,0.7-0.1,1.5-0.1,2.2
			c0,2.9,0,5.9,0,8.8c0,23.9,0,47.7,0,71.6c0,1.2,0,2.3,0.1,3.5c0.3,1.9,1.7,3.2,3.6,3.4c1,0.1,2.1,0.1,3.2,0.1
			C170.3,497,194.6,497,218.9,497z"/>
		<path class="st14" d="M300.9,486.8L300.9,486.8c0-1.3,0-2.5,0-3.8c0-2.9,0-5.9,0-8.8c0-0.6-0.1-1.2-0.4-1.8
			c-0.4-0.6-1.5-0.6-1.9,0.1c-0.4,0.7-0.4,1.4-0.4,2.1c0,8.3,0,16.6,0,24.9c0,0.4,0,0.8,0.1,1.3c0.1,0.7,0.4,1.2,1.2,1.3
			c0.7,0.1,1.3-0.5,1.4-1.4c0.1-0.4,0.1-0.8,0.1-1.3C300.9,495.2,300.9,491,300.9,486.8z"/>
		<path class="st14" d="M306.1,491c0-2,0-4,0-6c0-0.7-0.1-1.4-0.6-2c-0.4-0.4-1.3-0.4-1.7,0.1c-0.5,0.6-0.5,1.4-0.5,2.1
			c0,3.9,0,7.7,0,11.6c0,0.6,0,1.3,0.3,1.8c0.2,0.4,0.6,0.6,1,0.7c0.4,0.1,0.8-0.2,1-0.5c0.4-0.5,0.4-1.2,0.4-1.8
			C306.1,494.9,306.1,492.9,306.1,491z"/>
		<path class="st14" d="M340.6,577.1c0.2-4.1,0.4-7.7,1.6-11.3c0.5-1.4,1-2.7,1.8-4c0.5-0.9,1.2-1.7,2-2.4c1.9-1.5,3.9-1.5,5.8,0
			c1,0.8,1.8,1.8,2.4,2.9c1.1,1.9,1.7,4,2.2,6.2c1.3,6.2,1.2,12.3-0.4,18.4c-0.4,1.4-1,2.8-1.6,4.1c-0.5,1.1-1.2,2-2,2.8
			c-2.2,2.1-4.8,2.1-7,0c-1.1-1-1.8-2.3-2.4-3.7c-0.9-2-1.4-4.2-1.8-6.3c-0.2-1-0.3-2.1-0.3-3.1
			C340.7,579.4,340.6,578.1,340.6,577.1z"/>
		<path class="st14" d="M343.1,577.2c0,0.7,0.1,2,0.2,3.2c0.2,2.7,0.7,5.4,1.7,8c0.4,1.2,1,2.3,1.8,3.3c1.4,1.6,2.8,1.7,4.2,0.1
			c0.9-1,1.5-2.3,2-3.6c0.9-2.4,1.3-4.9,1.6-7.3c0.5-5,0.1-9.8-1.4-14.6c-0.4-1.3-1-2.6-1.8-3.7c-1.6-2.1-3.2-2.2-4.8-0.1
			c-0.9,1.2-1.4,2.5-1.9,3.9C343.5,569.8,343.2,573.2,343.1,577.2z"/>
		<path class="st14" d="M97.8,410.3c0-0.7,0-1.5,0-2.2c-0.3-2.7-1.7-4.2-4.5-4.4c-1-0.1-2.1,0-3.2,0c-55,0-110,0-165,0
			c-0.5,0-1.1,0-1.6,0c-4.7-0.3-6.1,2.3-6.1,6.1c0.1,27.1,0,54.3,0,81.4c0,0.8,0,1.7,0.2,2.5c0.4,2.1,1.8,3.3,3.9,3.4
			c0.9,0.1,1.9,0,2.8,0c27.7,0,55.3,0,83,0c27.7,0,55.3,0,83,0c0.9,0,1.9,0,2.8,0c2.5-0.1,4.1-1.6,4.4-4c0.1-0.8,0.1-1.7,0.1-2.5
			C97.8,463.7,97.8,437,97.8,410.3z M93.4,486.8c-0.2,3.2-2.4,5.5-5.6,5.7c-0.9,0.1-1.9,0-2.8,0c-25.9,0-51.7,0-77.6,0
			c-25.7,0-51.3,0-77,0c-1,0-2.1,0.1-3.2-0.1c-2.9-0.3-5-2.5-5.3-5.3c-0.1-0.7,0-1.5,0-2.2c0-23,0-46.1,0-69.1c0-0.5,0-1.1,0-1.6
			c0.1-3.3,2-5.5,5.3-6.1c1.1-0.2,2.3-0.1,3.5-0.1c32.3,0,64.6,0,96.9,0c19,0,38.1,0,57.1,0c1,0,2.1-0.1,3.1,0.1
			c3.6,0.5,5.6,2.8,5.7,6.4c0,0.7,0,1.5,0,2.2c0,22.5,0,45,0,67.5C93.4,485.1,93.5,486,93.4,486.8z"/>
		<path class="st14" d="M7.5,490.1c25.7,0,51.3,0,77,0c0.9,0,1.9,0,2.8,0c2.2-0.2,3.5-1.5,3.6-3.6c0.1-0.7,0-1.5,0-2.2
			c0-22.6,0-45.2,0-67.8c0-0.6,0-1.3,0-1.9c-0.1-2.2-1.2-3.5-3.4-3.9c-1.1-0.2-2.3-0.1-3.5-0.1c-43,0-86,0-129,0
			c-8.3,0-16.6,0-24.9,0c-0.9,0-1.9,0-2.8,0.2c-1.9,0.4-2.9,1.6-3,3.5c-0.1,0.7,0,1.5,0,2.2c0,22.6,0,45.2,0,67.8c0,0.4,0,0.8,0,1.3
			c-0.3,2.8,1.6,4.8,4.7,4.5c0.8-0.1,1.7,0,2.5,0C-43.2,490.1-17.8,490.1,7.5,490.1z"/>
		<path class="st14" d="M193.3,682.5c11-0.2,20.6-8.7,20.5-20.8c-0.1-12.4-10.3-20.6-20.8-20.5c-10.7,0.1-20.6,8.5-20.5,20.8
			C172.6,674.1,182.4,682.4,193.3,682.5z"/>
		<polyline class="st14" points="-299.5,540.2 -97.7,540.2 -97.7,560.7 -298.7,560.7 		"/>
		<rect x="-95" y="540.2" class="st14" width="207.2" height="20.5"/>
		<polyline class="st14" points="-298.1,569.6 -97.7,569.6 -97.7,590.1 -296.3,590.1 		"/>
		<rect x="-95" y="569.6" class="st14" width="207.2" height="20.5"/>
	</g>
	<g>
		<path class="st15" d="M-182.3,717c30.5,0.2,55.1-24.9,55.3-54.8c0.2-30-24.2-55.3-54.9-55.5c-30.3-0.2-55.3,24.4-55.4,55
			C-237.5,692.4-212.5,717.1-182.3,717z"/>
		<path class="st16" d="M-182.4,699.1c20,0.2,37.4-16,37.4-37.2c0.1-20.1-16-37.2-37-37.3c-21.6-0.2-37.5,17.4-37.6,37.1
			C-219.6,682.2-202.9,699.2-182.4,699.1z"/>
		<path class="st15" d="M-182.1,682.6c11-0.2,20.6-8.7,20.5-20.8c-0.1-12.4-10.3-20.6-20.8-20.5c-10.7,0.1-20.6,8.5-20.5,20.8
			C-202.8,674.2-193,682.5-182.1,682.6z"/>
		<path class="st17" d="M-198.6,508.4c-32.1,0-64.2,0-96.3,0c-0.9,0-1.9,0-2.8,0c-1.4,0.1-1.7,0.3-1.7,1.7c-0.1,2.9-0.1,5.9-0.2,8.8
			c-0.2,12.1,0.2,24.2,0.7,36.3c0.4,8.6,1.1,17.2,1.7,25.8c0.4,5.1,1,10.3,1.6,15.4c0.9,7.6,1.9,15.2,2.8,22.9c0.5,4,1,7.9,1.6,11.9
			c0.2,1.7,0.3,1.7,2,1.7c6.7,0,13.5,0.2,20.2-0.1c5.2-0.2,7.9,2.9,7.7,7.7c-0.2,5.3,0,10.5,0,15.8c0,0.8,0,1.7,0,2.5
			c0.1,0.8,0.4,1.1,1.2,1.1c3.4-0.3,6.3-1.6,8.7-4c1.2-1.2,2.2-2.6,3-4c2.4-4.1,4.8-8.1,7.3-12.2c2.9-4.8,7-8,12.4-9.6
			c2.3-0.7,4.7-1,7.2-1c18.3,0,36.6,0,54.9,0c7.3,0,14.5,0,21.8,0c4.3,0,8.3,1.2,11.9,3.5c2.4,1.6,4.4,3.6,6.1,5.9
			c3.8,5.1,7.6,10.1,11.3,15.2c3.1,4.2,7.3,6.2,12.4,6.3c0.7,0,1.5,0,2.2,0c70.2,0,140.3,0,210.5,0c0.9,0,1.9,0,2.8,0
			c5.2-0.2,9-3.2,10.4-8.2c0.2-0.6,0.3-1.2,0.4-1.8c2.6-11.4,6.9-22,13.7-31.6c9-12.6,21-21.1,36-25.1c13.7-3.6,27.5-3.7,41.2-0.2
			c14.3,3.6,25.8,11.5,34.4,23.5c5.3,7.3,8.9,15.5,11.4,24.1c1.1,3.6,1.8,7.4,2.5,11.1c0.9,4.7,4.3,8,8.8,8.7c1,0.2,2.1,0.1,3.1,0.1
			c11,0,22.1,0,33.1,0c0.6,0,1.3,0,1.9,0c1.4-0.1,1.7-0.3,1.7-1.7c0-3.3,0-6.5,0-9.8c0-3.8,0.2-3.6-3.6-3.6c-10.4,0-20.8,0-31.2,0
			c-2.8,0-3,0.2-3.7-3c-2.9-13.9-8.4-26.7-16.9-38c-13-17.4-30.3-27.1-51.8-29.9c-4.9-0.6-9.9-0.8-14.8-0.8c-16.2-0.1-32.4,0-48.6,0
			c-1.2,0-2.3,0-3.5-0.1c-6.3-0.7-11.1-5.5-11.7-11.7c-0.1-1.3-0.1-2.5-0.1-3.8c0-15.1,0-30.3,0-45.4c0-1.1,0-2.1-0.1-3.2
			c0-0.6-0.4-1-1-1c-2.8,0-5.7,0-8.5,0c-0.8,0-1.1,0.5-1.1,1.2c0,1.2,0,2.3,0,3.5c0,42.1,0,84.2,0,126.2c0,1.2,0,2.3-0.1,3.5
			c-0.4,2.9-2.4,4.7-5.3,5c-0.8,0.1-1.7,0-2.5,0c-65.4,0-130.9,0-196.3,0c-0.7,0-1.5,0-2.2,0c-3.5-0.2-5.7-2.3-5.9-5.8
			c-0.1-0.9,0-1.9,0-2.8c0-42,0-83.9,0-125.9c0-5.7,0.8-4.9-4.8-4.9C-134.5,508.4-166.6,508.4-198.6,508.4z"/>
		<path class="st17" d="M8.6,508.4c-33.5,0-66.9,0-100.4,0c-3.6,0-3.4-0.2-3.4,3.4c0,42.7,0,85.4,0,128.1c0,0.6,0,1.3,0,1.9
			c0.2,2.1,1.3,3.3,3.4,3.5c0.7,0.1,1.5,0,2.2,0c65.4,0,130.9,0,196.3,0c0.5,0,1.1,0,1.6,0c2.6-0.1,3.7-1.3,3.9-3.9
			c0-0.8,0-1.7,0-2.5c0-42.1,0-84.2,0-126.2c0-4.9,0.4-4.2-4.2-4.2C74.9,508.4,41.8,508.4,8.6,508.4z"/>
		<path class="st16" d="M-198.7,505.9c32.4,0,64.8,0,97.2,0c4.2,0,3.8,0.4,3.8-3.9c0-34.2,0-68.4,0-102.5c0-0.9,0-1.9,0-2.8
			c0-0.7-0.4-1.2-1.2-1.2c-1.2,0-2.3,0-3.5,0c-60.1,0-120.1,0-180.2,0c-6.4,0-4.8-1-5.9,5.3c-1.1,6.7-2,13.5-3,20.3
			c-1.1,7.9-2.3,15.8-3.3,23.7c-1.1,9.1-2.1,18.2-2.8,27.3c-0.8,10-1.5,19.9-1.8,29.9c-0.1,4.5-0.6,4,4,4
			C-263,505.9-230.8,505.9-198.7,505.9z"/>
		<path class="st16" d="M9.3,392.8c97.1,0,194.2,0,291.2,0c1.2,0,2.3,0,3.5,0c4.9-0.2,8-3.2,8.5-8c0.2-2.4,0.4-4.8,0.5-7.2
			c0.1-1.6,0.1-3.2-0.1-4.7c-0.2-2.7-0.5-2.9-3.2-3.3c-8.6-1.3-17.2-2.7-25.9-3.7c-12.2-1.4-24.5-2.7-36.7-3.8
			c-11.7-1-23.5-1.8-35.2-2.5c-13.3-0.8-26.7-1.4-40-1.9c-14.7-0.5-29.4-0.9-44.1-1.2c-21.8-0.4-43.5-0.5-65.3-0.3
			c-18.3,0.1-36.6,0.1-54.9,0.5c-18.3,0.4-36.6,0.7-54.9,1.3c-18.9,0.6-37.8,1.1-56.7,2c-14.6,0.6-29.2,1.2-43.8,1.9
			c-12.6,0.6-25.2,1.2-37.8,1.9c-13.2,0.7-26.5,1.4-39.7,2.1c-3.8,0.2-7.6,0.4-11.3,0.7c-8.7,0.6-17.4,1.2-26.1,1.7
			c-11.9,0.7-21.9,9.3-24.1,20.9c-0.2,0.9-0.2,1.9-0.2,2.8c0,0.5,0.3,0.8,0.8,0.8c1.3,0.1,2.5,0.1,3.8,0.1
			C-185.3,392.8-88,392.8,9.3,392.8z"/>
		<path class="st17" d="M213.8,508.4c-21.7,0-43.3,0-65,0c-6.1,0-12.2,0-18.3,0c-2.5,0-2.5,0-2.5,2.4c0,0.4,0,0.8,0,1.3
			c0,15.5,0,30.9,0,46.4c0,1.1,0,2.1,0.1,3.2c0.5,5,4.5,8.9,9.5,9.5c1.1,0.1,2.3,0.1,3.5,0.1c16.2,0,32.4,0,48.6,0
			c6.4,0,12.8,0.4,19.2,1.5c19.9,3.5,36.1,13.2,48.5,29.3c6.5,8.5,11.3,17.9,14.8,28.1c1.3,3.8,2.3,7.6,3.2,11.5
			c0.2,0.8,0.5,1.3,1.4,1.3c0.6,0,1.3,0,1.9,0c9.9,0,19.8,0,29.7,0c0.6,0,1.3,0,1.9,0c0.7,0,1.2-0.3,1.2-1.1c0-0.8,0-1.7,0-2.5
			c-0.1-4,3.1-6.6,6.6-6.5c1.2,0,2.3,0,3.5,0c5.2-0.1,4.5,0.7,4.5-4.5c0-35.9,0-71.7,0-107.6c0-0.6-0.1-1.3,0-1.9
			c0.2-1.6-0.4-2.6-1.9-3.2c-0.6-0.2-1.1-0.6-1.7-0.8c-9.5-4.3-19.5-6.5-30-6.5C266.2,508.4,240,508.4,213.8,508.4z"/>
		<path class="st16" d="M8.3,505.9c33.5,0,66.9,0,100.4,0c3.7,0,3.6,0.4,3.6-3.6c0-34.4,0-68.8,0-103.2c0-0.8,0-1.7-0.1-2.5
			c0-0.7-0.4-1.2-1.2-1.2c-0.9,0-1.9,0-2.8,0c-27.9,0-55.8,0-83.6,0c-38.5,0-77,0-115.5,0c-1.1,0-2.1,0-3.2,0.1c-0.6,0-0.9,0.4-1,1
			c0,0.6-0.1,1.3-0.1,1.9c0,34.8,0,69.6,0,104.5c0,0.7,0,1.5,0.1,2.2c0,0.5,0.4,0.8,0.8,0.8c1,0.1,2.1,0.1,3.1,0.1
			C-58,505.9-24.8,505.9,8.3,505.9z"/>
		<path class="st15" d="M193.1,717c30.5,0.2,55.1-24.9,55.3-54.8c0.2-30-24.2-55.3-54.9-55.5c-30.3-0.2-55.3,24.4-55.4,55
			C138,692.4,163,717.1,193.1,717z"/>
		<path class="st16" d="M226.4,505.9C226.4,505.9,226.4,506,226.4,505.9c31.4,0.1,62.9,0.1,94.3,0.1c1,0,2.1,0,3.1-0.1
			c0.5,0,0.7-0.5,0.5-0.9c-0.4-1.1-0.9-2.1-1.4-3.2c-17.5-34.6-35-69.2-52.5-103.8c-1.6-3.1-1.1-2.7-4.6-2.7c-44.8,0-89.6,0-134.4,0
			c-0.6,0-1.3,0-1.9,0c-1.3,0.1-1.5,0.2-1.6,1.4c0,0.8,0,1.7,0,2.5c0,6.3,0,12.6,0,18.9c0,27.9,0,55.7,0,83.6c0,1,0,2.1,0.1,3.1
			c0,0.5,0.4,0.8,0.8,0.8c1,0.1,2.1,0.1,3.2,0.1C163.5,505.9,195,505.9,226.4,505.9z"/>
		<path class="st17" d="M328.5,575.4c0,18.2,0,36.4,0,54.6c0,2.8,0,2.8,2.8,2.8c9.6,0,19.1,0,28.7,0c3.9,0,3.6,0.3,3.6-3.5
			c0-16.3,0-32.6,0-48.9c0-4.4-0.3-8.8-1.1-13.2c-3.7-20.3-14.3-36.1-31.5-47.5c-0.5-0.3-1.1-0.7-1.6-0.9c-0.4-0.2-0.9,0-0.9,0.5
			c-0.1,1-0.1,2.1-0.1,3.2C328.5,540.1,328.5,557.8,328.5,575.4z"/>
		<path class="st18" d="M347.8,497.1C347.8,497.1,347.8,497.1,347.8,497.1c3.3,0,6.5,0,9.8,0c0.9,0,1.2-0.4,1-1.2
			c-0.1-0.6-0.3-1.2-0.4-1.8c-8.2-33.6-24.3-63-48-88.2c-0.4-0.5-0.9-0.9-1.3-1.3c-0.5-0.6-1.1-0.9-1.9-0.9c-3.5,0-6.9,0-10.4,0
			c-4.3,0.1-7,4.3-5,8.3c0.5,1,1,2.1,1.5,3.1c8.2,16.1,16.3,32.3,24.5,48.4c5,9.8,10,19.7,14.9,29.5c1.4,2.8,3.4,4.1,6.5,4.1
			C341.9,497,344.9,497.1,347.8,497.1z"/>
		<path class="st16" d="M194.3,593c-6.1,0.1-11.9,0.6-17.7,1.9c-11.8,2.7-22,8.1-30.6,16.7c-2.3,2.3-4.4,4.8-6.4,7.4
			c-7.3,10-11.8,21.3-14.2,33.4c-0.2,1-0.1,1.3,0.8,1.3c2.9,0,5.9,0,8.8,0c0.7,0,1.2-0.4,1.3-1.1c0.3-1.3,0.5-2.7,0.8-4
			c6.7-28.4,34.5-49.3,66.9-43.4c22.9,4.2,40.6,21.7,45.6,44.5c0.2,0.9,0.4,1.9,0.5,2.8c0.1,0.7,0.5,1.2,1.2,1.2c2.7,0,5.5,0,8.2,0
			c0.5,0,0.8-0.4,0.7-0.9c-0.2-1.4-0.4-2.7-0.6-4c-2.1-10.2-5.6-19.8-11.3-28.6c-8.1-12.3-19.1-20.5-33.3-24.5
			C208.1,593.8,201.2,593,194.3,593z"/>
		<path class="st16" d="M340.8,666.9c6.7,0,13.5,0,20.2,0c0.9,0,1.9,0,2.8,0c5.8-0.3,10.2-4.4,10.5-10.2c0.2-3.8,0.2-7.6,0-11.3
			c-0.4-5.5-4.5-9.5-10-10c-0.6-0.1-1.3,0-1.9,0c-14.4,0-28.8,0-43.2,0c-4.3,0-5.3,1.1-5.4,5.5c0,6.9,0,13.9,0,20.8
			c0,0.6,0,1.3,0.1,1.9c0.2,1.8,1.4,3.1,3.3,3.3c0.8,0.1,1.7,0.1,2.5,0.1C326.7,666.9,333.8,666.9,340.8,666.9z"/>
		<path class="st16" d="M344.1,506c4.1,0,8.2,0,12.3,0c5.3,0,4.3,0.4,3.5-4.4c0-0.1,0-0.2-0.1-0.3c-0.4-1.5-0.5-1.7-2.2-1.7
			c-4.7,0-9.5,0-14.2,0c-1.9,0-3.8,0-5.7,0c-3-0.1-5.2-1.5-6.7-4c-0.4-0.7-0.8-1.5-1.2-2.2c-12.5-24.7-25-49.3-37.5-74
			c-1.1-2.2-2.4-4.5-3.4-6.8c-2.3-5.4,1.2-11,7.1-11.3c1-0.1,2.1,0,3.2,0c1.8-0.1,3.5,0.3,5.3-0.3c-0.5-2-2.4-2.7-3.6-4.1
			c-1-1.3-2.3-1.5-3.9-1.5c-7.5,0.1-14.9,0-22.4,0c-0.5,0-1.1,0-1.6,0.1c-0.5,0.1-0.8,0.4-0.6,0.9c0.3,0.8,0.7,1.5,1.1,2.3
			c3.7,7.3,7.4,14.6,11.1,21.9c11.3,22.2,22.5,44.4,33.7,66.7c2.8,5.4,5.5,10.9,8.2,16.4c1.2,2.4,1.1,2.5,3.9,2.5
			C335,506,339.6,506,344.1,506z"/>
		<path class="st16" d="M114.7,450.6c0,16.7,0,33.4,0,50.2c0,0.7,0,1.5,0,2.2c0,2.8,0,2.8,2.7,2.9c1.4,0,2.7,0,4.1,0
			c4.1,0,3.9,0.5,3.9-3.9c0-34.3,0-68.6,0-102.9c0-0.5,0-1.1,0-1.6c-0.1-2.1-0.2-2.2-2.1-2.2c-1.6,0-3.2,0-4.7,0
			c-4.3,0-3.9-0.5-3.9,3.9C114.7,416.4,114.7,433.5,114.7,450.6z"/>
		<path class="st16" d="M-263.8,651.2c0-3.4,0-6.7,0-10.1c0-0.7,0-1.5-0.1-2.2c-0.3-2.2-1.5-3.3-3.7-3.6c-0.3,0-0.6,0-0.9,0
			c-6.6,0-13.3-0.1-19.9,0c-6.7,0.1-11.1,4.4-11.2,11.1c-0.1,3,0,6.1,0,9.2c-0.1,7,5.2,11.5,11.3,11.3c0.2,0,0.4,0,0.6,0
			c6.2,0,12.4,0,18.6,0c0.6,0,1.3,0,1.9-0.1c1.9-0.3,3-1.4,3.3-3.3c0.1-0.7,0.1-1.5,0.1-2.2C-263.8,657.9-263.8,654.5-263.8,651.2z"
			/>
		<path class="st14" d="M363.6,540.2c0.1-7.8-0.5-15.5-1.3-23.3c-0.2-2.3-0.6-4.6-1-6.9c-0.2-1.4-0.4-1.5-1.9-1.6
			c-0.4,0-0.8,0-1.3,0c-8.9,0-17.9,0-26.8,0c-0.6,0-1.3,0-1.9,0c-0.7,0-1.2,0.4-1.1,1.2c0,1.4,0.1,2.7,0.1,4.1c0,1,0.4,1.6,1.2,2
			c0.4,0.2,0.7,0.4,1.1,0.7c15,9.3,25.5,22.3,31.4,39c0.2,0.6,0.4,1.2,0.7,1.7c0.1,0.1,0.3,0.2,0.5,0.2c0,0,0.1-0.1,0.2-0.2
			c0-0.4,0.1-0.8,0.1-1.3C363.6,550.7,363.6,545.4,363.6,540.2z"/>
		<path class="st14" d="M319.7,508.5c-1.5,0-2.9,0-4.4,0c-0.2,0-0.3,0.2-0.5,0.2c0.1,0.2,0.1,0.4,0.3,0.5c3.3,1.4,6.6,2.7,9.9,4
			c0.6,0.2,1-0.1,0.9-0.8c0-0.8,0-1.7-0.1-2.5c-0.1-1.1-0.5-1.4-1.7-1.4C322.6,508.5,321.2,508.5,319.7,508.5z"/>
		<path class="st19" d="M154.1,527.3c-3.7,0-7.3,0-11,0c-0.7,0-1.5,0-2.2-0.1c-2.4-0.3-4.2-2.4-4.1-4.8c0.1-2.3,1.8-4.2,4.1-4.5
			c0.6-0.1,1.3-0.1,1.9-0.1c7.5,0,15.1,0,22.6,0c0.5,0,1,0,1.6,0c2.7,0.2,4.4,2.2,4.4,4.8c0,2.4-1.8,4.3-4.3,4.5
			c-0.7,0.1-1.5,0-2.2,0C161.2,527.3,157.6,527.3,154.1,527.3z"/>
		<path class="st14" d="M153.8,520.4c-3.6,0-7.1,0-10.7,0c-0.7,0-1.5,0-2.2,0.1c-0.9,0.2-1.6,1.2-1.6,2.1c0,0.9,0.7,1.9,1.6,2.1
			c0.4,0.1,0.8,0.1,1.2,0.1c7.9,0,15.7,0,23.6,0c0.5,0,1.1,0,1.6-0.2c0.9-0.3,1.5-1.2,1.5-2.2c-0.1-0.9-0.6-1.6-1.4-1.9
			c-0.7-0.2-1.4-0.2-2.2-0.2C161.4,520.3,157.6,520.4,153.8,520.4z"/>
		<path class="st16" d="M193.1,699.1c20,0.2,37.4-16,37.4-37.2c0.1-20.1-16-37.2-37-37.3c-21.6-0.2-37.5,17.4-37.6,37.1
			C155.8,682.2,172.5,699.2,193.1,699.1z"/>
		<path class="st14" d="M193.9,401.2c16.3,0,32.6-0.1,48.9,0c8.9,0,16.3,3.6,22,10.6c1.3,1.6,2.3,3.3,3.2,5.1
			c8.4,16.5,16.7,33,25.1,49.5c0.7,1.3,1.3,2.6,2,3.9c0.7,1.2,0.8,1.4,1.8,0.4c0.3-0.3,0.6-0.6,1-0.8c2.1-1.2,4.6-0.2,5.4,2.1
			c0.3,0.8,0.3,1.6,0.3,2.5c0.1,1.4,0,2.7,0,4.1c0,0.8,0.2,1.3,1.2,1.5c3,0.7,3.8,1.7,3.9,4.8c0.1,4.1,0,8.2,0,12.3
			c0,1.3-0.2,2.5-1.1,3.5c-1.1,1.2-2.8,0.9-4,1.6c-1.1,0.6-1.6,2.2-3.1,2.4c-2.1,0.3-3.8-0.6-4.4-2.6c-0.2-0.5-0.2-1-0.3-1.5
			c-0.1-0.6-0.5-0.9-1.1-0.9c-1.1,0-2.1,0-3.2,0c-48.3,0-96.6,0-144.8,0c-1.2,0-2.3,0-3.5,0c-3.5-0.2-5.9-2.5-6.3-5.9
			c-0.1-0.8-0.1-1.7-0.1-2.5c0-27.1,0-54.3,0-81.4c0-0.7,0-1.5,0-2.2c0.3-3.6,2.8-6,6.3-6.3c0.8-0.1,1.7,0,2.5,0
			C161.7,401.2,177.8,401.2,193.9,401.2z"/>
		<path class="st18" d="M219,497.1c24.2,0,48.4,0,72.6,0c1,0,2.1,0,3.2-0.1c0.6,0,1-0.4,1-1c0.1-0.7,0.1-1.5,0.1-2.2
			c0-4.6,0-9.3,0-13.9c0-1.9-0.4-3.5-1.3-5.1c-3.9-7.7-7.8-15.4-11.7-23.1c-5.7-11.3-11.3-22.5-17.1-33.7
			c-4.9-9.4-12.8-14.3-23.4-14.4c-32.4-0.1-64.8,0-97.2,0c-0.7,0-1.5,0-2.2,0.1c-2.1,0.3-3.4,1.7-3.7,3.7c-0.1,0.7-0.1,1.5-0.1,2.2
			c0,2.9,0,5.9,0,8.8c0,23.9,0,47.7,0,71.6c0,1.2,0,2.3,0.1,3.5c0.3,1.9,1.7,3.2,3.6,3.4c1,0.1,2.1,0.1,3.2,0.1
			C170.4,497.1,194.7,497.1,219,497.1z"/>
		<path class="st19" d="M301,486.9L301,486.9c0-1.3,0-2.5,0-3.8c0-2.9,0-5.9,0-8.8c0-0.6-0.1-1.2-0.4-1.8c-0.4-0.6-1.5-0.6-1.9,0.1
			c-0.4,0.7-0.4,1.4-0.4,2.1c0,8.3,0,16.6,0,24.9c0,0.4,0,0.8,0.1,1.3c0.1,0.7,0.4,1.2,1.2,1.3c0.7,0.1,1.3-0.5,1.4-1.4
			c0.1-0.4,0.1-0.8,0.1-1.3C301,495.3,301,491.1,301,486.9z"/>
		<path class="st19" d="M306.1,491c0-2,0-4,0-6c0-0.7-0.1-1.4-0.6-2c-0.4-0.4-1.3-0.4-1.7,0.1c-0.5,0.6-0.5,1.4-0.5,2.1
			c0,3.9,0,7.7,0,11.6c0,0.6,0,1.3,0.3,1.8c0.2,0.4,0.6,0.6,1,0.7c0.4,0.1,0.8-0.2,1-0.5c0.4-0.5,0.4-1.2,0.4-1.8
			C306.1,495,306.1,493,306.1,491z"/>
		<path class="st20" d="M340.6,577.2c0.2-4.1,0.4-7.7,1.6-11.3c0.5-1.4,1-2.7,1.8-4c0.5-0.9,1.2-1.7,2-2.4c1.9-1.5,3.9-1.5,5.8,0
			c1,0.8,1.8,1.8,2.4,2.9c1.1,1.9,1.7,4,2.2,6.2c1.3,6.2,1.2,12.3-0.4,18.4c-0.4,1.4-1,2.8-1.6,4.1c-0.5,1.1-1.2,2-2,2.8
			c-2.2,2.1-4.8,2.1-7,0c-1.1-1-1.8-2.3-2.4-3.7c-0.9-2-1.4-4.2-1.8-6.3c-0.2-1-0.3-2.1-0.3-3.1
			C340.8,579.5,340.7,578.1,340.6,577.2z"/>
		<path class="st18" d="M343.1,577.3c0,0.7,0.1,2,0.2,3.2c0.2,2.7,0.7,5.4,1.7,8c0.4,1.2,1,2.3,1.8,3.3c1.4,1.6,2.8,1.7,4.2,0.1
			c0.9-1,1.5-2.3,2-3.6c0.9-2.4,1.3-4.9,1.6-7.3c0.5-5,0.1-9.8-1.4-14.6c-0.4-1.3-1-2.6-1.8-3.7c-1.6-2.1-3.2-2.2-4.8-0.1
			c-0.9,1.2-1.4,2.5-1.9,3.9C343.5,569.8,343.3,573.3,343.1,577.3z"/>
		<path class="st19" d="M97.8,410.4c0-0.7,0-1.5,0-2.2c-0.3-2.7-1.7-4.2-4.5-4.4c-1-0.1-2.1,0-3.2,0c-55,0-110,0-165,0
			c-0.5,0-1.1,0-1.6,0c-4.7-0.3-6.1,2.3-6.1,6.1c0.1,27.1,0,54.3,0,81.4c0,0.8,0,1.7,0.2,2.5c0.4,2.1,1.8,3.3,3.9,3.4
			c0.9,0.1,1.9,0,2.8,0c27.7,0,55.3,0,83,0c27.7,0,55.3,0,83,0c0.9,0,1.9,0,2.8,0c2.5-0.1,4.1-1.6,4.4-4c0.1-0.8,0.1-1.7,0.1-2.5
			C97.8,463.8,97.8,437.1,97.8,410.4z M93.5,486.9c-0.2,3.2-2.4,5.5-5.6,5.7c-0.9,0.1-1.9,0-2.8,0c-25.9,0-51.7,0-77.6,0
			c-25.7,0-51.3,0-77,0c-1,0-2.1,0.1-3.2-0.1c-2.9-0.3-5-2.5-5.3-5.3c-0.1-0.7,0-1.5,0-2.2c0-23,0-46.1,0-69.1c0-0.5,0-1.1,0-1.6
			c0.1-3.3,2-5.5,5.3-6.1c1.1-0.2,2.3-0.1,3.5-0.1c32.3,0,64.6,0,96.9,0c19,0,38.1,0,57.1,0c1,0,2.1-0.1,3.1,0.1
			c3.6,0.5,5.6,2.8,5.7,6.4c0,0.7,0,1.5,0,2.2c0,22.5,0,45,0,67.5C93.5,485.2,93.5,486,93.5,486.9z"/>
		<path class="st18" d="M7.6,490.2c25.7,0,51.3,0,77,0c0.9,0,1.9,0,2.8,0c2.2-0.2,3.5-1.5,3.6-3.6c0.1-0.7,0-1.5,0-2.2
			c0-22.6,0-45.2,0-67.8c0-0.6,0-1.3,0-1.9c-0.1-2.2-1.2-3.5-3.4-3.9c-1.1-0.2-2.3-0.1-3.5-0.1c-43,0-86,0-129,0
			c-8.3,0-16.6,0-24.9,0c-0.9,0-1.9,0-2.8,0.2c-1.9,0.4-2.9,1.6-3,3.5c-0.1,0.7,0,1.5,0,2.2c0,22.6,0,45.2,0,67.8c0,0.4,0,0.8,0,1.3
			c-0.3,2.8,1.6,4.8,4.7,4.5c0.8-0.1,1.7,0,2.5,0C-43.1,490.2-17.8,490.2,7.6,490.2z"/>
		<path class="st15" d="M193.4,682.6c11-0.2,20.6-8.7,20.5-20.8c-0.1-12.4-10.3-20.6-20.8-20.5c-10.7,0.1-20.6,8.5-20.5,20.8
			C172.7,674.2,182.5,682.5,193.4,682.6z"/>
		<polyline class="st16" points="-299.5,540.3 -97.6,540.3 -97.6,560.8 -298.6,560.8 		"/>
		<rect x="-95" y="540.3" class="st16" width="207.2" height="20.5"/>
		<polyline class="st16" points="-298,569.6 -97.6,569.6 -97.6,590.1 -296.3,590.1 		"/>
		<rect x="-95" y="569.6" class="st16" width="207.2" height="20.5"/>
	</g>
</g>
<g id="wiese">
	<path class="st21" d="M249,690.2C-54.5,678.3,38,438-54.5,332.8C-229.2,133.9-601,380-601,380l50,709l1429-16l-31-472
		c0,0-272-187-384-27.2C439.4,607.5,421.4,697,249,690.2z"/>
</g>
<g id="Layer_4" class="st22">
	
		<image style="display:inline;overflow:visible;" width="428" height="926" xlink:href="../../../../../Downloads/StartView.vue.jpg"  transform="matrix(1 0 0 1 1 1)">
	</image>
</g>
</svg>
