<?xml version="1.0" encoding="utf-8"?>
<!-- Generator: Adobe Illustrator 28.3.0, SVG Export Plug-In . SVG Version: 6.00 Build 0)  -->
<svg version="1.1" xmlns="http://www.w3.org/2000/svg" xmlns:xlink="http://www.w3.org/1999/xlink" x="0px" y="0px"
	 viewBox="0 0 1920 1080" style="enable-background:new 0 0 1920 1080;" xml:space="preserve">
<style type="text/css">
	.st0{fill:#EFE0C5;}
	.st1{fill:#969695;}
	.st2{fill:#FBECCD;}
	.st3{fill:#FF5B22;}
	.st4{fill:#BED8E5;}
	.st5{fill:#F7EFE2;}
	.st6{fill:#F9F9E2;}
</style>
<g id="Layer_1">
	<g>
		<path class="st0" d="M483.5,930.8c66.1,0.4,119.4-53.9,119.8-118.7c0.4-65.1-52.4-119.9-119-120.3
			c-65.6-0.3-119.9,52.9-120.1,119.1C364,877.4,418.2,931,483.5,930.8z"/>
		<path class="st0" d="M483.4,892.1c43.3,0.4,81-34.7,81.1-80.6c0.1-43.6-34.7-80.6-80.2-80.9c-46.8-0.3-81.3,37.7-81.5,80.3
			C402.7,855.3,438.9,892.1,483.4,892.1z"/>
		<path class="st0" d="M484,856.2c23.8-0.5,44.7-18.9,44.5-45.1c-0.2-26.9-22.3-44.7-45-44.5c-23.2,0.1-44.7,18.5-44.5,45
			C439.1,838,460.3,856,484,856.2z"/>
		<path class="st0" d="M448.1,478.6c-69.5,0-139.1,0-208.6,0c-2.1,0-4.1,0-6.2,0c-3,0.1-3.6,0.6-3.7,3.7c-0.2,6.4-0.3,12.8-0.4,19.1
			c-0.5,26.2,0.4,52.4,1.6,78.6c0.8,18.7,2.3,37.3,3.8,55.9c0.9,11.1,2.1,22.2,3.4,33.3c1.9,16.5,4,33,6.1,49.5
			c1.1,8.6,2.2,17.2,3.4,25.8c0.5,3.6,0.8,3.7,4.3,3.7c14.6,0,29.2,0.4,43.8-0.1c11.2-0.4,17.1,6.3,16.8,16.6
			c-0.4,11.4-0.1,22.8-0.1,34.2c0,1.8,0,3.6,0.1,5.5c0.1,1.8,0.9,2.5,2.6,2.3c7.3-0.7,13.6-3.5,18.9-8.6c2.7-2.5,4.7-5.6,6.6-8.7
			c5.2-8.8,10.5-17.6,15.8-26.4c6.3-10.4,15.3-17.4,26.9-20.9c5.1-1.5,10.2-2.1,15.5-2.1c39.7,0,79.3,0,119,0c15.7,0,31.5,0,47.2,0
			c9.3,0,18,2.5,25.9,7.6c5.3,3.4,9.5,7.7,13.2,12.7c8.1,11,16.4,21.9,24.5,32.9c6.7,9.1,15.8,13.5,27,13.6c1.6,0,3.2,0,4.8,0
			c152.1,0,304.1,0,456.2,0c2,0,4.1,0,6.2-0.1c11.2-0.5,19.4-6.9,22.5-17.7c0.4-1.3,0.6-2.7,0.9-4c5.6-24.7,15-47.8,29.7-68.5
			c19.5-27.4,45.5-45.8,78-54.4c29.6-7.8,59.5-8,89.3-0.5c31.1,7.8,56,24.9,74.7,50.9c11.4,15.9,19.3,33.5,24.8,52.2
			c2.3,7.9,3.9,15.9,5.4,24c2,10.2,9.2,17.2,19.1,18.9c2.2,0.4,4.5,0.3,6.8,0.3c23.9,0,47.9,0,71.8,0c1.4,0,2.7,0,4.1,0
			c3-0.1,3.6-0.6,3.7-3.6c0.1-7.1,0-14.1,0-21.2c0-8.2,0.4-7.7-7.9-7.7c-22.6,0-45.1,0-67.7,0c-6.1,0-6.5,0.4-7.9-6.5
			c-6.3-30.1-18.1-57.8-36.5-82.5c-28.1-37.6-65.8-58.7-112.2-64.7c-10.7-1.4-21.4-1.7-32.1-1.8c-35.1-0.1-70.2,0-105.3-0.1
			c-2.5,0-5,0-7.5-0.3c-13.6-1.5-24-11.9-25.4-25.5c-0.3-2.7-0.3-5.5-0.3-8.2c0-32.8,0-65.7,0-98.5c0-2.3-0.1-4.6-0.2-6.8
			c-0.1-1.3-0.8-2.2-2.1-2.2c-6.2-0.1-12.3,0-18.5,0c-1.7,0-2.4,1.1-2.4,2.6c-0.1,2.5-0.1,5-0.1,7.5c0,91.2,0,182.4,0,273.6
			c0,2.5,0.1,5-0.3,7.5c-0.9,6.2-5.3,10.2-11.5,10.8c-1.8,0.2-3.6,0.1-5.5,0.1c-141.8,0-283.6,0-425.4,0c-1.6,0-3.2,0.1-4.8,0
			c-7.5-0.4-12.3-5.1-12.8-12.5c-0.1-2,0-4.1,0-6.2c0-91,23-183.2,0-272.9c36-20.3,1.7-10.6-10.3-10.6
			C587.2,478.6,517.6,478.6,448.1,478.6z"/>
		<path class="st0" d="M909.9,492c-72.5,0-144.4-34-216.9-34c-7.9,0-36,26.2-36,34c0,92.6-5,195.4-5,288c0,1.4,24.9,11.6,25,13
			c0.4,4.5,11-4.7,15.4-4.2c1.6,0.2,3.2,0.1,4.8,0.1c141.8,0,283.6,0,425.4,0c1.1,0,2.3,0,3.4,0c5.7-0.3,8.1-2.7,8.4-8.6
			c0.1-1.8,0-3.6,0-5.5c0-91.2,0-182.4,0-273.6c64.3-33.5,0.8-9.2-9.1-9.2C1053.6,492,981.8,492,909.9,492z"/>
		<path class="st0" d="M452,487c70.2,0,136.8,9,207,9c9.2,0,57-36.5,57-46c0-74.1-49-133.5-49-207.6c0-2.1,0-4.1-0.1-6.2
			c0-1.6-0.8-2.6-2.5-2.6c-2.5-0.1-5-0.1-7.5-0.1c-130.2,0-260.3,0-390.5,0c-13.9,0-10.5-2.2-12.8,11.4c-2.4,14.6-4.4,29.3-6.4,43.9
			c-2.4,17.1-5,34.3-7.2,51.4c-2.5,19.7-4.5,39.4-6.1,59.2c-1.7,21.6-3.2,43.2-3.8,64.8c-0.3,9.7-2.1,25.5,7.8,25.5
			C307.8,490,382.2,487,452,487z"/>
		<path class="st0" d="M900,242c210.4,0,414.6-6,625-6c2.5,0,10-7.7,12.5-7.8c10.5-0.5,17.4-6.9,18.5-17.4
			c0.5-5.2,0.9-10.4,1.2-15.7c0.2-3.4,0.2-6.8-0.1-10.2c-0.5-5.8-1-6.3-7-7.1c-18.7-2.7-37.4-5.8-56.1-8c-26.5-3.1-53-5.9-79.5-8.2
			c-25.4-2.2-50.9-4-76.4-5.5c-28.9-1.7-57.8-3.1-86.7-4.1c-31.9-1.2-63.8-2-95.7-2.6c-47.2-0.8-94.4-1-141.5-0.7
			c-39.7,0.2-79.3,0.3-119,1.1c-39.6,0.8-79.3,1.6-118.9,2.8c-41,1.2-82,2.5-123,4.3c-31.6,1.4-63.3,2.7-94.9,4.1
			c-27.3,1.3-54.6,2.7-81.9,4.1c-28.7,1.5-57.4,3.1-86,4.6c-8.2,0.4-16.4,1-24.6,1.5c-18.9,1.2-37.7,2.6-56.6,3.7
			c-25.8,1.5-47.4,20.1-52.3,45.3c-0.4,2-0.4,4.1-0.5,6.1c0,1-1.2,9.7-0.2,9.7c2.7,0.1,7.3,6,10,6C476.9,242,689.1,242,900,242z"/>
		<path class="st0" d="M1324.1,480c-47,0-93.9,0-140.9,0c-13.2,0-26.4,0-39.7,0c-5.3,0-5.3,0.1-5.4,5.3c0,0.9,0,1.8,0,2.7
			c-19,32.3,0,67,0,100.5c0,2.3,0,4.6,0.3,6.8c1.2,10.8,9.7,19.4,20.6,20.5c2.5,0.3-1.4,21.1,1.1,21.1c35.1,0,73.9-0.1,109,0
			c13.9,0,27.2,2.6,41,5c43.2,7.7,81.5,6.1,108.3,40.9c14.2,18.4,24.5,38.9,32,60.9c2.8,8.2,5,16.6,6.9,25c0.4,1.8,1.2,2.9,3.1,2.9
			c1.4,0,3.4,12.3,4.7,12.3c21.4,0,43.6-2,65-2c1.4,0,4.6,7.1,6,7c1.6-0.1-1,8.7-1,7c0-1.8,6,14.8,6,13h30c2.5,0.1-2.5-37,0-37
			c11.2-0.2,97,2.2,97-9c-2-85-3-171.3-3-249c0-1.4-93.1-26.6-93-28c0.3-3.4-5.7,11-9,9.8c-1.3-0.4-2.5-1.2-3.7-1.8
			c-20.6-9.4-42.3-14.1-64.9-14.1C1437.6,480,1380.8,480,1324.1,480z"/>
		<path class="st0" d="M885,493c72.5,0,145.5,26,218,26c7.9,0,78-14.2,78-23c59.1,0,38.1-264-21-264c0-1.8-48.2,6.1-48.2,4.3
			c-0.1-1.6-0.9-2.5-2.5-2.6c-2.1-0.1-4.1-0.1-6.2-0.1c-60.4,0-120.8,0-181.2,0c-83.4,0-166.9,0-250.3,0c-2.3,0-4.6,0-6.8,0.1
			c-1.3,0.1-2,0.9-2.1,2.2c-0.1,1.4-0.1,2.7-0.1,4.1c0,75.5,0,150.9,0,226.4c0,1.6,0.1,3.2,0.2,4.8c0.1,1,0.8,1.7,1.8,1.8
			c2.3,0.1,4.5,0.2,6.8,0.2C743,473.3,813.2,493,885,493z"/>
		<path class="st0" d="M1297.2,930.8c66.1,0.4,119.4-53.9,119.8-118.7c0.4-65.1-52.4-119.9-119-120.3
			c-65.6-0.3-119.9,52.9-120.1,119.1C1177.7,877.4,1231.9,931,1297.2,930.8z"/>
		<path class="st0" d="M1372,484c0,0.1,7,0.9,7,1c72.7,16.5,133.8,16,202,16c2.3,0,35.7-25.8,38-26c1.1-0.1,2.4-17.1,2-18
			c-0.9-2.3-23.9-4.8-25-7c-38-75-70-153-108-228c-3.4-6.7-25.6,11.6-33.1,11.6c-97.1,0-194.2,0-291.3,0c-1.4,0-2.7,0-4.1,0
			c-2.8,0.1-3.3,0.5-3.4,3.1c-0.1,1.8-0.1,3.6-0.1,5.5c0,13.7,0,27.4,0,41c0,60.4,0,120.8,0,181.2c0,2.3,0.1,4.5,0.2,6.8
			c0.1,1,0.8,1.7,1.8,1.8c2.3,0.1,4.6,0.2,6.8,0.2C1229,491,1303.8,484,1372,484z"/>
		<path class="st0" d="M1590.5,624c0,39.4,0,78.9,0,118.3c0,6,0.1,6,6.1,6c20.7,0,41.5,0,62.2,0c8.3,0,7.9,0.6,7.9-7.7
			c0-35.3,0-70.7,0-106c0-9.6-0.7-19.1-2.4-28.6c-8-44-31-78.2-68.2-103c-1.1-0.8-2.3-1.5-3.6-2c-0.9-0.4-1.9,0-1.9,1.2
			c-0.1,2.3-0.2,4.6-0.2,6.8C1590.5,547.4,1590.5,585.7,1590.5,624z"/>
		<path class="st0" d="M1619,463c0,0,11,2,11,2c7.1,0,19.3,0.8,26.3,0.8c1.9,0,2.5-0.8,2.2-2.6c-0.2-1.3-0.6-2.7-0.9-4
			c-17.8-72.9-63.2-156.2-114.7-210.7c-0.9-1-1.9-1.9-2.9-2.9c-1.1-1.2-2.5-1.9-4.2-1.8c-7.5,0-19.3-7.9-26.8-7.7
			c-9.4,0.2-19.3,26.4-15,35c1.1,2.2,7.9,6.8,9,9c17.7,35,39.3,80.1,57,115c10.8,21.3,20.3,41.6,31,63c3,6,3.3,9.2,10,9
			C1607.4,466.8,1612.6,463,1619,463z"/>
		<path class="st0" d="M1346,645c-13.2,0.1-56.5-18.8-69-16c-25.5,5.8-55.5,19.3-74,38c-5,5-25.8,20.3-30,26
			c-15.8,21.7-36.7,67.8-42,94c-0.4,2.2,19.3,6.6,21.1,6.6c6.4,0.1,12.8,0.1,19.1,0.1c1.5,0,2.5-0.8,2.9-2.4
			c0.6-2.9,1.1-5.8,1.7-8.7c14.4-61.5,74.7-106.8,144.9-94c49.6,9.1,88,47.1,98.8,96.3c0.4,2,0.8,4,1.2,6c0.3,1.5,1,2.7,2.6,2.7
			c5.9,0.1,11.8,0,17.8-0.1c1,0,19.1-2.5,18.9-3.5c-0.4-2.9-0.4-8.1-1-11c-4.5-22.1,1.4-45.1-11-64c-17.5-26.6-33.3-52.3-64-61
			C1369.2,649.8,1361,645.1,1346,645z"/>
		<path class="st0" d="M1617.3,822.1c14.6,0,29.2,0,43.7,0c2.1,0,4.1,0,6.2-0.1c12.7-0.6,22-9.4,22.7-22c0.4-8.2,0.5-16.4,0-24.6
			c-0.8-12-9.7-20.6-21.7-21.6c-1.4-0.1-2.7-0.1-4.1-0.1c-31.2,0-62.4,0-93.6,0c-9.3,0-11.6,2.4-11.6,11.8c0,15,0,30.1,0,45.1
			c0,1.4-0.1,2.7,0.1,4.1c0.5,4,3.1,6.6,7.1,7.2c1.8,0.2,3.6,0.2,5.5,0.2C1586.7,822.1,1602,822.1,1617.3,822.1z"/>
		<path class="st0" d="M1621,488c8.9,0,25.1-2,34-2c11.4,0,5.3-11.7,3.6-22.1c0-0.2-0.1-0.5-0.1-0.7c-0.8-3.2-1.2-3.6-4.7-3.6
			c-10.3-0.1-20.5,0-30.8,0c-4.1,0-8.2,0.1-12.3-0.1c-6.4-0.2-11.3-3.2-14.6-8.6c-0.9-1.6-1.7-3.2-2.6-4.8
			c-27.1-53.4-54.1-106.9-81.2-160.4c-2.5-4.9-5.2-9.7-7.3-14.7c-5-11.7,2.6-23.8,15.3-24.6c2.3-0.1,4.6,0.1,6.8-0.1
			c3.8-0.2,7.7,0.6,11.4-0.6c-1-4.3-5.2-5.8-7.7-8.9c-2.2-2.7-5.1-3.3-8.5-3.3c-16.2,0.1-32.4,0.1-48.6,0.1c-1.1,0-2.3,0-3.4,0.1
			c-1,0.1-1.7,0.8-1.2,1.8c0.7,1.7,1.5,3.3,2.3,5c8,15.9,16.1,31.7,24.1,47.5c24.4,48.2,48.8,96.3,73.1,144.5
			c6,11.8,11.9,23.6,17.7,35.5c2.6,5.3,2.4,5.4,8.5,5.4C1604.8,473.5,1611.2,488,1621,488z"/>
		<path class="st0" d="M313.9,788.1c0-7.3,0-14.6,0-21.9c0-1.6,0.1-3.2-0.1-4.8c-0.6-4.7,6.1-18,1.3-18.5
			c-0.7-0.1-15.7-1.3-16.4-1.3c-14.4,0-28.7-0.1-43.1,0c-14.5,0.2-26,21.6-26.3,36c-0.2,6.6,0,13.2,0,19.8
			c-0.1,15.1,11.2,24.9,24.6,24.5c0.5,0,0.9,0,1.4,0c13.5,0,26.9,0,40.4,0c1.4,0,2.8,0,4.1-0.2c7.5,0,13.5-3.1,14.2-7.1
			c0.2-1.6,0.2-3.2,0.2-4.8C313.9,802.7,313.9,795.4,313.9,788.1z"/>
		<path class="st0" d="M1666.8,547.6c0.2-16.9-1.1-33.7-2.9-50.4c-0.5-5-1.3-9.9-2.2-14.9c-0.5-3.1-0.8-3.2-4.1-3.4
			c-0.9,0-1.8,0-2.7,0c-19.4,0-38.7,0-58.1,0c-1.4,0-2.7,0-4.1,0.1c-1.6,0.1-2.5,1-2.5,2.6c0.1,3,0.3,5.9,0.3,8.9
			c0,2.1,0.9,3.4,2.6,4.4c0.8,0.4,1.6,0.9,2.3,1.4c32.6,20.1,55.3,48.3,68.1,84.4c0.5,1.3,0.9,2.6,1.5,3.8c0.1,0.3,0.7,0.4,1.1,0.5
			c0.1,0,0.3-0.3,0.3-0.4c0.1-0.9,0.2-1.8,0.2-2.7C1666.8,570.3,1666.8,558.9,1666.8,547.6z"/>
		<path class="st0" d="M1571.6,478.9c-3.2,0-6.4,0-9.5,0c-0.4,0-0.7,0.3-1,0.5c0.2,0.4,0.3,0.9,0.6,1.1c7.1,2.9,14.2,5.8,21.4,8.7
			c1.2,0.5,2.1-0.2,2-1.8c0-1.8-0.1-3.6-0.3-5.4c-0.3-2.3-1.1-3-3.6-3.1C1577.9,478.8,1574.7,478.9,1571.6,478.9z"/>
		<path class="st0" d="M1212.5,519.7c-8,0-15.9,0-23.9,0c-1.6,0-3.2,0.1-4.8-0.1c-5.3-0.7-9-5.1-8.9-10.4c0.1-4.9,3.8-9.1,8.8-9.8
			c1.3-0.2,2.7-0.1,4.1-0.1c16.4,0,32.7,0,49.1,0c1.1,0,2.3,0,3.4,0.1c5.8,0.5,9.6,4.8,9.5,10.4c-0.1,5.3-3.9,9.3-9.4,9.8
			c-1.6,0.2-3.2,0.1-4.8,0.1C1228,519.7,1220.3,519.7,1212.5,519.7z"/>
		<path class="st0" d="M1212,504.6c-7.7,0-15.4,0-23.2,0c-1.6,0-3.2,0-4.7,0.3c-2,0.4-3.5,2.5-3.5,4.5c0,2,1.5,4.1,3.5,4.6
			c0.9,0.2,1.8,0.3,2.7,0.3c17,0,34.1,0,51.1,0c1.1,0,2.3-0.1,3.4-0.4c2-0.6,3.3-2.7,3.2-4.7c-0.1-2.1-1.3-3.5-3.1-4
			c-1.5-0.5-3.1-0.5-4.7-0.5C1228.3,504.6,1220.2,504.6,1212,504.6z"/>
		<path class="st0" d="M1297.1,892.1c43.3,0.4,81-34.7,81.1-80.6c0.1-43.6-34.7-80.6-80.2-80.9c-46.8-0.3-81.2,37.7-81.5,80.3
			C1216.4,855.3,1252.6,892.1,1297.1,892.1z"/>
		<path class="st0" d="M1298.9,246.4c35.3,0,70.7-0.1,106,0.1c19.4,0.1,35.3,7.8,47.6,22.9c2.7,3.4,4.9,7.1,6.9,11
			c18.1,35.8,36.2,71.6,54.3,107.3c1.4,2.8,2.8,5.7,4.4,8.5c1.5,2.7,1.6,2.9,3.8,0.8c0.6-0.6,1.4-1.2,2.2-1.7
			c4.6-2.5,10-0.5,11.6,4.5c0.5,1.7,0.6,3.6,0.7,5.4c0.1,3,0.1,5.9,0.1,8.9c0,1.8,0.5,2.8,2.6,3.2c6.5,1.5,8.3,3.7,8.4,10.3
			c0.1,8.9,0,17.8,0,26.7c0,2.8-0.5,5.4-2.4,7.6c-2.3,2.7-6,1.9-8.6,3.4c-2.4,1.4-3.4,4.7-6.8,5.2c-4.6,0.7-8.1-1.3-9.6-5.7
			c-0.3-1.1-0.4-2.2-0.6-3.4c-0.2-1.3-1.1-1.9-2.4-1.9c-2.3,0-4.6-0.1-6.8-0.1c-104.6,0-209.3,0-313.9,0c-2.5,0-5,0.1-7.5-0.1
			c-7.5-0.5-12.8-5.4-13.8-12.8c-0.2-1.8-0.1-3.6-0.1-5.5c0-58.8,0-117.6,0-176.5c0-1.6-0.1-3.2,0.1-4.8c0.7-7.7,6-13,13.8-13.6
			c1.8-0.1,3.6-0.1,5.5-0.1C1229.1,246.4,1264,246.4,1298.9,246.4z"/>
		<path class="st0" d="M1353.2,454.2c52.4,0,104.8,0,157.2,0c2.3,0,4.6,0,6.8-0.1c1.3,0,2.1-0.8,2.2-2.1c0.1-1.6,0.2-3.2,0.2-4.8
			c0-10-0.1-20.1,0.1-30.1c0.1-4-0.9-7.5-2.7-11.1c-8.5-16.6-16.9-33.3-25.4-50c-12.3-24.4-24.5-48.8-37.1-73.1
			c-10.6-20.5-27.7-31.1-50.7-31.1c-70.2-0.2-140.4-0.1-210.6-0.1c-1.6,0-3.2-0.1-4.8,0.1c-4.5,0.7-7.4,3.6-8,8.1
			c-0.2,1.6-0.2,3.2-0.2,4.8c0,6.4,0,12.8,0,19.1c0,51.7,0,103.5,0,155.2c0,2.5-0.1,5,0.3,7.5c0.6,4.1,3.7,6.9,7.8,7.4
			c2.3,0.3,4.6,0.2,6.8,0.2C1247.9,454.2,1300.6,454.2,1353.2,454.2z"/>
		<path class="st0" d="M1530.9,432.1L1530.9,432.1c-0.1-2.7-0.1-5.5-0.1-8.2c0-6.4,0-12.7,0.1-19.1c0-1.4-0.2-2.7-1-3.9
			c-0.9-1.3-3.2-1.2-4,0.2c-0.9,1.5-0.8,3.1-0.8,4.6c0,18,0,36,0,53.9c0,0.9,0,1.8,0.2,2.7c0.2,1.5,0.9,2.6,2.5,2.8
			c1.6,0.2,2.8-1,3-3c0.1-0.9,0.1-1.8,0.1-2.7C1530.9,450.3,1530.9,441.2,1530.9,432.1z"/>
		<path class="st0" d="M1542.1,441c0-4.3,0-8.6,0-12.9c0-1.6-0.2-3.1-1.4-4.4c-0.9-1-2.8-0.9-3.6,0.2c-1,1.4-1.1,2.9-1.1,4.5
			c0,8.4,0,16.8,0,25.1c0,1.4,0,2.7,0.7,4c0.5,0.9,1.2,1.4,2.1,1.5c0.9,0.1,1.7-0.4,2.3-1.2c0.9-1.2,1-2.5,1-3.9
			C1542.1,449.6,1542.1,445.3,1542.1,441z"/>
		<path class="st0" d="M1616.9,627.8c0.5-8.8,0.9-16.8,3.5-24.4c1-3,2.2-6,3.9-8.7c1.2-2,2.6-3.7,4.4-5.1c4.1-3.2,8.4-3.2,12.5,0
			c2.2,1.7,3.8,3.9,5.1,6.3c2.3,4.2,3.8,8.8,4.8,13.5c2.8,13.4,2.6,26.7-0.9,39.9c-0.8,3.1-2.1,6-3.4,8.9c-1,2.3-2.5,4.3-4.3,6.1
			c-4.8,4.6-10.4,4.6-15.2,0c-2.3-2.2-3.9-5-5.2-7.9c-2-4.4-3.1-9-4-13.7c-0.4-2.2-0.6-4.5-0.7-6.8
			C1617.2,632.8,1617,629.9,1616.9,627.8z"/>
		<path class="st0" d="M1622.3,627.9c0.1,1.6,0.3,4.3,0.4,7c0.3,5.9,1.6,11.7,3.6,17.3c0.9,2.6,2.1,5,4,7.1c3.1,3.6,6.1,3.6,9.1,0.1
			c2-2.3,3.2-4.9,4.3-7.7c2-5.1,2.9-10.5,3.5-15.9c1.2-10.7,0.2-21.3-3.1-31.6c-0.9-2.8-2.1-5.5-3.9-7.9c-3.5-4.6-6.9-4.7-10.4-0.1
			c-2,2.6-3.1,5.5-4.2,8.5C1623.2,611.8,1622.7,619.3,1622.3,627.9z"/>
		<path class="st0" d="M1090.7,266.3c0-1.6,0.1-3.2-0.1-4.8c-0.6-5.8-3.8-9.1-9.7-9.6c-2.3-0.2-4.6-0.1-6.8-0.1
			c-119.2,0-238.4,0-357.7,0c-1.1,0-2.3,0.1-3.4,0c-10.2-0.6-13.2,4.9-13.2,13.1c0.1,58.8,0.1,117.6,0.1,176.4c0,1.8,0,3.7,0.4,5.4
			c1,4.5,4,7.1,8.6,7.4c2,0.1,4.1,0.1,6.2,0.1c60,0,119.9,0,179.9,0c59.9,0,119.9,0,179.9,0c2.1,0,4.1,0.1,6.2,0
			c5.5-0.3,8.9-3.4,9.6-8.7c0.2-1.8,0.1-3.6,0.1-5.5C1090.7,382.1,1090.7,324.2,1090.7,266.3z M1081.2,432
			c-0.4,6.9-5.3,11.9-12.2,12.4c-2,0.2-4.1,0.1-6.1,0.1c-56.1,0-112.1,0-168.2,0c-55.6,0-111.2,0-166.9,0c-2.3,0-4.6,0.1-6.8-0.1
			c-6.3-0.6-10.9-5.4-11.5-11.6c-0.1-1.6-0.1-3.2-0.1-4.8c0-49.9,0-99.8,0-149.8c0-1.1,0-2.3,0-3.4c0.3-7.1,4.4-12,11.5-13.1
			c2.4-0.4,5-0.3,7.5-0.3c70,0,140,0,209.9,0c41.3,0,82.5,0,123.8,0c2.3,0,4.6-0.1,6.8,0.2c7.8,1,12.1,6,12.3,13.8
			c0,1.6,0,3.2,0,4.8c0,48.8,0,97.6,0,146.3C1081.2,428.4,1081.3,430.2,1081.2,432z"/>
		<path class="st0" d="M895,439.1c55.6,0,111.2,0,166.8,0c2.1,0,4.1,0.1,6.1-0.1c4.7-0.4,7.5-3.1,7.9-7.8c0.1-1.6,0-3.2,0-4.8
			c0-49,0-98,0-147c0-1.4,0.1-2.7,0-4.1c-0.3-4.8-2.6-7.6-7.4-8.4c-2.5-0.4-5-0.3-7.5-0.3c-93.2,0-186.4,0-279.6,0c-18,0-36,0-54,0
			c-2,0-4.1,0-6.1,0.4c-4.1,0.9-6.2,3.5-6.5,7.7c-0.1,1.6,0,3.2,0,4.8c0,49,0,98,0,147c0,0.9,0.1,1.8,0,2.7
			c-0.7,6.1,3.6,10.4,10.1,9.8c1.8-0.2,3.6,0,5.5,0C785.2,439.1,840.1,439.1,895,439.1z"/>
		<path class="st0" d="M1297.7,856.2c23.8-0.5,44.7-18.9,44.5-45.1c-0.2-26.9-22.2-44.7-45-44.5c-23.2,0.1-44.7,18.5-44.5,45
			C1252.9,838,1274.1,856,1297.7,856.2z"/>
		<polyline class="st0" points="229.6,547.8 667.1,547.8 667.1,592.2 231.5,592.2 		"/>
		<rect x="672.7" y="547.8" class="st0" width="449.1" height="44.4"/>
		<polyline class="st0" points="232.7,611.4 667.1,611.4 667.1,655.8 236.5,655.8 		"/>
		<rect x="672.7" y="611.4" class="st0" width="449.1" height="44.4"/>
	</g>
</g>
<g id="Layer_2">
	<g>
		<path class="st1" d="M483.6,930.9c66.1,0.4,119.4-53.9,119.8-118.7c0.4-65.1-52.4-119.9-119-120.3
			c-65.6-0.3-119.9,52.9-120.1,119.1C364.1,877.5,418.3,931.2,483.6,930.9z"/>
		<path class="st2" d="M483.5,892.2c43.3,0.4,81-34.7,81.1-80.6c0.1-43.6-34.7-80.6-80.2-80.9c-46.8-0.3-81.3,37.7-81.5,80.3
			C402.8,855.5,439,892.3,483.5,892.2z"/>
		<path class="st1" d="M484.1,856.3c23.8-0.5,44.7-18.9,44.5-45.1c-0.2-26.9-22.2-44.7-45-44.5c-23.2,0.1-44.7,18.5-44.5,45
			C439.2,838.1,460.4,856.2,484.1,856.3z"/>
		<path class="st3" d="M448.2,478.8c-69.5,0-139.1,0-208.6,0c-2.1,0-4.1,0-6.2,0c-3,0.1-3.6,0.6-3.7,3.7c-0.2,6.4-0.3,12.8-0.4,19.1
			c-0.5,26.2,0.4,52.4,1.6,78.6c0.8,18.7,2.3,37.3,3.8,55.9c0.9,11.1,2.1,22.2,3.4,33.3c1.9,16.5,4,33,6.1,49.5
			c1.1,8.6,2.2,17.2,3.4,25.8c0.5,3.6,0.8,3.7,4.3,3.7c14.6,0,29.2,0.4,43.8-0.1c11.2-0.4,17.1,6.3,16.8,16.6
			c-0.4,11.4-0.1,22.8-0.1,34.2c0,1.8,0,3.6,0.1,5.5c0.1,1.8,0.9,2.5,2.6,2.3c7.3-0.7,13.6-3.5,18.9-8.6c2.7-2.5,4.7-5.6,6.6-8.7
			c5.2-8.8,10.5-17.6,15.8-26.4c6.3-10.4,15.3-17.4,26.9-20.9c5.1-1.5,10.2-2.1,15.5-2.1c39.7,0,79.3,0,119,0c15.7,0,31.5,0,47.2,0
			c9.3,0,18,2.5,25.9,7.6c5.3,3.4,9.5,7.7,13.2,12.7c8.1,11,16.4,21.9,24.5,32.9c6.7,9.1,15.8,13.5,27,13.6c1.6,0,3.2,0,4.8,0
			c152.1,0,304.1,0,456.2,0c2,0,4.1,0,6.2-0.1c11.2-0.5,19.4-6.9,22.5-17.7c0.4-1.3,0.6-2.7,0.9-4c5.6-24.7,15-47.8,29.7-68.5
			c19.5-27.4,45.5-45.8,78-54.4c29.6-7.8,59.5-8,89.3-0.5c31.1,7.8,56,24.9,74.7,50.9c11.4,15.9,19.3,33.5,24.8,52.2
			c2.3,7.9,3.9,15.9,5.4,24c2,10.2,9.2,17.2,19.1,18.9c2.2,0.4,4.5,0.3,6.8,0.3c23.9,0,47.9,0,71.8,0c1.4,0,2.7,0,4.1,0
			c3-0.1,3.6-0.6,3.7-3.6c0.1-7.1,0-14.1,0-21.2c0-8.2,0.4-7.7-7.9-7.7c-22.6,0-45.1,0-67.7,0c-6.1,0-6.5,0.4-7.9-6.5
			c-6.3-30.1-18.1-57.8-36.5-82.5c-28.1-37.6-65.8-58.7-112.2-64.7c-10.7-1.4-21.4-1.7-32.1-1.8c-35.1-0.1-70.2,0-105.3-0.1
			c-2.5,0-5,0-7.5-0.3c-13.6-1.5-24-11.9-25.4-25.5c-0.3-2.7-0.3-5.5-0.3-8.2c0-32.8,0-65.7,0-98.5c0-2.3-0.1-4.6-0.2-6.8
			c-0.1-1.3-0.8-2.2-2.1-2.2c-6.2-0.1-12.3,0-18.5,0c-1.7,0-2.4,1.1-2.4,2.6c-0.1,2.5-0.1,5-0.1,7.5c0,91.2,0,182.4,0,273.6
			c0,2.5,0.1,5-0.3,7.5c-0.9,6.2-5.3,10.2-11.5,10.8c-1.8,0.2-3.6,0.1-5.5,0.1c-141.8,0-283.6,0-425.4,0c-1.6,0-3.2,0.1-4.8,0
			c-7.5-0.4-12.3-5.1-12.8-12.5c-0.1-2,0-4.1,0-6.2c0-91,0-181.9,0-272.9c0-12.4,1.7-10.6-10.3-10.6
			C587.3,478.7,517.7,478.8,448.2,478.8z"/>
		<path class="st3" d="M897.4,478.8c-72.5,0-145,0-217.5,0c-7.9,0-7.4-0.4-7.4,7.5c0,92.6,0,185.1,0,277.7c0,1.4-0.1,2.7,0.1,4.1
			c0.4,4.5,2.9,7.1,7.3,7.5c1.6,0.2,3.2,0.1,4.8,0.1c141.8,0,283.6,0,425.4,0c1.1,0,2.3,0,3.4,0c5.7-0.3,8.1-2.7,8.4-8.6
			c0.1-1.8,0-3.6,0-5.5c0-91.2,0-182.4,0-273.6c0-10.6,0.8-9.2-9.1-9.2C1041.1,478.7,969.3,478.8,897.4,478.8z"/>
		<path class="st2" d="M448.2,473.4c70.2,0,140.4,0,210.6,0c9.2,0,8.3,0.9,8.3-8.5c0-74.1,0-148.2,0-222.3c0-2.1,0-4.1-0.1-6.2
			c0-1.6-0.8-2.6-2.5-2.6c-2.5-0.1-5-0.1-7.5-0.1c-130.2,0-260.3,0-390.5,0c-13.9,0-10.5-2.2-12.8,11.4c-2.4,14.6-4.4,29.3-6.4,43.9
			c-2.4,17.1-5,34.3-7.2,51.4c-2.5,19.7-4.5,39.4-6.1,59.2c-1.7,21.6-3.2,43.2-3.8,64.8c-0.3,9.7-1.3,8.8,8.6,8.8
			C308.7,473.4,378.4,473.4,448.2,473.4z"/>
		<path class="st2" d="M898.9,228.4c210.4,0,420.8,0,631.2,0c2.5,0,5,0.1,7.5,0c10.5-0.5,17.4-6.9,18.5-17.4
			c0.5-5.2,0.9-10.4,1.2-15.7c0.2-3.4,0.2-6.8-0.1-10.2c-0.5-5.8-1-6.3-7-7.1c-18.7-2.7-37.4-5.8-56.1-8c-26.5-3.1-53-5.9-79.5-8.2
			c-25.4-2.2-50.9-4-76.4-5.5c-28.9-1.7-57.8-3.1-86.7-4.1c-31.9-1.2-63.8-2-95.7-2.6c-47.2-0.8-94.4-1-141.5-0.7
			c-39.7,0.2-79.3,0.3-119,1.1c-39.6,0.8-79.3,1.6-118.9,2.8c-41,1.2-82,2.5-123,4.3c-31.6,1.4-63.3,2.7-94.9,4.1
			c-27.3,1.3-54.6,2.7-81.9,4.1c-28.7,1.5-57.4,3.1-86,4.6c-8.2,0.4-16.4,1-24.6,1.5c-18.9,1.2-37.7,2.6-56.6,3.7
			c-25.8,1.5-47.4,20.1-52.3,45.3c-0.4,2-0.4,4.1-0.5,6.1c0,1,0.7,1.7,1.7,1.8c2.7,0.1,5.5,0.2,8.2,0.2
			C477.1,228.4,688,228.4,898.9,228.4z"/>
		<path class="st3" d="M1342.2,478.8c-47,0-93.9,0-140.9,0c-13.2,0-26.4,0-39.7,0c-5.3,0-5.3,0.1-5.4,5.3c0,0.9,0,1.8,0,2.7
			c0,33.5,0,67,0,100.5c0,2.3,0,4.6,0.3,6.8c1.2,10.8,9.7,19.4,20.6,20.5c2.5,0.3,5,0.2,7.5,0.2c35.1,0,70.2-0.1,105.3,0.1
			c13.9,0,27.8,0.8,41.5,3.2c43.2,7.7,78.3,28.7,105.1,63.5c14.2,18.4,24.5,38.9,32,60.9c2.8,8.2,5,16.6,6.9,25
			c0.4,1.8,1.2,2.9,3.1,2.9c1.4,0,2.7,0,4.1,0c21.4,0,42.9,0,64.3,0c1.4,0,2.7,0,4.1-0.1c1.6-0.1,2.6-0.8,2.6-2.5
			c0-1.8,0.1-3.6,0.1-5.5c-0.1-8.7,6.7-14.3,14.3-14c2.5,0.1,5,0,7.5,0c11.2-0.2,9.8,1.5,9.8-9.7c0-77.7,0-155.5,0-233.2
			c0-1.4-0.1-2.7,0-4.1c0.3-3.4-0.9-5.7-4.2-6.8c-1.3-0.4-2.5-1.2-3.7-1.8c-20.6-9.4-42.3-14.1-64.9-14.1
			C1455.7,478.8,1398.9,478.8,1342.2,478.8z"/>
		<path class="st2" d="M896.7,473.4c72.5,0,145,0,217.5,0c7.9,0,7.7,0.9,7.7-7.8c0-74.6,0-149.1,0-223.7c0-1.8,0-3.6-0.1-5.5
			c-0.1-1.6-0.9-2.5-2.5-2.6c-2.1-0.1-4.1-0.1-6.2-0.1c-60.4,0-120.8,0-181.2,0c-83.4,0-166.9,0-250.3,0c-2.3,0-4.6,0-6.8,0.1
			c-1.3,0.1-2,0.9-2.1,2.2c-0.1,1.4-0.1,2.7-0.1,4.1c0,75.5,0,150.9,0,226.4c0,1.6,0.1,3.2,0.2,4.8c0.1,1,0.8,1.7,1.8,1.8
			c2.3,0.1,4.5,0.2,6.8,0.2C753.1,473.4,824.9,473.4,896.7,473.4z"/>
		<path class="st1" d="M1297.3,930.9c66.1,0.4,119.4-53.9,119.8-118.7c0.4-65.1-52.4-119.9-119-120.3
			c-65.6-0.3-119.9,52.9-120.1,119.1C1177.8,877.5,1232,931.2,1297.3,930.9z"/>
		<path class="st2" d="M1369.4,473.4c0,0.1,0,0.1,0,0.2c68.2,0,136.3,0,204.5,0c2.3,0,4.6,0,6.8-0.2c1.1-0.1,1.6-1,1.2-2
			c-0.9-2.3-2-4.6-3.1-6.8c-38-75-75.9-150-113.9-225c-3.4-6.7-2.4-5.8-9.9-5.8c-97.1,0-194.2,0-291.3,0c-1.4,0-2.7,0-4.1,0
			c-2.8,0.1-3.3,0.5-3.4,3.1c-0.1,1.8-0.1,3.6-0.1,5.5c0,13.7,0,27.4,0,41c0,60.4,0,120.8,0,181.2c0,2.3,0.1,4.5,0.2,6.8
			c0.1,1,0.8,1.7,1.8,1.8c2.3,0.1,4.6,0.2,6.8,0.2C1233.1,473.4,1301.3,473.4,1369.4,473.4z"/>
		<path class="st3" d="M1590.6,624.1c0,39.4,0,78.9,0,118.3c0,6,0.1,6,6.1,6c20.7,0,41.5,0,62.2,0c8.3,0,7.9,0.6,7.9-7.7
			c0-35.3,0-70.7,0-106c0-9.6-0.7-19.1-2.4-28.6c-8-44-31-78.2-68.2-103c-1.1-0.8-2.3-1.5-3.6-2c-0.9-0.4-1.9,0-1.9,1.2
			c-0.1,2.3-0.2,4.6-0.2,6.8C1590.6,547.5,1590.6,585.8,1590.6,624.1z"/>
		<path class="st4" d="M1632.6,454.3C1632.6,454.3,1632.6,454.3,1632.6,454.3c7.1-0.1,14.1,0,21.2-0.1c1.9,0,2.5-0.8,2.2-2.6
			c-0.2-1.3-0.6-2.7-0.9-4c-17.8-72.9-52.6-136.5-104.1-191.1c-0.9-1-1.9-1.9-2.9-2.9c-1.1-1.2-2.5-1.9-4.2-1.8
			c-7.5,0-15-0.1-22.6,0c-9.4,0.2-15.1,9.4-10.8,18c1.1,2.2,2.2,4.5,3.3,6.7c17.7,35,35.4,69.9,53.1,104.9
			c10.8,21.3,21.7,42.6,32.4,64c3,6,7.3,9,14,8.8C1619.8,454.2,1626.2,454.3,1632.6,454.3z"/>
		<path class="st2" d="M1299.7,662.1c-13.2,0.1-25.9,1.3-38.3,4.2c-25.5,5.8-47.8,17.5-66.2,36.2c-5,5-9.6,10.4-13.8,16.1
			c-15.8,21.7-25.5,46.1-30.9,72.4c-0.4,2.2-0.1,2.8,1.7,2.8c6.4,0.1,12.8,0.1,19.1,0.1c1.5,0,2.5-0.8,2.9-2.4
			c0.6-2.9,1.1-5.8,1.7-8.7c14.4-61.5,74.7-106.8,144.9-94c49.6,9.1,88,47.1,98.8,96.3c0.4,2,0.8,4,1.2,6c0.3,1.5,1,2.7,2.6,2.7
			c5.9,0.1,11.8,0,17.8-0.1c1,0,1.7-0.8,1.5-1.8c-0.4-2.9-0.8-5.9-1.4-8.8c-4.5-22.1-12.1-42.9-24.5-61.9
			c-17.5-26.6-41.4-44.5-72.1-53.1C1329.9,663.9,1314.7,662.3,1299.7,662.1z"/>
		<path class="st2" d="M1617.4,822.2c14.6,0,29.2,0,43.7,0c2.1,0,4.1,0,6.2-0.1c12.7-0.6,22-9.4,22.7-22c0.4-8.2,0.5-16.4,0-24.6
			c-0.8-12-9.7-20.6-21.7-21.6c-1.4-0.1-2.7-0.1-4.1-0.1c-31.2,0-62.4,0-93.6,0c-9.3,0-11.6,2.4-11.6,11.8c0,15,0,30.1,0,45.1
			c0,1.4-0.1,2.7,0.1,4.1c0.5,4,3.1,6.6,7.1,7.2c1.8,0.2,3.6,0.2,5.5,0.2C1586.8,822.3,1602.1,822.2,1617.4,822.2z"/>
		<path class="st2" d="M1624.5,473.6c8.9,0,17.8,0,26.7,0c11.4,0,9.2,0.9,7.6-9.6c0-0.2-0.1-0.5-0.1-0.7c-0.8-3.2-1.2-3.6-4.7-3.6
			c-10.3-0.1-20.5,0-30.8,0c-4.1,0-8.2,0.1-12.3-0.1c-6.4-0.2-11.3-3.2-14.6-8.6c-0.9-1.6-1.7-3.2-2.6-4.8
			c-27.1-53.4-54.1-106.9-81.2-160.4c-2.5-4.9-5.2-9.7-7.3-14.7c-5-11.7,2.6-23.8,15.3-24.6c2.3-0.1,4.6,0.1,6.8-0.1
			c3.8-0.2,7.7,0.6,11.4-0.6c-1-4.3-5.2-5.8-7.7-8.9c-2.2-2.7-5.1-3.3-8.5-3.3c-16.2,0.1-32.4,0.1-48.6,0.1c-1.1,0-2.3,0-3.4,0.1
			c-1,0.1-1.7,0.8-1.2,1.8c0.7,1.7,1.5,3.3,2.3,5c8,15.9,16.1,31.7,24.1,47.5c24.4,48.2,48.8,96.3,73.1,144.5
			c6,11.8,11.9,23.6,17.7,35.5c2.6,5.3,2.4,5.4,8.5,5.4C1604.9,473.6,1614.7,473.6,1624.5,473.6z"/>
		<path class="st2" d="M1127.4,353.7c0,36.2,0,72.5,0,108.7c0,1.6,0,3.2,0,4.8c0.1,6.1,0.1,6.1,5.9,6.2c3,0,5.9,0,8.9,0
			c9-0.1,8.5,1.2,8.5-8.4c0-74.3,0-148.6,0-222.9c0-1.1,0-2.3,0-3.4c-0.1-4.5-0.3-4.7-4.6-4.8c-3.4-0.1-6.8,0-10.3,0
			c-9.3,0.1-8.4-1-8.4,8.4C1127.4,279.3,1127.4,316.5,1127.4,353.7z"/>
		<path class="st2" d="M307,788.3c0-7.3,0-14.6,0-21.9c0-1.6,0.1-3.2-0.1-4.8c-0.6-4.7-3.3-7.2-8.1-7.7c-0.7-0.1-1.4,0-2.1,0
			c-14.4,0-28.7-0.1-43.1,0c-14.5,0.2-24,9.6-24.3,24c-0.2,6.6,0,13.2,0,19.8c-0.1,15.1,11.2,24.9,24.6,24.5c0.5,0,0.9,0,1.4,0
			c13.5,0,26.9,0,40.4,0c1.4,0,2.8,0,4.1-0.2c4-0.6,6.5-3.1,7.2-7.1c0.2-1.6,0.2-3.2,0.2-4.8C307,802.9,307,795.6,307,788.3z"/>
		<path class="st0" d="M1666.9,547.7c0.2-16.9-1.1-33.7-2.9-50.4c-0.5-5-1.3-9.9-2.2-14.9c-0.5-3.1-0.8-3.2-4.1-3.4
			c-0.9,0-1.8,0-2.7,0c-19.4,0-38.7,0-58.1,0c-1.4,0-2.7,0-4.1,0.1c-1.6,0.1-2.5,1-2.5,2.6c0.1,3,0.3,5.9,0.3,8.9
			c0,2.1,0.9,3.4,2.6,4.4c0.8,0.4,1.6,0.9,2.3,1.4c32.6,20.1,55.3,48.3,68.1,84.4c0.5,1.3,0.9,2.6,1.5,3.8c0.1,0.3,0.7,0.4,1.1,0.5
			c0.1,0,0.3-0.3,0.3-0.4c0.1-0.9,0.2-1.8,0.2-2.7C1666.9,570.5,1666.9,559.1,1666.9,547.7z"/>
		<path class="st0" d="M1571.7,479c-3.2,0-6.4,0-9.5,0c-0.4,0-0.7,0.3-1,0.5c0.2,0.4,0.3,0.9,0.6,1.1c7.1,2.9,14.2,5.8,21.4,8.7
			c1.2,0.5,2.1-0.2,2-1.8c0-1.8-0.1-3.6-0.3-5.4c-0.3-2.3-1.1-3-3.6-3.1C1578,478.9,1574.8,479,1571.7,479z"/>
		<path class="st5" d="M1212.6,519.8c-8,0-15.9,0-23.9,0c-1.6,0-3.2,0.1-4.8-0.1c-5.3-0.7-9-5.1-8.9-10.4c0.1-4.9,3.8-9.1,8.8-9.8
			c1.3-0.2,2.7-0.1,4.1-0.1c16.4,0,32.7,0,49.1,0c1.1,0,2.3,0,3.4,0.1c5.8,0.5,9.6,4.8,9.5,10.4c-0.1,5.3-3.9,9.3-9.4,9.8
			c-1.6,0.2-3.2,0.1-4.8,0.1C1228.1,519.8,1220.3,519.8,1212.6,519.8z"/>
		<path class="st0" d="M1212.1,504.7c-7.7,0-15.4,0-23.2,0c-1.6,0-3.2,0-4.7,0.3c-2,0.4-3.5,2.5-3.5,4.5c0,2,1.5,4.1,3.5,4.6
			c0.9,0.2,1.8,0.3,2.7,0.3c17,0,34.1,0,51.1,0c1.1,0,2.3-0.1,3.4-0.4c2-0.6,3.3-2.7,3.2-4.7c-0.1-2.1-1.3-3.5-3.1-4
			c-1.5-0.5-3.1-0.5-4.7-0.5C1228.4,504.7,1220.3,504.7,1212.1,504.7z"/>
		<path class="st2" d="M1297.2,892.2c43.3,0.4,81-34.7,81.1-80.6c0.1-43.6-34.7-80.6-80.2-80.9c-46.8-0.3-81.2,37.7-81.5,80.3
			C1216.5,855.5,1252.7,892.3,1297.2,892.2z"/>
		<path class="st0" d="M1299,246.5c35.3,0,70.7-0.1,106,0.1c19.4,0.1,35.3,7.8,47.6,22.9c2.7,3.4,4.9,7.1,6.9,11
			c18.1,35.8,36.2,71.6,54.3,107.3c1.4,2.8,2.8,5.7,4.4,8.5c1.5,2.7,1.6,2.9,3.8,0.8c0.6-0.6,1.4-1.2,2.2-1.7
			c4.6-2.5,10-0.5,11.6,4.5c0.5,1.7,0.6,3.6,0.7,5.4c0.1,3,0.1,5.9,0.1,8.9c0,1.8,0.5,2.8,2.6,3.2c6.5,1.5,8.3,3.7,8.4,10.3
			c0.1,8.9,0,17.8,0,26.7c0,2.8-0.5,5.4-2.4,7.6c-2.3,2.7-6,1.9-8.6,3.4c-2.4,1.4-3.4,4.7-6.8,5.2c-4.6,0.7-8.1-1.3-9.6-5.7
			c-0.3-1.1-0.4-2.2-0.6-3.4c-0.2-1.3-1.1-1.9-2.4-1.9c-2.3,0-4.6-0.1-6.8-0.1c-104.6,0-209.3,0-313.9,0c-2.5,0-5,0.1-7.5-0.1
			c-7.5-0.5-12.8-5.4-13.8-12.8c-0.2-1.8-0.1-3.6-0.1-5.5c0-58.8,0-117.6,0-176.5c0-1.6-0.1-3.2,0.1-4.8c0.7-7.7,6-13,13.8-13.6
			c1.8-0.1,3.6-0.1,5.5-0.1C1229.2,246.5,1264.1,246.5,1299,246.5z"/>
		<path class="st4" d="M1353.3,454.3c52.4,0,104.8,0,157.2,0c2.3,0,4.6,0,6.8-0.1c1.3,0,2.1-0.8,2.2-2.1c0.1-1.6,0.2-3.2,0.2-4.8
			c0-10-0.1-20.1,0.1-30.1c0.1-4-0.9-7.5-2.7-11.1c-8.5-16.6-16.9-33.3-25.4-50c-12.3-24.4-24.5-48.8-37.1-73.1
			c-10.6-20.5-27.7-31.1-50.7-31.1c-70.2-0.2-140.4-0.1-210.6-0.1c-1.6,0-3.2-0.1-4.8,0.1c-4.5,0.7-7.4,3.6-8,8.1
			c-0.2,1.6-0.2,3.2-0.2,4.8c0,6.4,0,12.8,0,19.1c0,51.7,0,103.5,0,155.2c0,2.5-0.1,5,0.3,7.5c0.6,4.1,3.7,6.9,7.8,7.4
			c2.3,0.3,4.6,0.2,6.8,0.2C1248,454.3,1300.7,454.3,1353.3,454.3z"/>
		<path class="st5" d="M1531,432.2L1531,432.2c-0.1-2.7-0.1-5.5-0.1-8.2c0-6.4,0-12.7,0.1-19.1c0-1.4-0.2-2.7-1-3.9
			c-0.9-1.3-3.2-1.2-4,0.2c-0.9,1.5-0.8,3.1-0.8,4.6c0,18,0,36,0,53.9c0,0.9,0,1.8,0.2,2.7c0.2,1.5,0.9,2.6,2.5,2.8
			c1.6,0.2,2.8-1,3-3c0.1-0.9,0.1-1.8,0.1-2.7C1531,450.4,1531,441.3,1531,432.2z"/>
		<path class="st5" d="M1542.2,441.2c0-4.3,0-8.6,0-12.9c0-1.6-0.2-3.1-1.4-4.4c-0.9-1-2.8-0.9-3.6,0.2c-1,1.4-1.1,2.9-1.1,4.5
			c0,8.4,0,16.8,0,25.1c0,1.4,0,2.7,0.7,4c0.5,0.9,1.2,1.4,2.1,1.5c0.9,0.1,1.7-0.4,2.3-1.2c0.9-1.2,1-2.5,1-3.9
			C1542.2,449.8,1542.2,445.5,1542.2,441.2z"/>
		<path class="st6" d="M1617,627.9c0.5-8.8,0.9-16.8,3.5-24.4c1-3,2.2-6,3.9-8.7c1.2-2,2.6-3.7,4.4-5.1c4.1-3.2,8.4-3.2,12.5,0
			c2.2,1.7,3.8,3.9,5.1,6.3c2.3,4.2,3.8,8.8,4.8,13.5c2.8,13.4,2.6,26.7-0.9,39.9c-0.8,3.1-2.1,6-3.4,8.9c-1,2.3-2.5,4.3-4.3,6.1
			c-4.8,4.6-10.4,4.6-15.2,0c-2.3-2.2-3.9-5-5.2-7.9c-2-4.4-3.1-9-4-13.7c-0.4-2.2-0.6-4.5-0.7-6.8
			C1617.3,632.9,1617.1,630,1617,627.9z"/>
		<path class="st4" d="M1622.4,628.1c0.1,1.6,0.3,4.3,0.4,7c0.3,5.9,1.6,11.7,3.6,17.3c0.9,2.6,2.1,5,4,7.1c3.1,3.6,6.1,3.6,9.1,0.1
			c2-2.3,3.2-4.9,4.3-7.7c2-5.1,2.9-10.5,3.5-15.9c1.2-10.7,0.2-21.3-3.1-31.6c-0.9-2.8-2.1-5.5-3.9-7.9c-3.5-4.6-6.9-4.7-10.4-0.1
			c-2,2.6-3.1,5.5-4.2,8.5C1623.3,612,1622.8,619.4,1622.4,628.1z"/>
		<path class="st5" d="M1090.8,266.4c0-1.6,0.1-3.2-0.1-4.8c-0.6-5.8-3.8-9.1-9.7-9.6c-2.3-0.2-4.6-0.1-6.8-0.1
			c-119.2,0-238.4,0-357.7,0c-1.1,0-2.3,0.1-3.4,0c-10.2-0.6-13.2,4.9-13.2,13.1c0.1,58.8,0.1,117.6,0.1,176.4c0,1.8,0,3.7,0.4,5.4
			c1,4.5,4,7.1,8.6,7.4c2,0.1,4.1,0.1,6.2,0.1c60,0,119.9,0,179.9,0c59.9,0,119.9,0,179.9,0c2.1,0,4.1,0.1,6.2,0
			c5.5-0.3,8.9-3.4,9.6-8.7c0.2-1.8,0.1-3.6,0.1-5.5C1090.8,382.2,1090.8,324.3,1090.8,266.4z M1081.3,432.2
			c-0.4,6.9-5.3,11.9-12.2,12.4c-2,0.2-4.1,0.1-6.1,0.1c-56.1,0-112.1,0-168.2,0c-55.6,0-111.2,0-166.9,0c-2.3,0-4.6,0.1-6.8-0.1
			c-6.3-0.6-10.9-5.4-11.5-11.6c-0.1-1.6-0.1-3.2-0.1-4.8c0-49.9,0-99.8,0-149.8c0-1.1,0-2.3,0-3.4c0.3-7.1,4.4-12,11.5-13.1
			c2.4-0.4,5-0.3,7.5-0.3c70,0,140,0,209.9,0c41.3,0,82.5,0,123.8,0c2.3,0,4.6-0.1,6.8,0.2c7.8,1,12.1,6,12.3,13.8
			c0,1.6,0,3.2,0,4.8c0,48.8,0,97.6,0,146.3C1081.3,428.5,1081.4,430.3,1081.3,432.2z"/>
		<path class="st4" d="M895.1,439.3c55.6,0,111.2,0,166.8,0c2.1,0,4.1,0.1,6.1-0.1c4.7-0.4,7.5-3.1,7.9-7.8c0.1-1.6,0-3.2,0-4.8
			c0-49,0-98,0-147c0-1.4,0.1-2.7,0-4.1c-0.3-4.8-2.6-7.6-7.4-8.4c-2.5-0.4-5-0.3-7.5-0.3c-93.2,0-186.4,0-279.6,0c-18,0-36,0-54,0
			c-2,0-4.1,0-6.1,0.4c-4.1,0.9-6.2,3.5-6.5,7.7c-0.1,1.6,0,3.2,0,4.8c0,49,0,98,0,147c0,0.9,0.1,1.8,0,2.7
			c-0.7,6.1,3.6,10.4,10.1,9.8c1.8-0.2,3.6,0,5.5,0C785.3,439.3,840.2,439.3,895.1,439.3z"/>
		<path class="st1" d="M1297.8,856.3c23.8-0.5,44.7-18.9,44.5-45.1c-0.2-26.9-22.2-44.7-45-44.5c-23.2,0.1-44.7,18.5-44.5,45
			C1253,838.1,1274.2,856.2,1297.8,856.3z"/>
		<polyline class="st2" points="229.7,547.9 667.2,547.9 667.2,592.3 231.5,592.3 		"/>
		<rect x="672.8" y="547.9" class="st2" width="449.1" height="44.4"/>
		<polyline class="st2" points="232.8,611.5 667.2,611.5 667.2,656 236.6,656 		"/>
		<rect x="672.8" y="611.5" class="st2" width="449.1" height="44.4"/>
	</g>
</g>
</svg>
